<svg width="56" height="47" viewBox="0 0 56 47" fill="none" xmlns="http://www.w3.org/2000/svg">
<g clip-path="url(#clip0)">
<path d="M0 0V33.5671H42.6243L55.3229 47V33.5671V0H0Z" fill="#7AAA41"/>
<path d="M42.3797 12.1784L40.452 17.4414L38.1877 12.1784H35.8009L38.0653 17.013C37.6369 18.1758 36.9331 18.2982 36.2293 18.2982C35.3726 18.2982 34.7912 17.5026 34.7912 16.554V8.35352H31.2417V10.2507H32.5575V16.9824C32.5269 18.4206 31.9149 18.5124 31.6089 18.5124C31.3029 18.5124 30.8133 18.3594 30.8133 17.5944V15.4831C30.8133 12.9128 29.314 11.9642 26.9578 11.9642C25.7645 11.9642 24.5711 12.2702 23.9285 12.4844V14.4427C24.6629 14.1367 25.6115 13.8613 26.6825 13.8613C27.9064 13.8613 28.5184 14.4121 28.5184 15.1771V15.4525C27.9676 15.3301 27.2944 15.2383 26.6519 15.2383C25.2749 15.2383 23.6838 15.7279 23.3166 17.2272C22.8576 18.1452 21.9396 18.3288 21.4194 18.3288C20.5627 18.3288 19.9813 17.625 19.9813 16.7988V14.0755H22.4598V12.1784H19.9813V10.1895H17.7476V12.1784H16.4318V14.0755H17.7476V16.554C17.7476 17.778 16.7072 18.4206 15.9422 18.4206C14.9019 18.4206 14.3511 17.5332 14.3511 16.707V12.1784H10.5874V14.0755H12.0562V17.166C12.0562 19.0937 13.5555 20.2259 15.0549 20.2259C15.8198 20.2259 17.1356 20.2259 18.1453 18.849C18.7573 19.7669 19.8283 20.2259 20.8381 20.2259C21.5724 20.2259 22.5822 20.1035 23.5614 19.1549C24.0509 19.8281 24.9383 20.1953 25.8869 20.2259C27.0496 20.2565 27.937 19.8587 28.702 19.2773C29.0386 19.8587 29.7424 20.2259 30.9051 20.2259C32.0679 20.2259 32.7411 19.9505 33.2306 19.1243C33.8426 19.8281 34.7606 20.2259 35.7091 20.2259C36.7801 20.2259 37.8205 20.0423 38.769 18.7266L39.4116 20.1035L39.381 20.1341C38.9526 21.2969 38.3407 21.8477 37.5145 21.8477C37.2085 21.8477 36.9025 21.7865 36.5965 21.7253V23.5918C36.9943 23.6836 37.4227 23.7754 37.8205 23.7754C39.075 23.7754 40.299 23.1022 41.1864 20.9297L44.644 12.1784H42.3797V12.1784ZM28.4878 17.9922C27.9676 18.4512 27.3556 18.6348 26.7437 18.6348C26.0705 18.6348 25.5197 18.2676 25.5197 17.6862C25.5197 16.8906 26.3459 16.6152 27.172 16.6152C27.631 16.6152 28.1512 16.707 28.5184 16.7988V17.9922H28.4878ZM13.1883 11.291C13.9227 11.291 14.5347 10.679 14.5347 9.94466C14.5347 9.21029 13.9227 8.59831 13.1883 8.59831C12.4539 8.59831 11.842 9.21029 11.842 9.94466C11.842 10.679 12.4233 11.291 13.1883 11.291Z" fill="white"/>
<path d="M13.0962 25.9479C12.6678 25.9479 12.27 25.8561 11.9946 25.7031V25.1523C12.2394 25.2747 12.6372 25.3971 13.0044 25.3971C13.4328 25.3971 13.8 25.3053 13.8 24.9993C13.8 24.6934 13.494 24.6322 13.188 24.6322H12.6066V24.1426H13.188C13.494 24.1426 13.7388 24.0508 13.7388 23.806C13.7388 23.5306 13.4634 23.4082 13.035 23.4082C12.6984 23.4082 12.3006 23.5 12.0558 23.653V23.1022C12.3312 22.9798 12.729 22.8574 13.1268 22.8574C14.0142 22.8574 14.4119 23.2246 14.4119 23.7142C14.4119 24.0508 14.1978 24.2956 13.8918 24.3568C14.2284 24.4486 14.4731 24.6934 14.4731 25.0605C14.4731 25.5807 14.0142 25.9479 13.0962 25.9479Z" fill="white"/>
<path d="M17.8083 25.3972C17.8695 25.3972 17.9307 25.3666 17.9919 25.3666V25.8256C17.8695 25.8868 17.7165 25.8868 17.5941 25.8868C17.3187 25.8868 17.1045 25.795 17.0127 25.5502C16.7373 25.795 16.3701 25.9174 15.9111 25.9174C15.3909 25.9174 14.9014 25.642 14.9014 25.03C14.9014 24.2956 15.6051 24.0508 16.1865 24.0508C16.4313 24.0508 16.7067 24.0814 16.9515 24.1426V24.0508C16.9515 23.6836 16.6761 23.4388 16.1865 23.4388C15.7581 23.4388 15.3909 23.5612 15.1462 23.653V23.0717C15.3909 22.9799 15.7887 22.8881 16.2477 22.8881C17.0739 22.8881 17.5941 23.2858 17.5941 24.1732V25.2136C17.5941 25.336 17.6859 25.3972 17.8083 25.3972ZM15.5745 24.9994C15.5745 25.2748 15.8193 25.4278 16.1253 25.4278C16.4313 25.4278 16.7373 25.3054 16.9515 25.0912V24.6016C16.7679 24.571 16.5231 24.5404 16.3089 24.5404C15.9417 24.5404 15.5745 24.6322 15.5745 24.9994Z" fill="white"/>
<path d="M18.4814 25.8561V22.9492H20.654V23.5306H19.124V25.8561H18.4814Z" fill="white"/>
<path d="M22.4595 22.8881C23.2856 22.8881 24.02 23.4082 24.02 24.418C24.02 25.4278 23.255 25.948 22.4595 25.948C21.6639 25.948 20.8989 25.4278 20.8989 24.418C20.8989 23.4082 21.6639 22.8881 22.4595 22.8881ZM22.4595 23.4694C21.9087 23.4694 21.5415 23.8366 21.5415 24.418C21.5415 24.9994 21.9087 25.3666 22.4595 25.3666C23.0103 25.3666 23.3774 24.9994 23.3774 24.418C23.3774 23.8366 23.0103 23.4694 22.4595 23.4694Z" fill="white"/>
<path d="M26.3763 22.8881C27.2331 22.8881 27.8144 23.5918 27.8144 24.418C27.8144 25.2442 27.2331 25.948 26.3763 25.948C25.8561 25.948 25.5195 25.7338 25.3359 25.489V27.2025H24.6934V22.9493H25.2747V23.4082C25.4889 23.1329 25.8255 22.8881 26.3763 22.8881ZM26.2539 23.4388C25.7949 23.4388 25.4583 23.7142 25.3359 24.0508V24.7546C25.4889 25.0606 25.8255 25.3666 26.2539 25.3666C26.7741 25.3666 27.1413 24.9688 27.1413 24.418C27.1413 23.8366 26.7741 23.4388 26.2539 23.4388Z" fill="white"/>
<path d="M29.8339 22.8881C30.6601 22.8881 31.3944 23.4082 31.3944 24.418C31.3944 25.4278 30.6295 25.948 29.8339 25.948C29.0383 25.948 28.2733 25.4278 28.2733 24.418C28.2427 23.4082 29.0077 22.8881 29.8339 22.8881ZM29.8339 23.4694C29.2831 23.4694 28.9159 23.8366 28.9159 24.418C28.9159 24.9994 29.2831 25.3666 29.8339 25.3666C30.3847 25.3666 30.7519 24.9994 30.7519 24.418C30.7519 23.8366 30.3541 23.4694 29.8339 23.4694Z" fill="white"/>
<path d="M31.7002 26.6517V25.336H32.098C32.4346 24.724 32.557 23.9896 32.557 22.9799H34.8213V25.336H35.2497V26.6517H34.6377V25.8562H32.3122V26.6517H31.7002ZM32.7712 25.336H34.1787V23.5H33.1689C33.1383 24.265 33.016 24.8158 32.7712 25.336Z" fill="white"/>
</g>
<defs>
<clipPath id="clip0">
<rect width="55.3229" height="47" fill="white"/>
</clipPath>
</defs>
</svg>
