<svg width="2060" height="936" viewBox="0 0 2060 936" fill="none" xmlns="http://www.w3.org/2000/svg">
<path d="M531.592 809.211H569.867C588.9 809.211 602.518 822.055 602.518 841.859C602.518 861.64 588.9 874.933 569.867 874.933H546.229V913.505H531.591V809.211H531.592ZM567.459 862.261C579.896 862.261 587.724 854.406 587.724 841.859C587.724 829.423 579.896 821.89 567.675 821.89H546.232V862.261H567.459V862.261Z" fill="black"/>
<path d="M654.782 809.211H715.465V821.891H669.418V854.565H706.781V867.27H669.418V900.801H717.986V913.508H654.782V809.211V809.211Z" fill="black"/>
<path d="M818.711 807.445C832.221 807.445 846.801 811.572 856.829 821.17L849.432 832.076C841.712 825.297 830.077 820.713 819.305 820.713C795.075 820.713 780.759 838.592 780.759 860.625C780.759 882.766 795.34 901.822 819.626 901.822C831.257 901.822 843.265 896.648 851.683 888.26L859.511 898.717C850.611 907.586 837.639 915.252 819.142 915.252C786.762 915.252 765.697 891.344 765.697 860.732C765.697 830.443 787.728 807.445 818.711 807.445Z" fill="black"/>
<path d="M936.325 821.89H900.408V809.21H986.665V821.89H950.799V913.505H936.324L936.325 821.89Z" fill="black"/>
<path d="M1083.85 807.445C1113.98 807.445 1137.3 830.603 1137.3 860.623C1137.3 891.342 1113.98 915.248 1083.85 915.248C1053.73 915.248 1030.25 891.342 1030.25 860.623C1030.25 830.601 1053.73 807.445 1083.85 807.445ZM1083.85 901.822C1105.14 901.822 1122.23 883.941 1122.23 860.621C1122.23 838 1105.14 820.709 1083.85 820.709C1062.47 820.709 1045.31 838 1045.31 860.621C1045.31 883.941 1062.47 901.822 1083.85 901.822Z" fill="black"/>
<path d="M1192.35 809.211H1230.52C1249.6 809.211 1263.17 822.055 1263.17 841.859C1263.17 861.64 1249.61 874.933 1230.52 874.933H1206.88V913.505H1192.35V809.211ZM1228.22 862.261C1240.55 862.261 1248.43 854.406 1248.43 841.859C1248.43 829.423 1240.55 821.89 1228.33 821.89H1206.88V862.261H1228.22V862.261Z" fill="black"/>
<path d="M1341.33 809.211H1356.82L1394.19 913.506H1379.12L1368.62 883.486H1329.32L1318.92 913.506H1303.97L1341.33 809.211ZM1364.81 871.398L1353.28 838.459C1351.46 832.963 1349.1 823.527 1349.1 823.527H1348.84C1348.84 823.527 1346.64 832.963 1344.87 838.459L1333.18 871.398H1364.81Z" fill="black"/>
<path d="M1444.09 809.211H1458.67V854.992H1512.98V809.211H1527.4V913.506H1512.98V867.697H1458.67V913.506H1444.09V809.211Z" fill="black"/>
<path d="M294.97 590.094C298.136 592.078 301.188 595.535 304.139 600.469C307.141 605.453 308.642 611.297 308.642 618.026V634.645H209.412V618.614C209.412 611.43 210.756 605.723 213.593 601.382C216.33 597.038 219.278 593.878 222.494 591.866C224.422 590.284 226.139 588.729 227.482 587.122C228.925 585.54 229.57 582.97 229.57 579.401C228.768 571.842 227.802 564.981 226.625 558.655C225.816 553.026 225.017 547.774 224.266 542.843C223.458 537.964 223.087 534.48 223.087 532.443C222.279 527.673 220.729 524.541 218.369 522.955C215.953 521.4 212.953 520.545 209.413 520.545H141.602C135.328 520.545 131.739 524.541 130.988 532.443C130.558 534.48 130.238 537.964 130.075 542.843C129.916 547.775 129.38 553.029 128.63 558.655C127.821 564.981 127.022 571.843 126.214 579.401C126.214 582.969 126.645 585.542 127.393 587.122C128.202 588.729 129.594 590.284 131.524 591.866C134.742 593.874 137.686 597.036 140.473 601.382C143.263 605.724 144.606 611.433 144.606 618.614V634.645H45.432V619.178C45.432 612.479 46.825 606.42 49.828 601.059C52.831 595.696 55.883 592.079 59.099 590.094C61.028 588.541 62.801 586.772 64.411 585.03C65.962 583.259 67.199 580.825 67.999 577.634C79.099 516.628 89.12 462.123 98.291 414.252C102.258 393.588 106.009 373.513 109.549 353.891C113.138 334.299 116.411 316.783 119.413 301.302C122.356 285.864 124.715 273.371 126.539 263.885C128.31 254.358 129.169 249.426 129.169 249.023C129.598 245.83 129.754 242.965 129.754 240.405C129.754 237.817 128.788 236.143 126.754 235.325C116.89 231.376 111.959 220.893 111.959 203.832V190.2H191.567C200.624 190.2 207.971 192.841 213.598 198.2C219.066 203.535 222.283 209.752 223.09 216.936C223.09 218.501 224.054 224.88 226.033 235.939C228.019 247.006 230.536 261.215 233.488 278.449C236.433 295.683 239.814 314.945 243.566 336.345C247.318 357.735 251.178 379.552 255.145 401.733C264.26 453.609 274.552 512.255 286.022 577.63C286.88 580.821 288.004 583.257 289.612 585.028C291.166 586.767 292.932 588.541 294.97 590.094ZM204.645 471.275C207.435 471.275 209.626 470.285 211.187 468.273C212.739 466.278 213.275 464.09 212.953 461.71C212.953 461.357 212.367 457.971 211.187 451.614C210.008 445.275 208.556 437.193 207.055 427.277C205.447 417.374 203.681 406.196 201.694 393.735C199.714 381.229 197.512 368.459 195.154 355.403L177.306 251.997H176.126L158.33 355.403C155.915 368.459 153.721 381.229 151.79 393.735C149.751 406.197 147.981 417.374 146.431 427.277C144.823 437.194 143.535 445.275 142.57 451.614C141.549 457.969 141.069 461.357 141.069 461.71C140.692 464.509 141.283 466.762 142.891 468.608C144.443 470.321 146.429 471.276 148.787 471.276H204.645V471.275Z" fill="black"/>
<path d="M458.955 190.198C492.622 190.198 516.795 198.885 531.484 216.344C546.121 233.754 553.463 257.357 553.463 287.014V351.813C553.463 381.561 546.121 404.814 531.484 421.635C516.795 438.452 492.622 446.869 458.955 446.869H420.359C414.784 446.869 411.995 449.241 411.995 454.013V577.63C411.995 581.599 412.474 584.329 413.498 585.911C414.464 587.548 415.963 589.128 417.944 590.655C421.16 593.067 424.326 596.444 427.486 600.733C430.595 605.129 432.203 610.704 432.203 617.43V634.641H333.028V617.43C333.028 610.701 334.53 605.127 337.802 600.733C340.912 596.444 344.073 593.067 347.239 590.655C349.219 589.128 350.718 587.546 351.685 585.911C352.706 584.329 353.186 581.599 353.186 577.63V247.836C353.186 241.914 350.613 237.52 345.523 234.757C341.502 232.345 338.126 228.834 335.337 224.033C332.601 219.291 331.205 212.99 331.205 204.989V190.194H458.954V190.198H458.955ZM494.659 285.859C494.659 271.986 491.764 260.921 485.974 252.555C480.235 244.248 471.229 240.093 458.956 240.093H421.537C419.18 240.093 416.978 240.762 414.997 242.168C412.96 243.549 411.995 245.65 411.995 248.397V388.662C411.995 394.197 414.569 396.959 419.766 396.959H458.954C471.228 396.959 480.234 392.804 485.973 384.481C491.763 376.198 494.658 365.062 494.658 351.244V285.857L494.659 285.859Z" fill="black"/>
<path d="M801.342 588.912C804.56 590.871 807.618 593.391 810.564 596.34C813.516 599.289 815.018 604.326 815.018 611.43V634.645H765.698C755.405 634.645 747.793 631.991 742.861 626.627C737.872 621.268 735.356 614.244 735.356 605.531V489.072C735.356 475.228 732.569 464.4 726.781 456.67C721.042 448.949 711.822 445.104 699.169 445.104H662.287C657.199 445.104 654.624 447.864 654.624 453.397V577.633C654.624 581.6 655.21 584.332 656.393 585.914C657.57 587.551 658.965 589.131 660.524 590.658C663.683 593.07 666.849 596.447 670.066 600.734C673.226 605.13 674.783 610.707 674.783 617.433V634.642H576.146V617.433C576.146 610.704 577.698 605.13 580.863 600.734C584.079 596.447 587.239 593.07 590.405 590.658C591.956 589.129 593.348 587.549 594.586 585.914C595.765 584.332 596.354 581.6 596.354 577.633V247.253C596.354 244.036 595.767 241.581 594.586 239.788C593.35 238.017 591.957 236.704 590.405 235.939C587.238 233.968 584.185 230.804 581.184 226.451C578.232 222.067 576.73 215.729 576.73 207.421V190.2H699.168C716.165 190.2 730.689 192.626 742.539 197.583C754.384 202.585 764.196 209.403 771.915 218.09C779.685 226.815 785.368 237.251 788.853 249.301C792.499 261.432 794.213 274.763 794.213 289.43V350.608C794.213 363.301 791.641 374.867 786.494 385.375C781.348 395.896 774.594 404.51 766.281 411.25C762.743 414.765 763.122 418.768 767.517 423.098C776.631 429.893 783.328 439.181 787.725 451.041C792.069 462.941 794.214 476.187 794.214 490.873V578.197C794.214 582.191 794.909 584.658 796.302 585.623C797.697 586.662 799.362 587.707 801.342 588.912ZM735.355 285.243C735.355 271.371 732.568 260.393 726.78 252.302C721.041 244.14 711.819 240.094 699.168 240.094H664.061C657.784 240.094 654.623 242.854 654.623 248.402V389.818C654.623 391.841 655.373 393.383 656.927 394.562C658.533 395.783 660.142 396.356 661.75 396.356H699.168C711.821 396.356 721.041 392.216 726.78 383.918C732.57 375.584 735.355 364.5 735.355 350.604V285.243Z" fill="black"/>
<path d="M1129.64 322.096C1129.64 330.045 1133.39 337.551 1140.89 344.653C1148.45 351.813 1157.72 359.02 1168.82 366.351C1179.92 373.706 1192.09 381.426 1205.39 389.522C1218.62 397.684 1230.85 406.664 1241.95 416.583C1252.99 426.458 1262.32 437.556 1269.87 449.856C1277.33 462.119 1281.13 476.182 1281.13 492.047V550.236C1281.13 565.326 1278.13 578.486 1272.23 589.797C1266.29 601.057 1258.35 610.383 1248.49 617.729C1238.57 625.073 1227.1 630.512 1213.97 634.079C1200.94 637.645 1187.06 639.386 1172.42 639.386C1157.73 639.386 1143.9 637.646 1130.82 634.079C1117.74 630.515 1106.37 625.073 1096.61 617.729C1086.97 610.383 1079.19 601.055 1073.51 589.797C1067.72 578.486 1064.88 565.324 1064.88 550.236V505.715H1093.4C1104.07 505.715 1112.05 508.154 1117.47 513.111C1122.77 518.099 1125.45 525.119 1125.45 534.205V559.777C1125.45 564.978 1126.9 569.504 1129.96 573.447C1132.91 577.467 1136.66 580.818 1141.21 583.551C1145.77 586.315 1150.81 588.539 1156.33 590.092C1161.91 591.674 1167.22 592.481 1172.41 592.481C1177.51 592.481 1182.92 591.571 1188.44 589.799C1193.96 587.979 1199.11 585.617 1203.88 582.67C1208.65 579.668 1212.51 576.129 1215.46 571.947C1218.41 567.793 1219.96 563.156 1219.96 558.009V495.021C1219.96 481.912 1216.26 470.761 1208.97 461.42C1201.63 452.119 1192.41 443.703 1181.26 436.198C1170.22 428.652 1158.26 421.216 1145.34 413.886C1132.48 406.554 1120.47 398.555 1109.43 389.814C1098.33 381.117 1089.11 370.918 1081.81 359.244C1074.47 347.548 1070.83 333.369 1070.83 316.774V274.52C1070.83 258.707 1073.4 245.168 1078.55 233.857C1083.64 222.545 1090.77 213.272 1099.88 205.926C1109.05 198.569 1119.72 193.238 1132.05 189.885C1144.32 186.549 1157.72 184.833 1172.41 184.833C1187.05 184.833 1200.66 186.722 1213.1 190.475C1225.54 194.268 1236.47 199.777 1245.74 207.093C1255.07 214.448 1262.31 223.724 1267.51 235.033C1272.6 246.292 1275.18 259.495 1275.18 274.517V318.54H1248.48C1238.56 318.54 1230.25 315.39 1223.5 309.039C1216.75 302.643 1213.42 294.751 1213.42 285.236V263.271C1213.42 258.5 1212.03 254.347 1209.24 250.808C1206.5 247.244 1202.96 244.348 1198.84 242.162C1194.71 240.029 1190.1 238.395 1185.22 237.419C1180.24 236.383 1175.73 235.93 1171.82 235.93C1167.43 235.93 1162.93 236.549 1158.1 237.701C1153.38 238.908 1148.82 240.648 1144.48 243.059C1140.14 245.449 1136.55 248.285 1133.81 251.676C1130.97 255.056 1129.63 258.9 1129.63 263.27V322.089H1129.64V322.096H1129.64Z" fill="black"/>
<path d="M1478.3 322.096C1478.3 330.045 1482.05 337.551 1489.55 344.653C1497.06 351.813 1506.38 359.02 1517.48 366.351C1528.58 373.706 1540.75 381.426 1554.05 389.522C1567.34 397.684 1579.46 406.664 1590.55 416.583C1601.65 426.458 1610.98 437.556 1618.48 449.856C1626.04 462.119 1629.79 476.182 1629.79 492.047V550.236C1629.79 565.326 1626.85 578.486 1620.89 589.797C1614.95 601.057 1606.95 610.383 1597.09 617.729C1587.23 625.073 1575.76 630.512 1562.62 634.079C1549.59 637.645 1535.66 639.386 1521.08 639.386C1506.39 639.386 1492.56 637.646 1479.43 634.079C1466.35 630.515 1454.98 625.073 1445.33 617.729C1435.57 610.383 1427.8 601.055 1422.12 589.797C1416.38 578.486 1413.54 565.324 1413.54 550.236V505.715H1442.01C1452.73 505.715 1460.77 508.154 1466.13 513.111C1471.44 518.099 1474.12 525.119 1474.12 534.205V559.777C1474.12 564.978 1475.62 569.504 1478.57 573.447C1481.51 577.467 1485.27 580.818 1489.88 583.551C1494.44 586.315 1499.42 588.539 1504.99 590.092C1510.57 591.674 1515.88 592.481 1521.08 592.481C1526.17 592.481 1531.54 591.571 1537.11 589.799C1542.63 587.979 1547.83 585.617 1552.6 582.67C1557.32 579.668 1561.18 576.129 1564.13 571.947C1567.07 567.793 1568.57 563.156 1568.57 558.009V495.021C1568.57 481.912 1564.93 470.761 1557.59 461.42C1550.24 452.119 1541.08 443.703 1529.93 436.198C1518.89 428.652 1506.88 421.216 1494.01 413.886C1481.15 406.554 1469.19 398.555 1458.09 389.814C1446.99 381.117 1437.77 370.918 1430.43 359.244C1423.09 347.548 1419.44 333.369 1419.44 316.774V274.52C1419.44 258.707 1422.01 245.168 1427.16 233.857C1432.3 222.545 1439.44 213.272 1448.49 205.926C1457.67 198.569 1468.38 193.238 1480.66 189.885C1492.94 186.549 1506.39 184.833 1521.08 184.833C1535.66 184.833 1549.28 186.722 1561.77 190.475C1574.26 194.268 1585.08 199.777 1594.41 207.093C1603.8 214.448 1610.98 223.724 1616.13 235.033C1621.27 246.292 1623.9 259.495 1623.9 274.517V318.54H1597.09C1587.23 318.54 1578.87 315.39 1572.17 309.039C1565.41 302.643 1562.03 294.751 1562.03 285.236V263.271C1562.03 258.5 1560.64 254.347 1557.91 250.808C1555.12 247.244 1551.63 244.348 1547.51 242.162C1543.33 240.029 1538.82 238.395 1533.83 237.419C1528.9 236.383 1524.46 235.93 1520.49 235.93C1516.09 235.93 1511.53 236.549 1506.77 237.701C1502.05 238.908 1497.44 240.648 1493.15 243.059C1488.75 245.449 1485.16 248.285 1482.43 251.676C1479.64 255.056 1478.3 258.9 1478.3 263.27V322.089H1478.3V322.096H1478.3Z" fill="black"/>
<path d="M1876.97 584.115C1881.31 586.152 1884.91 589.019 1887.64 592.746C1890.43 596.523 1891.82 602.986 1891.82 612.072V634.642H1879.98H1852.58C1847.86 634.642 1843.79 634.345 1840.42 633.755C1837.09 633.165 1834.09 632.067 1831.51 630.511C1828.94 628.929 1826.42 626.517 1824.06 623.325C1821.7 620.218 1819.13 616.225 1816.34 611.427C1815.16 609.124 1813.12 605.13 1810.12 599.583C1807.18 594.03 1803.79 587.384 1799.99 579.665C1796.24 571.944 1792.17 563.743 1787.82 555.005C1783.43 546.349 1779.09 537.37 1774.8 528.31C1764.45 507.273 1752.98 484.083 1740.33 458.754L1730.79 477.17V578.809C1730.79 582.002 1731.27 584.33 1732.29 585.911C1733.25 587.548 1734.75 589.126 1736.74 590.655C1739.9 593.067 1743.06 596.444 1746.22 600.733C1749.39 605.129 1751 610.704 1751 617.43V634.641H1652.36V617.43C1652.36 610.701 1653.91 605.129 1657.13 600.733C1660.24 596.444 1663.4 593.067 1666.67 590.655C1668.17 589.126 1669.46 587.598 1670.42 586.206C1671.44 584.811 1672.14 582.372 1672.57 578.81V246.656C1672.14 243.466 1671.44 241.083 1670.42 239.498C1669.46 237.932 1668.17 236.554 1666.67 235.316C1663.4 232.959 1660.24 229.568 1657.13 225.237C1653.91 220.883 1652.36 215.349 1652.36 208.621V190.799H1750.41V208.621C1750.41 215.35 1748.85 220.884 1745.64 225.237C1742.47 229.569 1739.31 232.959 1736.15 235.316C1734.17 236.552 1732.66 237.93 1731.7 239.498C1730.68 241.082 1730.2 243.654 1730.2 247.246V358.91L1809.22 216.341C1811.2 211.96 1813.99 207.805 1817.52 203.824C1820.31 200.675 1823.9 197.701 1828.19 194.937C1832.59 192.191 1837.95 190.797 1844.28 190.797H1881.74V213.954C1881.74 222.652 1879.44 229.22 1874.88 233.573C1870.33 237.928 1865.88 241.08 1861.54 243.062C1858.32 244.642 1856.07 246.655 1854.68 249.012C1853.28 251.372 1851.57 254.134 1849.64 257.349C1848.83 258.5 1846.74 262.161 1843.36 268.287C1839.99 274.476 1835.91 281.954 1831.14 290.909C1826.42 299.778 1821.33 309.522 1815.76 319.988C1810.23 330.498 1804.87 340.6 1799.72 350.291C1794.53 360.062 1790.02 368.732 1786.06 376.479C1782.09 384.211 1779.3 389.625 1777.74 392.801C1776.89 394.759 1776.35 396.581 1775.92 398.136C1775.55 399.732 1775.92 402.289 1777.16 405.881C1777.16 406.66 1778.45 409.526 1780.96 414.499C1783.54 419.442 1786.86 425.894 1790.83 433.758C1794.74 441.704 1799.3 450.658 1804.5 460.603C1809.65 470.426 1814.74 480.557 1819.94 490.865C1832.16 515.013 1846.1 542.138 1861.54 572.265C1863.47 575.427 1865.45 577.816 1867.43 579.394C1869.41 580.953 1872.63 582.562 1876.97 584.115Z" fill="black"/>
<path d="M1993.41 577.011V578.189C1993.41 581.755 1994 584.33 1995.18 585.91C1996.41 587.547 1997.75 588.91 1999.36 590.094C2002.52 592.481 2005.68 595.803 2008.9 600.229C2012.01 604.54 2013.62 610.116 2013.62 616.846V634.643H1914.39V616.846C1914.39 610.116 1915.73 604.647 1918.52 600.465C1921.3 596.336 1924.69 592.854 1928.65 590.09C1930.58 588.91 1932.13 587.545 1933.1 585.908C1934.06 584.326 1934.6 581.756 1934.6 578.189V577.009V247.837C1934.6 243.83 1934.06 241.082 1933.1 239.499C1932.13 237.933 1930.58 236.301 1928.65 234.756C1925.49 232.346 1922.27 229.033 1919.16 224.653C1915.94 220.295 1914.39 214.789 1914.39 207.977V190.795H2013.62V207.977C2013.62 214.789 2012.01 220.293 2008.9 224.653C2005.68 229.033 2002.52 232.343 1999.36 234.756C1997.32 236.298 1995.88 237.933 1994.91 239.499C1993.89 241.082 1993.41 243.83 1993.41 247.837L1993.41 577.011Z" fill="black"/>
<path d="M918.69 242.168C916.867 243.939 916.06 246.04 916.06 248.398V372.582C916.06 378.144 919.011 380.944 924.959 380.944H995.613C997.598 380.944 999.686 381.599 1001.94 383.009C1004.08 384.403 1005.21 386.703 1005.21 389.814V423.092C1005.21 428.653 1002.21 431.428 996.254 431.428H924.957C919.01 431.428 916.059 434.199 916.059 439.737V578.189C916.059 583.763 918.416 586.5 923.192 586.5H982.588C986.984 586.5 989.128 583.898 989.128 578.807C989.128 572.455 991.81 567.495 997.17 563.957C1002.53 560.365 1009.71 558.648 1018.83 558.648H1041.39V619.787C1041.39 624.156 1039.89 627.695 1036.89 630.51C1033.99 633.244 1030.35 634.643 1025.95 634.643H989.13H873.234H837.582V619.174C837.582 610.488 838.709 603.842 840.853 599.287C843.047 594.73 846.107 591.486 850.074 589.476C855.221 586.716 857.794 582.56 857.794 577.007V248.399C857.794 244.861 857.043 242.059 855.436 240.09C853.828 238.107 852.004 236.553 850.076 235.318C846.109 233.387 843.05 230.186 840.855 225.832C838.71 221.476 837.584 215.352 837.584 207.417V190.196H1025.96C1030.73 190.196 1034.49 191.55 1037.28 194.349C1040 197.082 1041.4 200.084 1041.4 203.262V266.238H1019.42C1011.11 266.238 1004.09 265.166 998.299 262.955C992.568 260.786 989.723 256.351 989.723 249.607C989.723 247.247 989.136 244.954 987.956 242.758C986.721 240.546 984.525 239.497 981.415 239.497H924.377C922.337 239.5 920.515 240.401 918.69 242.168Z" fill="black"/>
<path d="M888.617 20.6509L941.743 99.2929L922.28 115.348L837.581 36.7749V20.6509H888.617Z" fill="black"/>
</svg>
