<svg xmlns="http://www.w3.org/2000/svg" viewBox="0 0 165 85" fill="currentColor"><path d="M0.400024 62.8777V0.399902H11.2938C21.4987 0.399902 26.5796 5.65303 26.5796 16.1593C26.5796 23.1778 24.0822 27.6559 19.1305 29.5505V29.7227C24.685 31.7465 27.4407 36.8274 27.4407 45.0515C27.4407 56.9357 22.1876 62.8777 11.6813 62.8777H0.400024ZM9.57148 26.0197H10.0882C12.6286 26.0197 14.4371 25.3307 15.5135 23.9959C16.59 22.6611 17.1498 20.379 17.1498 17.1927C17.1498 14.1786 16.6761 12.0257 15.7288 10.6909C14.7816 9.35606 13.1884 8.66713 10.9494 8.66713H9.52841V26.0197H9.57148ZM9.57148 54.6536H11.466C13.8773 54.6536 15.5566 53.8785 16.547 52.3284C17.4942 50.7783 17.9679 48.1517 17.9679 44.4056C17.9679 40.6165 17.4081 37.9469 16.3317 36.4829C15.2552 35.0189 13.3176 34.2869 10.5188 34.2869H9.52841V54.6536H9.57148Z" fill="currentColor"></path><path d="M63.3515 62.8777H53.9217L47.5491 35.4064C47.2046 35.4495 46.6449 35.4925 45.9559 35.5356H44.0613V62.8777H34.8899V0.399902H45.9559C51.0368 0.399902 54.869 1.90695 57.5386 4.87798C60.2083 7.84902 61.5 12.241 61.5 17.9247C61.5 24.814 59.5624 29.7227 55.6871 32.6937L63.3515 62.8777ZM44.0613 27.1823H45.9559C50.0034 27.1823 52.0272 24.0821 52.0272 17.9247C52.0272 11.7243 50.0034 8.58101 45.9559 8.58101H44.0613V27.1823Z" fill="currentColor"></path><path d="M91.8131 59.6914C89.5741 62.4041 86.3878 63.7389 82.2542 63.7389C78.1636 63.7389 74.9773 62.4041 72.6952 59.6914C70.4561 56.9787 69.2936 53.1896 69.2936 48.367V0.399902H78.422V47.6781C78.422 50.6061 78.7234 52.6729 79.2831 53.8354C79.8429 54.998 80.9194 55.5578 82.4264 55.5578C83.8043 55.5578 84.7946 54.955 85.3974 53.7924C86.0002 52.6298 86.3017 50.563 86.3017 47.6781V0.399902H95.1287V48.367C95.2148 53.1896 94.0522 56.9787 91.8131 59.6914Z" fill="currentColor"></path><path d="M121.437 0.399902L116.744 19.8623H116.572L111.921 0.399902H102.319L110.371 30.1102L101.458 62.8777H110.199L115.797 39.54H115.969L121.524 62.8777H131.126L122.256 29.8088L130.221 0.399902H121.437Z" fill="currentColor"></path><path d="M155.712 0.399902L151.019 19.8623H150.846L146.196 0.399902H136.594L144.646 30.1102L135.733 62.8777H144.474L150.071 39.54H150.287L155.798 62.8777H165.4L156.53 29.8088L164.496 0.399902H155.712Z" fill="currentColor"></path><path d="M28.8187 74.8479V81.9525L24.7711 74.8479H22.5321V85.0528H24.5128V77.8189L28.6464 85.0528H30.7993V74.8479H28.8187Z" fill="currentColor"></path><path d="M35.1051 74.8479V85.0528H42.8556V83.2443H37.215V80.6177H42.1667V78.8523H37.215V76.6564H42.5973V74.8479H35.1051Z" fill="currentColor"></path><path d="M56.7636 74.8479L55.3857 80.7469L55.0843 82.3401L54.7829 80.7039L53.5342 74.8479H51.2952L50.1757 80.7469L49.8742 82.3401L49.5728 80.7039L48.238 74.8479H45.9559L48.8409 85.0528H50.8215L52.0702 79.1107L52.4147 77.13L52.7592 79.1107L54.0079 85.0528H56.0316L58.9165 74.8479H56.7636Z" fill="currentColor"></path><path d="M75.9677 75.9676C76.2691 76.3982 76.4413 76.9149 76.4413 77.5177C76.4413 78.1205 76.2691 78.6372 75.9677 79.0247C75.7954 79.24 75.5371 79.4122 75.1926 79.5845C75.7093 79.7567 76.0968 80.0581 76.3552 80.4887C76.6135 80.9193 76.7427 81.3929 76.7427 81.9958C76.7427 82.5986 76.5705 83.1583 76.2691 83.632C76.0968 83.9334 75.8385 84.2348 75.5371 84.4501C75.1926 84.7084 74.8481 84.8807 74.3745 84.9668C73.9439 85.0529 73.4703 85.096 72.9536 85.096H68.3463V74.8911H73.255C74.5898 74.8911 75.451 75.2356 75.9677 75.9676ZM70.4562 76.6565V78.8956H72.9105C73.3411 78.8956 73.7286 78.8094 73.987 78.6372C74.2453 78.465 74.4175 78.1636 74.4175 77.733C74.4175 77.2593 74.2453 76.9579 73.8578 76.7857C73.5564 76.6996 73.1258 76.6135 72.6522 76.6135H70.4562V76.6565ZM70.4562 80.5748V83.2875H72.9105C73.3411 83.2875 73.6856 83.2445 73.9439 83.1153C74.3745 82.9 74.6328 82.4694 74.6328 81.8235C74.6328 81.3068 74.4175 80.9193 73.987 80.7471C73.7286 80.6179 73.4272 80.5748 72.9536 80.5748H70.4562Z" fill="currentColor"></path><path d="M80.7902 74.8479V85.0528H88.5407V83.2443H82.9V80.6177H87.8518V78.8523H82.9V76.6564H88.2823V74.8479H80.7902Z" fill="currentColor"></path><path d="M92.4159 74.8479V85.0528H99.6067V83.2443H94.5258V74.8479H92.4159Z" fill="currentColor"></path><path d="M109.941 78.0342C109.768 77.3453 109.381 76.8716 108.778 76.5702C108.434 76.398 108.046 76.3549 107.616 76.3549C106.797 76.3549 106.108 76.6563 105.592 77.3022C105.075 77.905 104.817 78.8523 104.817 80.101C104.817 81.3497 105.118 82.2539 105.678 82.7706C106.238 83.2873 106.884 83.5457 107.616 83.5457C108.348 83.5457 108.907 83.3304 109.381 82.9429C109.855 82.5553 110.113 81.9956 110.242 81.3497H107.874V79.6704H112.137V85.0527H110.716L110.5 83.804C110.07 84.2777 109.725 84.6221 109.381 84.8374C108.821 85.1819 108.132 85.3541 107.314 85.3541C105.979 85.3541 104.86 84.8805 103.999 83.9332C103.094 82.9859 102.664 81.6942 102.664 80.101C102.664 78.4648 103.137 77.13 104.042 76.1396C104.946 75.1493 106.152 74.6326 107.659 74.6326C108.95 74.6326 109.984 74.977 110.759 75.6229C111.534 76.2688 112.007 77.0869 112.094 78.0772H109.941V78.0342Z" fill="currentColor"></path><path d="M118.38 74.8911H116.27V85.096H118.38V74.8911Z" fill="currentColor"></path><path d="M126.691 77.2161L127.982 81.2206H125.356L126.691 77.2161ZM125.528 74.8479L121.911 85.0528H124.15L124.839 82.9429H128.585L129.274 85.0528H131.599L127.982 74.8479H125.528Z" fill="currentColor"></path><path d="M141.287 74.8479V81.9525L137.24 74.8479H135.001V85.0528H136.981V77.8189L141.158 85.0528H143.268V74.8479H141.287Z" fill="currentColor"></path></svg>