<svg width="498" height="422" viewBox="0 0 498 422" fill="none" xmlns="http://www.w3.org/2000/svg">
<path d="M0 0V300.791H383.529L497.647 421.225V0H0Z" fill="#EE4223"/>
<path d="M179.491 91.3489V109.077H201.55V126.146H179.491V150.32C179.422 152.076 179.707 153.829 180.327 155.473C180.947 157.119 181.891 158.623 183.104 159.899C184.316 161.176 185.773 162.197 187.387 162.905C189.002 163.613 190.742 163.992 192.506 164.019C195.979 164.15 199.418 163.298 202.424 161.56C205.431 159.823 207.881 157.272 209.491 154.203L214.271 169.514C211.007 173.31 206.924 176.323 202.328 178.327C197.732 180.331 192.74 181.276 187.726 181.088C184.079 181.235 180.44 180.654 177.022 179.378C173.604 178.101 170.477 176.157 167.826 173.658C165.173 171.16 163.051 168.158 161.582 164.829C160.112 161.5 159.326 157.913 159.271 154.276V126.146H147.432V109.077H159.271V91.3489H179.491Z" fill="white"/>
<path d="M128.75 109.08V149.81C128.661 151.747 128.96 153.682 129.627 155.502C130.293 157.323 131.317 158.994 132.637 160.418C133.957 161.842 135.547 162.991 137.316 163.799C139.085 164.606 140.997 165.056 142.941 165.121C147.317 165.025 151.479 163.221 154.532 160.097C157.585 156.973 159.285 152.779 159.265 148.418L164.191 167.612C161.093 172.225 156.796 175.916 151.76 178.289C146.722 180.663 141.134 181.631 135.588 181.091C131.993 181.152 128.423 180.486 125.093 179.134C121.763 177.782 118.743 175.773 116.214 173.226C113.685 170.68 111.701 167.648 110.379 164.316C109.059 160.985 108.429 157.421 108.529 153.839V126.148H95.5883V109.08H128.75Z" fill="white"/>
<path d="M312.562 74.7949V148.491C312.562 155.817 316.238 164.095 323.812 164.095C328.518 164.095 335.576 164.095 342.268 152.007L350.062 166.659C347.19 171.476 343.026 175.4 338.037 177.988C333.049 180.577 327.435 181.727 321.826 181.31C317.985 181.418 314.16 180.754 310.581 179.356C307.001 177.959 303.743 175.857 300.997 173.177C298.251 170.497 296.076 167.292 294.602 163.755C293.128 160.219 292.384 156.422 292.415 152.593V91.8637H280.503V74.7949H312.562Z" fill="white"/>
<path d="M229.49 158.087C229.49 163.361 234.343 166.658 240.52 166.658C246.287 166.819 251.913 164.864 256.329 161.163V150.175C252.38 149.2 248.336 148.66 244.27 148.563C236.917 148.563 229.564 151.054 229.564 158.233L229.49 158.087ZM283.314 165.998C286.181 165.998 292.431 165.998 292.431 151.347L300.299 170.247C297.459 173.536 293.921 176.155 289.941 177.916C285.961 179.678 281.638 180.535 277.284 180.43C273.787 180.673 270.281 180.082 267.059 178.706C263.837 177.33 260.99 175.209 258.755 172.518C251.654 178.401 242.616 181.455 233.387 181.089C219.931 181.089 208.314 172.884 208.829 159.698C209.49 141.897 225.667 136.329 239.711 136.329C245.328 136.354 250.925 136.993 256.402 138.234V135.743C256.402 128.418 250.814 123.949 239.858 123.949C231.287 124.109 222.827 125.899 214.931 129.224V111.715C223.734 108.785 232.931 107.204 242.211 107.027C263.24 107.027 276.696 115.671 276.696 138.674V157.574C276.696 164.387 280.593 165.852 283.314 165.852" fill="white"/>
<path d="M381.25 109.08H402.353L371.177 187.537C363.235 207.097 352.28 213.031 340.882 213.031C337.155 212.926 333.454 212.385 329.853 211.419V194.716C332.607 195.322 335.416 195.642 338.235 195.669C345.588 195.669 351.103 190.761 354.927 180.358L321.691 109.373H343.162L363.677 156.623L381.25 109.08Z" fill="white"/>
<path d="M130.739 87.9089C130.739 90.2992 130.027 92.6361 128.694 94.6243C127.361 96.6117 125.466 98.1611 123.249 99.0761C121.032 99.9911 118.593 100.231 116.24 99.764C113.886 99.2973 111.724 98.1465 110.027 96.4557C108.331 94.7657 107.175 92.6119 106.707 90.267C106.239 87.9221 106.479 85.4921 107.398 83.2834C108.316 81.0748 109.871 79.1869 111.866 77.8588C113.861 76.5307 116.207 75.8215 118.607 75.8215C121.824 75.8215 124.91 77.0947 127.185 79.362C129.46 81.6286 130.739 84.7032 130.739 87.9089Z" fill="white"/>
<path d="M118.981 227.095H133.246V208.634H122.952C122.954 214.998 121.601 221.29 118.981 227.095ZM108.025 240.428V227.095H112.069C115.807 219.637 117.435 211.304 116.775 202.994H139.716V227.095H144.054V240.428H137.804V232.736H114.275V240.648L108.025 240.428Z" fill="white"/>
<path d="M163.247 208.415C161.348 208.371 159.479 208.893 157.878 209.912C156.277 210.931 155.018 212.403 154.26 214.139C153.503 215.875 153.282 217.796 153.626 219.658C153.969 221.519 154.862 223.237 156.189 224.591C157.517 225.945 159.219 226.873 161.079 227.26C162.939 227.645 164.873 227.47 166.632 226.756C168.391 226.042 169.898 224.822 170.958 223.252C172.018 221.681 172.585 219.831 172.585 217.938C172.669 216.685 172.487 215.428 172.051 214.249C171.614 213.07 170.933 211.997 170.051 211.098C169.171 210.2 168.109 209.496 166.937 209.034C165.764 208.572 164.507 208.361 163.247 208.415ZM163.247 202.408C165.39 202.261 167.539 202.555 169.562 203.272C171.585 203.987 173.439 205.11 175.009 206.57C176.578 208.03 177.829 209.796 178.685 211.758C179.54 213.72 179.982 215.836 179.982 217.975C179.982 220.114 179.54 222.23 178.685 224.192C177.829 226.154 176.578 227.92 175.009 229.38C173.439 230.84 171.585 231.963 169.562 232.678C167.539 233.395 165.39 233.689 163.247 233.542C161.105 233.689 158.956 233.395 156.932 232.678C154.91 231.963 153.056 230.84 151.486 229.38C149.917 227.92 148.665 226.154 147.81 224.192C146.954 222.23 146.513 220.114 146.513 217.975C146.513 215.836 146.954 213.72 147.81 211.758C148.665 209.796 149.917 208.03 151.486 206.57C153.056 205.11 154.91 203.987 156.932 203.272C158.956 202.555 161.105 202.261 163.247 202.408Z" fill="white"/>
<path d="M185.145 232.734V203.212H191.762L201.836 218.742L211.983 203.212H218.601V232.734H212.277V212.735L203.821 225.628H199.851L191.468 212.735V232.734H185.145Z" fill="white"/>
<path d="M240.502 208.415C237.967 208.415 235.536 209.419 233.743 211.205C231.951 212.991 230.943 215.412 230.943 217.938C230.943 220.464 231.951 222.887 233.743 224.673C235.536 226.459 237.967 227.462 240.502 227.462C243.038 227.462 245.469 226.459 247.262 224.673C249.054 222.887 250.061 220.464 250.061 217.938C250.061 215.412 249.054 212.991 247.262 211.205C245.469 209.419 243.038 208.415 240.502 208.415ZM240.502 202.408C243.587 202.48 246.58 203.458 249.109 205.219C251.637 206.981 253.587 209.446 254.714 212.307C255.84 215.168 256.095 218.297 255.443 221.301C254.792 224.305 253.265 227.051 251.054 229.193C248.842 231.336 246.045 232.781 243.013 233.346C239.979 233.91 236.848 233.57 234.008 232.368C231.169 231.165 228.75 229.155 227.054 226.588C225.357 224.021 224.46 221.012 224.473 217.938C224.408 215.844 224.782 213.759 225.571 211.816C226.359 209.873 227.545 208.115 229.053 206.654C230.56 205.193 232.357 204.061 234.329 203.33C236.3 202.599 238.403 202.285 240.502 202.408Z" fill="white"/>
<path d="M276.395 199.112C273.204 199.25 270.056 198.35 267.424 196.548V191.2C270.098 192.919 273.212 193.834 276.395 193.834C279.577 193.834 282.692 192.919 285.365 191.2V196.548C282.734 198.35 279.585 199.25 276.395 199.112ZM262.351 232.736V203.434H268.968V222.7L284.777 203.434H290.439V232.736H283.895V213.397L268.012 232.736H262.351Z" fill="white"/>
</svg>
