<svg width="103" height="47" viewBox="0 0 103 47" fill="none" xmlns="http://www.w3.org/2000/svg">
<g clip-path="url(#clip0)">
<path fill-rule="evenodd" clip-rule="evenodd" d="M84.2638 0.0322876C84.353 0.198546 84.5121 0.115417 84.6331 0.121811L87.4915 0.185757C87.6733 0.187422 87.8538 0.217628 88.0263 0.275281C88.2126 0.315428 88.3769 0.424593 88.4867 0.581024C88.5964 0.737455 88.6434 0.929667 88.6184 1.11936C88.5802 2.50698 88.6502 3.901 88.6629 5.28861C88.7457 6.95055 88.7329 8.6159 88.6247 10.2764C88.5356 11.1013 88.7393 11.9326 88.6247 12.7639C88.5802 13.0964 88.9558 13.3522 89.4587 13.3713C90.1335 13.4097 90.8147 13.4289 91.4896 13.4481C92.0371 13.4481 92.3363 13.6335 92.3617 14.1643C92.4944 15.4514 92.4773 16.7498 92.3108 18.033C92.2344 18.4806 91.9989 18.5573 91.6742 18.5573C90.923 18.5573 90.1717 18.5573 89.4142 18.5573C88.8221 18.5573 88.6884 18.6916 88.6948 19.2991C88.733 22.1383 88.6948 24.9775 88.6502 27.823C88.6502 28.8398 88.7075 29.8565 88.6502 30.8732C88.6502 31.2185 88.5165 31.3464 88.16 31.3848C86.8277 31.4882 85.4901 31.5053 84.1556 31.436C83.6208 31.436 83.4235 31.1226 83.4553 30.464C83.5381 28.6927 83.5444 26.9278 83.5444 25.1501C83.5444 24.4531 83.6145 23.7369 83.5826 23.0655C83.5317 22.2342 83.6208 21.4093 83.5826 20.5844C83.5444 19.7595 83.6399 18.8323 83.5826 17.9498C83.5165 16.6718 83.5165 15.3912 83.5826 14.1131C83.6128 13.6009 83.5502 13.0874 83.398 12.5976C83.3535 12.4569 83.4553 12.2779 83.4553 12.1116C83.4553 11.1652 83.5444 10.2316 83.4935 9.27882C83.4553 8.58181 83.4935 7.85923 83.4935 7.14943C83.5401 6.19687 83.4975 5.24201 83.3662 4.29746C83.3457 4.23934 83.3409 4.17686 83.352 4.11625C83.3632 4.05565 83.3901 3.99906 83.4299 3.95215C83.4714 3.91815 83.5029 3.87333 83.5209 3.82259C83.5388 3.77185 83.5426 3.71713 83.5317 3.6644C83.2198 2.6029 83.7227 1.56698 83.6017 0.518274C83.6017 0.307254 83.7227 0.185757 83.8118 0.0322876H84.2638Z" fill="black"/>
<path fill-rule="evenodd" clip-rule="evenodd" d="M103 30.0097C102.803 30.3166 102.936 30.6492 102.917 30.9881C102.898 31.327 102.796 31.5316 102.376 31.6275C101.667 31.7614 100.936 31.7242 100.243 31.5188C99.7105 31.4548 99.1719 31.4548 98.6391 31.5188C97.9197 31.5188 97.8305 31.3973 97.8305 30.7003C97.8305 28.3087 97.8815 25.9108 97.8305 23.5192C97.7923 22.2403 97.8815 21.0062 97.7732 19.7528C97.7606 19.6295 97.7606 19.5052 97.7732 19.3819C97.8624 18.8192 97.665 18.557 97.0857 18.5443C96.2262 18.5443 95.3668 18.5443 94.501 18.5443C94.2272 18.5443 94.1063 18.4867 94.0999 18.2053C94.0299 17.6512 94.0299 17.0905 94.0999 16.5364C94.1762 15.8778 94.1762 15.2126 94.0999 14.5541C94.0999 14.4901 94.0999 14.4326 94.0999 14.3686C94.0171 13.403 94.2591 13.2048 95.2267 13.3711C95.9242 13.4894 96.6365 13.4894 97.334 13.3711C97.6905 13.3199 97.7542 13.0577 97.716 12.7955C97.6801 12.5844 97.6694 12.3698 97.6841 12.1561C97.9069 10.2953 97.6332 8.41528 97.8687 6.54806C97.9451 5.90861 97.6714 5.32031 97.7732 4.68085C97.9515 3.60017 97.735 2.50031 97.8496 1.40684C97.8782 1.25471 97.8782 1.09856 97.8496 0.946432C97.6841 0.409289 97.9961 0.185479 98.5627 0.185479C99.785 0.185479 101.007 0.0959555 102.23 0.185479C102.72 0.217452 102.815 0.415683 102.866 0.824935C102.911 1.34929 102.815 1.86085 102.866 2.37881C102.924 3.46589 102.917 4.55296 102.866 5.64004C102.866 6.47772 102.93 7.31541 102.866 8.15949C102.815 9.29772 102.949 10.436 102.866 11.5678C102.784 12.6996 103 13.8251 102.784 14.9441C103.14 15.5836 102.784 16.2934 102.885 16.984C102.903 17.477 102.886 17.9705 102.834 18.4611C102.834 20.1941 103.006 21.9206 102.904 23.6471C102.873 24.1906 102.968 24.7086 102.968 25.2394C103.013 26.3584 102.968 27.4775 102.968 28.5965C102.938 28.7468 102.953 28.9028 103.013 29.0441L103 30.0097Z" fill="black"/>
<path fill-rule="evenodd" clip-rule="evenodd" d="M0.916797 0C1.00593 0.172653 1.16508 0.0831293 1.28604 0.0895238L4.1445 0.159864C4.32624 0.155666 4.50729 0.18381 4.67927 0.242993C4.86554 0.283141 5.02991 0.392305 5.13964 0.548736C5.24936 0.705167 5.29638 0.89738 5.27133 1.08707C5.23313 2.47469 5.30316 3.86871 5.3159 5.25633C5.40134 6.91394 5.38859 8.5752 5.2777 10.2313C5.18857 11.0562 5.39229 11.8875 5.2777 12.7188C5.23313 13.0513 5.60874 13.3071 6.11168 13.3582C6.79287 13.3902 7.4677 13.4158 8.14252 13.4286C8.69002 13.4286 8.98924 13.6204 9.02107 14.1448C9.15057 15.4342 9.13348 16.7343 8.97014 18.0199C8.89374 18.4611 8.65819 18.5378 8.33351 18.5442H6.06712C5.47505 18.5442 5.34136 18.6785 5.35409 19.2796C5.38592 22.1188 5.35409 24.9644 5.30316 27.8035C5.30316 28.8203 5.36683 29.837 5.30316 30.8601C5.30316 31.199 5.16947 31.3269 4.81296 31.3653C3.48078 31.4719 2.14301 31.4889 0.80857 31.4165C0.280169 31.4165 0.0764483 31.1095 0.10828 30.4445C0.191041 28.6796 0.197408 26.9083 0.197408 25.137C0.197408 24.4336 0.273803 23.7174 0.235605 23.046C0.191041 22.2147 0.273803 21.3898 0.235605 20.5649C0.197408 19.74 0.254704 18.8128 0.197408 17.9048C0.131505 16.6267 0.131505 15.3461 0.197408 14.068C0.222238 13.5614 0.15537 13.0544 5.29513e-05 12.5717C-0.044511 12.4246 0.0637157 12.2456 0.0573495 12.0793C0.0573495 11.1329 0.146477 10.1993 0.0955471 9.25293C0.0955471 8.55592 0.0955471 7.82694 0.0955471 7.12354C0.152712 6.17197 0.12074 5.21712 5.29513e-05 4.27156C5.29513e-05 4.14367 -0.0381447 4.02857 0.0637157 3.92626C0.106399 3.89172 0.138575 3.84584 0.156582 3.79384C0.17459 3.74183 0.177706 3.6858 0.165576 3.63211C-0.133639 2.55782 0.369297 1.53469 0.248338 0.485986C0.222873 0.274966 0.369297 0.153469 0.458425 0H0.916797Z" fill="black"/>
<path fill-rule="evenodd" clip-rule="evenodd" d="M14.4899 27.1769C14.4899 26.109 14.5281 25.0411 14.4899 23.9796C14.4199 22.6496 14.4899 21.3131 14.4262 19.983C14.4071 19.7831 14.4071 19.5818 14.4262 19.3819C14.509 18.7425 14.3307 18.5123 13.6877 18.5059C12.8601 18.5059 12.0261 18.5059 11.1985 18.5059C10.8675 18.5059 10.7593 18.4036 10.7465 18.1094C10.683 17.5699 10.683 17.0247 10.7465 16.4852C10.8248 15.811 10.8141 15.1295 10.7147 14.4581C10.6192 13.3135 10.7783 13.1792 11.937 13.3647C12.5704 13.4555 13.2135 13.4555 13.8469 13.3647C14.2734 13.3071 14.3689 13.0641 14.2862 12.674C14.2575 12.4897 14.2575 12.302 14.2862 12.1177C14.509 10.2441 14.2416 8.34492 14.4708 6.47132C14.5408 5.83186 14.2734 5.26914 14.3817 4.64248C14.5599 3.57459 14.3244 2.4939 14.4517 1.4452C14.4837 1.29341 14.4837 1.13658 14.4517 0.984789C14.2862 0.415674 14.5281 0.159891 15.1774 0.153497C16.3998 0.153497 17.6221 0.0639731 18.8508 0.153497C19.3092 0.153497 19.4174 0.370912 19.4556 0.748191C19.5129 1.27894 19.411 1.80329 19.4556 2.34044C19.5193 3.44669 19.5065 4.54656 19.4556 5.65282C19.4556 6.4905 19.5193 7.32819 19.4556 8.17227C19.4174 9.29132 19.5447 10.4168 19.4556 11.5294C19.3665 12.6421 19.5893 13.7867 19.3665 14.9121C19.6911 15.4365 19.3092 16.0056 19.4556 16.5236C19.5079 17.0355 19.4865 17.5524 19.3919 18.0583C19.4301 20.0661 19.4874 22.0676 19.4938 24.0755C19.4938 25.7509 19.4429 27.4327 19.5956 29.1144C19.6177 29.823 19.5921 30.5323 19.5193 31.2374C19.5183 31.3155 19.4924 31.3912 19.4454 31.4533C19.3984 31.5155 19.3328 31.5608 19.2582 31.5827C18.6667 31.7701 18.0362 31.7966 17.4311 31.6595C16.7767 31.5049 16.1027 31.4509 15.4321 31.4996C15.248 31.5189 15.0624 31.5189 14.8782 31.4996C14.8112 31.4953 14.7458 31.4767 14.6863 31.4453C14.6269 31.4138 14.5747 31.3701 14.5333 31.3169C14.4918 31.2638 14.462 31.2025 14.4457 31.137C14.4295 31.0715 14.4272 31.0033 14.439 30.9369C14.439 29.6964 14.439 28.4622 14.439 27.2281L14.4899 27.1769Z" fill="black"/>
<path fill-rule="evenodd" clip-rule="evenodd" d="M40.1076 5.50619C39.154 5.53247 38.1996 5.50472 37.2491 5.42306H37.1791C36.1796 5.42306 36.1796 5.42306 36.186 4.40633C36.186 3.18497 36.186 1.96361 36.186 0.742248C36.186 0.454493 36.2815 0.377758 36.5679 0.288234C37.1948 0.146792 37.8423 0.122945 38.4778 0.217894C39.7039 0.282025 40.9327 0.271348 42.1575 0.185921C43.2907 0.134765 44.443 0.000479281 45.5762 0.077214C46.2711 0.128248 46.9681 0.141056 47.6644 0.115581C49.9753 0.000479281 52.2863 0.0900031 54.5909 0.0516357H55.1065C55.6922 0.0516357 55.6859 0.12837 55.7432 0.691092C55.9278 1.81014 55.4758 2.87164 55.5649 3.9715C55.5649 4.37436 55.5649 4.78361 55.6095 5.18647C55.654 5.58932 55.3612 5.50619 55.1702 5.4998C54.2789 5.4998 53.394 5.44225 52.5027 5.3847C51.5076 5.28878 50.5057 5.28878 49.5106 5.3847C49.2791 5.38802 49.0481 5.36224 48.823 5.30796C48.5111 5.2632 48.3328 5.36551 48.3456 5.70442C48.4601 7.78266 48.2819 9.86728 48.4856 11.9519C48.6066 13.2308 48.4347 14.5097 48.4474 15.7886C48.4288 16.4286 48.4458 17.069 48.4983 17.707C48.5454 18.1117 48.5326 18.5211 48.4601 18.922C48.3593 19.3984 48.3991 19.894 48.5747 20.348C48.6208 20.4305 48.64 20.5254 48.6297 20.6194C48.6194 20.7134 48.5802 20.8018 48.5174 20.8723C48.4729 20.9192 48.4436 20.9785 48.4334 21.0424C48.4231 21.1064 48.4325 21.1719 48.4601 21.2304C48.7021 21.5949 48.5047 21.953 48.4601 22.3111C48.4601 22.375 48.4029 22.4518 48.4283 22.4965C48.7785 23.2895 48.4729 24.1208 48.5365 24.9265C48.5811 25.5339 48.5747 26.1478 48.5938 26.7553C48.6148 27.2696 48.5978 27.7847 48.5429 28.2964C48.5047 28.6481 48.6448 29.0062 48.6384 29.3707C48.6384 29.9654 48.6384 30.5601 48.6384 31.1612C48.6384 31.532 48.4792 31.7367 48.11 31.6983C46.7604 31.5704 45.398 31.6983 44.0483 31.6599C43.9567 31.6481 43.8687 31.6163 43.7904 31.5669C43.7122 31.5175 43.6457 31.4515 43.5954 31.3736C43.5451 31.2957 43.5123 31.2078 43.4993 31.1159C43.4862 31.024 43.4933 30.9303 43.5199 30.8414C43.5657 30.4164 43.5657 29.9876 43.5199 29.5625C43.5199 29.3259 43.3862 29.051 43.6791 28.8783C43.6884 28.8536 43.6884 28.8263 43.6791 28.8016C43.2971 28.4818 43.5836 28.0982 43.5836 27.7465C43.5203 27.1562 43.5011 26.5619 43.5263 25.9688C43.6154 25.4125 43.4372 24.8881 43.5263 24.3382C43.5685 23.7295 43.5408 23.118 43.4435 22.5157C43.4149 22.1091 43.4149 21.701 43.4435 21.2944C43.5454 20.0004 43.5454 18.7004 43.4435 17.4065C43.4435 17.3233 43.4435 17.2466 43.4435 17.1699C43.4817 14.8359 43.3353 12.4954 43.4881 10.1359C43.5263 9.4964 43.3671 8.85694 43.3799 8.21749C43.3926 7.57803 43.3799 6.75313 43.3799 6.02415C43.3799 5.63408 43.208 5.51259 42.8897 5.51259C42.0175 5.51259 41.1453 5.51259 40.0057 5.51259" fill="black"/>
<path fill-rule="evenodd" clip-rule="evenodd" d="M26.63 29.7159C26.63 28.5074 26.5727 27.2988 26.5791 26.0838C26.5791 23.6667 26.6364 21.2431 26.5791 18.8196C26.5472 17.8604 26.6873 16.9012 26.6427 15.9357C26.5472 14.6805 26.5153 13.4213 26.5472 12.1629C26.5982 11.0566 26.6364 9.94395 26.6045 8.8377C26.5663 7.84654 26.6045 6.85538 26.5472 5.85783C26.4918 5.28197 26.4748 4.70304 26.4963 4.12491C26.5389 3.62947 26.5496 3.13179 26.5281 2.63497C26.5101 2.01423 26.5271 1.39297 26.5791 0.774158C26.6393 0.541468 26.7833 0.33947 26.9832 0.207194C27.1831 0.0749178 27.4247 0.0217514 27.6613 0.0579675C28.1452 0.128308 28.6481 0.000416476 29.1001 0.0899403C29.7337 0.166645 30.372 0.196566 31.01 0.179464C31.1736 0.228475 31.3222 0.317988 31.4424 0.439778C31.5625 0.561569 31.6503 0.711731 31.6976 0.876471C31.6976 2.10423 31.6976 3.32559 31.6976 4.55334C31.6976 5.60844 31.7357 6.66994 31.7357 7.75062C31.7357 8.92722 31.7357 10.1102 31.6785 11.2868C31.6728 11.6292 31.6962 11.9715 31.7485 12.3099C31.7824 13.0818 31.7654 13.8551 31.6976 14.6248C31.7358 18.6278 31.6976 22.6244 31.7612 26.621C31.7612 28.0406 31.8121 29.4537 31.7994 30.8733C31.7994 31.5128 31.5893 31.6918 30.9463 31.7046C29.7622 31.7046 28.5781 31.6023 27.3939 31.7046C26.6809 31.7494 26.5727 31.6407 26.5345 30.9309C26.5345 30.7327 26.5345 30.528 26.5345 30.3234C26.5345 30.1188 26.5345 29.9461 26.5345 29.7607H26.6364" fill="black"/>
<path fill-rule="evenodd" clip-rule="evenodd" d="M63.9684 12.7379C64.0194 12.885 64.3377 12.885 64.1149 13.1216C64.0321 13.2111 64.1149 13.3007 64.1785 13.3518C64.2422 13.403 64.4777 13.2943 64.4077 13.5117C64.3377 13.7291 64.1849 13.5117 64.0894 13.5948C64.1456 13.6633 64.1843 13.7445 64.2021 13.8315C64.2198 13.9184 64.2161 14.0084 64.1912 14.0936C64.1403 14.279 64.0003 14.5412 64.2995 14.6947C64.3695 14.7394 64.344 14.8801 64.2995 14.8865C63.9748 14.8865 64.3631 15.3981 63.9875 15.3725C63.9875 15.6347 64.2231 15.4109 64.2931 15.5643C63.9239 15.5643 64.0257 16.0119 64.0512 16.0567C64.1531 16.4205 64.1961 16.7983 64.1785 17.1758C64.1696 17.2702 64.1855 17.3654 64.2246 17.4518C64.2637 17.5381 64.3246 17.6127 64.4013 17.6681C64.338 17.7738 64.256 17.8669 64.1594 17.9431C64.013 18.0262 64.0003 18.0262 64.1594 18.1605C64.4714 18.4419 64.1594 18.5762 63.9557 18.6337C63.6374 18.736 63.7774 18.9023 63.8984 18.9854C64.1785 19.19 64.2549 19.3051 64.0894 19.6249C64.0316 19.712 64.0008 19.8143 64.0008 19.919C64.0008 20.0237 64.0316 20.126 64.0894 20.2132C64.1467 20.3219 64.1658 20.5521 64.0894 20.6032C63.7902 20.7439 63.9939 20.859 64.0894 20.9933C64.1849 21.1276 64.3695 21.3386 64.0385 21.4793C63.9684 21.4793 63.9557 21.5752 64.0385 21.6519C64.1153 21.7374 64.1648 21.8439 64.1807 21.9579C64.1966 22.0719 64.1781 22.1881 64.1276 22.2914C63.9366 22.6175 64.395 22.739 64.2676 23.0012C64.4777 22.8541 64.4395 23.0012 64.535 23.1419C64.7196 23.3785 64.3759 23.3913 64.4204 23.5511C64.4204 23.6151 64.5032 23.6918 64.5223 23.6534C64.7451 23.225 64.8279 23.9028 65.0061 23.7046C65.0061 23.743 65.0571 23.7813 65.0571 23.8133C65.0316 23.9728 65.0456 24.1361 65.0977 24.2889C65.1499 24.4416 65.2387 24.5792 65.3563 24.6894C65.4709 24.7597 65.5091 24.5487 65.6682 24.6062C65.5664 24.8109 65.5727 24.9451 65.8274 25.0794C66.2189 25.263 66.568 25.5265 66.8524 25.8532C67.0115 26.0514 67.2662 25.6869 67.1961 25.9491C67.0815 26.3903 67.3998 26.4862 67.6354 26.6589C67.4062 26.9275 67.9537 27.2983 67.4826 27.5605C67.368 27.6245 67.4826 27.9378 67.5908 27.9698C67.8073 28.0593 67.6736 28.1744 67.6545 28.2639C67.5463 28.8085 67.5463 29.3692 67.6545 29.9137C67.6552 30.3757 67.5953 30.8359 67.4762 31.2822C67.4762 31.4804 67.2089 31.4804 67.0561 31.4548C66.3683 31.4087 65.694 31.242 65.0634 30.9624C64.4268 30.5979 63.7392 30.259 63.1026 29.8498C61.1723 28.5076 59.7835 26.5162 59.1874 24.2353C58.9606 23.0538 58.8223 21.8568 58.7735 20.6544C58.7035 19.708 59.0728 18.7744 58.7735 17.828C58.7466 17.5542 58.7638 17.2778 58.8245 17.0095C58.835 16.7428 58.744 16.4821 58.5698 16.2805C58.4616 16.1143 58.6208 15.769 58.659 15.5068C58.687 15.3718 58.7061 15.2351 58.7163 15.0975C58.7163 13.8186 58.8245 12.5397 58.8436 11.2608C58.8436 10.6213 58.8436 9.94991 58.9072 9.31045C58.9072 8.93957 58.7099 8.60065 58.8499 8.24895C58.9566 7.7505 59.1346 7.27019 59.3783 6.82297C59.5054 6.634 59.5741 6.41154 59.5757 6.18351C59.5681 6.01438 59.6012 5.8459 59.6721 5.69231C59.7431 5.53872 59.8497 5.40453 59.9831 5.30106C60.4733 4.98773 60.3715 4.3163 60.8999 4.05412C61.0781 3.9646 61.0845 3.62569 61.3264 3.41467C61.6893 3.12691 61.9121 2.6665 62.4342 2.5578C62.5678 2.5578 62.6124 2.32759 62.7206 2.22528C63.1681 1.76703 63.7058 1.40766 64.2995 1.17018C64.6624 1.04229 64.9361 0.633035 65.4008 0.741742C65.4645 0.319701 66.0375 0.741742 66.1011 0.332491C66.1011 0.332491 66.2157 0.332491 66.273 0.300518L67.3235 0.236572C67.6481 0.236572 67.9028 0.236572 67.9282 0.677797C67.9633 0.985866 67.9633 1.29694 67.9282 1.60501C67.8391 2.04815 67.8391 2.50473 67.9282 2.94787C68.0359 3.34296 67.9951 3.76401 67.8137 4.13086C67.7755 4.22038 67.8137 4.27154 67.8964 4.28433C67.9792 4.29712 68.0492 4.32909 68.0365 4.33548C67.6099 4.59766 67.9283 5.04528 67.7882 5.3778C67.7245 5.51848 67.559 5.67195 67.5081 5.64637C67.0497 5.36501 66.8396 6.20269 66.394 5.88297C66.2539 6.15154 65.8847 6.15154 65.7574 6.38814C65.3372 7.09793 64.7578 7.66705 64.3822 8.41521C64.2955 8.57989 64.2664 8.76905 64.2995 8.95235C64.3404 9.39235 64.2589 9.83511 64.0639 10.2313C64.0257 10.3144 64.0639 10.3464 64.0639 10.3911C64.2613 10.6981 63.9621 11.0753 64.1149 11.2992C64.2676 11.523 63.9875 11.8747 64.1722 12.1624C64.3568 12.4502 64.3122 12.674 63.9302 12.7315" fill="black"/>
<path fill-rule="evenodd" clip-rule="evenodd" d="M72.2126 0.575504C72.34 0.690606 72.098 0.876049 72.3018 0.9336C72.5055 0.991151 72.5437 0.735368 72.671 0.697001C72.9384 0.786525 72.671 1.1638 72.9766 1.20217C73.1485 1.20217 73.1294 0.971967 73.2312 0.869654C73.3904 0.946389 73.3522 1.09346 73.3904 1.22775C73.4286 1.36204 73.5241 1.5219 73.7023 1.31088C73.7596 1.24693 73.8169 1.25333 73.8233 1.31088C73.8551 1.71374 74.3899 1.69455 74.4599 2.07183C74.456 2.08213 74.456 2.09351 74.4599 2.1038C75.0456 1.77129 75.0584 2.48108 75.3576 2.65374C75.7116 2.9152 75.9745 3.28219 76.1088 3.70244C76.1534 3.81755 76.338 3.83673 76.4462 3.97741C77.3627 5.27509 77.9961 6.75246 78.3052 8.31292C78.4394 8.99238 78.5267 9.68038 78.5662 10.372C78.5662 10.551 78.6171 10.762 78.3115 10.7109C78.2033 10.7109 78.1969 10.7812 78.1778 10.858C78.1587 10.9347 78.025 11.0946 77.9041 11.069C77.4075 10.9347 76.8982 11.1201 76.4144 11.005C75.847 10.8872 75.2646 10.8613 74.6891 10.9283C74.2809 10.9488 73.8746 10.8606 73.5114 10.6725C73.4203 10.5945 73.3491 10.4958 73.3037 10.3846C73.2583 10.2733 73.24 10.1528 73.2503 10.0331C73.2503 9.3936 73.4604 8.66462 72.8047 8.17224C72.741 8.12108 72.671 8.06353 72.7092 7.94204C72.744 7.85768 72.7604 7.76683 72.7573 7.67557C72.7542 7.58432 72.7317 7.49479 72.6913 7.41301C72.6509 7.33122 72.5935 7.25907 72.523 7.20142C72.4525 7.14377 72.3706 7.10195 72.2827 7.07877C72.1744 7.0404 72.0407 7.0468 72.0344 6.9253C71.9834 6.43292 71.576 6.36897 71.2259 6.23469C70.9967 6.15156 70.8184 5.96612 70.5892 5.8638C70.2535 5.72581 69.9089 5.61045 69.5579 5.5185C69.5129 5.51242 69.4696 5.49711 69.4308 5.47352C69.392 5.44994 69.3584 5.41858 69.3321 5.3814C69.3058 5.34421 69.2874 5.302 69.2781 5.25738C69.2688 5.21277 69.2686 5.1667 69.2778 5.12204C69.3587 4.69558 69.3302 4.25547 69.195 3.84312C69.125 3.61931 69.3733 3.48503 69.3987 3.20367C69.4624 2.49387 69.3987 1.79047 69.4688 1.08707C69.5152 0.83356 69.579 0.583577 69.6598 0.338906C69.6598 0.236593 69.7361 0.262171 69.7807 0.27496C70.0354 0.332511 70.3218 0.517953 70.4619 0.102307C70.4619 0.0575452 70.6147 0.102307 70.6593 0.153464C70.7802 0.3453 70.8566 0.677817 71.1176 0.255777C71.1176 0.20462 71.2131 0.255777 71.2195 0.479586C71.2259 0.703396 71.2195 0.831287 71.4359 0.601083C71.472 0.564955 71.5185 0.541179 71.5688 0.533141C71.6191 0.525104 71.6706 0.533216 71.7161 0.556321C71.9071 0.799314 72.0853 0.633055 72.2572 0.556321" fill="black"/>
<path fill-rule="evenodd" clip-rule="evenodd" d="M78.2101 22.2722C78.2118 23.2082 78.048 24.1371 77.7262 25.0155C77.5862 25.3097 77.5162 25.655 77.3952 25.9491C77.0022 26.7779 76.4942 27.5465 75.8864 28.232C75.0353 29.2888 73.9435 30.1244 72.7032 30.6683C71.7524 31.0856 70.7431 31.353 69.7111 31.4612C69.0745 31.538 68.9153 31.3717 68.9535 30.7003C69.0044 29.8498 68.9535 28.9929 68.9535 28.1424C68.9917 27.5669 68.7562 26.9275 69.1636 26.3775C69.3706 26.1695 69.6382 26.0329 69.9275 25.9875C70.704 25.8158 71.4078 25.4049 71.9407 24.8123C72.4737 24.2197 72.8092 23.4748 72.9006 22.6815C72.9593 22.3062 73.0553 21.9377 73.1871 21.5816C73.238 21.4154 73.3653 21.345 73.5754 21.345C74.9314 21.345 76.2811 21.4154 77.6307 21.4537C78.0764 21.4537 78.2674 21.5816 78.1719 22.0356C78.1654 22.1122 78.1654 22.1892 78.1719 22.2658" fill="black"/>
<path d="M10.6574 46.8913V41.6477L8.66474 46.8913H7.92626L5.91451 41.6477V46.8913H5.09326V40.7525H6.36652L8.2764 45.8106L10.1863 40.7525H11.4595V46.8913H10.6574Z" fill="black"/>
<path d="M13.019 46.8913L14.4387 44.2631C14.0701 44.1549 13.7466 43.9292 13.5169 43.62C13.2872 43.3109 13.1639 42.9351 13.1655 42.5494C13.1655 41.4687 13.9485 40.7525 15.209 40.7525H17.8829V46.8913H17.0425V44.423H15.2791L14.0058 46.8913H13.019ZM14.0695 42.6197C14.0686 42.7677 14.0989 42.9142 14.1584 43.0495C14.2178 43.1849 14.3052 43.3061 14.4146 43.4051C14.524 43.5042 14.6531 43.5788 14.7933 43.6242C14.9335 43.6696 15.0817 43.6847 15.2281 43.6684H17.0425V41.5646H15.2791C15.1286 41.5425 14.9751 41.5533 14.8291 41.5963C14.6832 41.6392 14.5482 41.7133 14.4333 41.8135C14.3185 41.9137 14.2265 42.0375 14.1637 42.1767C14.101 42.3158 14.0688 42.4669 14.0695 42.6197Z" fill="black"/>
<path d="M23.7974 42.3512C23.6198 42.06 23.368 41.8218 23.0681 41.661C22.7681 41.5003 22.4309 41.4229 22.0912 41.4368C20.818 41.4368 20.0095 42.3895 20.0095 43.8155C20.0095 45.2415 20.8371 46.2199 22.0721 46.2199C22.4172 46.2247 22.7577 46.1395 23.0601 45.9725C23.3625 45.8054 23.6166 45.5624 23.7974 45.2671L24.5041 45.7275C24.2426 46.1314 23.8823 46.4612 23.4575 46.6851C23.0328 46.909 22.558 47.0197 22.0785 47.0064C20.2959 47.0064 19.1118 45.67 19.1118 43.8091C19.1118 41.9483 20.2959 40.6118 22.0721 40.6118C22.5435 40.5963 23.0111 40.7015 23.431 40.9174C23.8508 41.1332 24.2091 41.4528 24.4722 41.846L23.7974 42.3512Z" fill="black"/>
<path d="M29.8135 46.8913V44.0329H26.503V46.8913H25.6436V40.7525H26.503V43.2528H29.8135V40.7525H30.6729V46.8913H29.8135Z" fill="black"/>
<path d="M34.9125 47C33.0854 47 31.9331 45.6316 31.9331 43.8027C31.9331 41.9739 33.0854 40.6054 34.9125 40.6054C35.3234 40.5988 35.7312 40.6785 36.1097 40.8395C36.4881 41.0004 36.8288 41.2391 37.11 41.5402C37.3912 41.8413 37.6066 42.1981 37.7423 42.5877C37.8781 42.9774 37.9312 43.3912 37.8983 43.8027C37.8983 45.6316 36.7333 47 34.9125 47ZM34.9125 41.4559C33.6074 41.4559 32.8308 42.4343 32.8308 43.8219C32.8308 45.2095 33.6074 46.2007 34.9125 46.2007C36.2176 46.2007 36.9943 45.2159 36.9943 43.8219C36.9943 42.4279 36.2049 41.4559 34.9125 41.4559Z" fill="black"/>
<path d="M53.0949 44.5637H51.3887V46.8913H50.5293V40.7525H53.0758C54.4637 40.7525 55.234 41.5199 55.234 42.6709C55.234 43.8219 54.4828 44.5637 53.0949 44.5637ZM53.0949 43.7707C53.948 43.7707 54.3682 43.3359 54.3682 42.6645C54.3682 41.993 53.948 41.5646 53.0949 41.5646H51.3887V43.7835L53.0949 43.7707Z" fill="black"/>
<path d="M56.4814 46.8913V40.7525H60.8105V41.5646H57.3473V43.2911H60.3649V44.0393H57.3473V46.1111H60.906V46.9041L56.4814 46.8913Z" fill="black"/>
<path d="M66.5469 42.3512C66.3693 42.06 66.1175 41.8218 65.8176 41.661C65.5176 41.5003 65.1804 41.4228 64.8407 41.4367C63.5675 41.4367 62.759 42.3895 62.759 43.8155C62.759 45.2415 63.5866 46.2199 64.8216 46.2199C65.1669 46.2253 65.5075 46.1404 65.8101 45.9733C66.1126 45.8062 66.3666 45.5628 66.5469 45.2671L67.2536 45.7275C66.9931 46.1309 66.6339 46.4604 66.2103 46.6843C65.7867 46.9083 65.3129 47.0192 64.8344 47.0064C63.0455 47.0064 61.8613 45.6699 61.8613 43.8091C61.8613 41.9483 63.0455 40.6118 64.8216 40.6118C65.2939 40.5964 65.7624 40.7016 66.1832 40.9174C66.6041 41.1332 66.9636 41.4527 67.2281 41.846L66.5469 42.3512Z" fill="black"/>
<path d="M70.7425 41.5646V46.9041H69.8767V41.5646H67.8076V40.7525H72.8179V41.5646H70.7425Z" fill="black"/>
<path d="M76.287 47C74.4599 47 73.3076 45.6316 73.3076 43.8027C73.3076 41.9739 74.4599 40.6055 76.287 40.6055C78.1142 40.6055 79.2728 41.9803 79.2728 43.8027C79.2728 45.6252 78.1142 47 76.287 47ZM76.287 41.4559C75.0138 41.4559 74.2053 42.4343 74.2053 43.8219C74.2053 45.2096 74.9883 46.2007 76.287 46.2007C77.5858 46.2007 78.3688 45.2159 78.3688 43.8219C78.3688 42.4279 77.5794 41.4559 76.287 41.4559Z" fill="black"/>
<path d="M83.0993 44.5637H81.3931V46.8913H80.5337V40.7525H83.0802C84.4681 40.7525 85.2384 41.5199 85.2384 42.6709C85.2384 43.8219 84.4872 44.5637 83.0993 44.5637ZM83.0993 43.7707C83.9524 43.7707 84.3726 43.3359 84.3726 42.6645C84.3726 41.993 83.9587 41.5518 83.0993 41.5518H81.3931V43.7707H83.0993Z" fill="black"/>
<path d="M90.3186 46.8913L89.682 45.1839H86.9317L86.2951 46.8913H85.3975L87.8867 40.7525H88.8289L91.3244 46.8913H90.3186ZM88.3132 41.5966L87.2182 44.4294H89.3955L88.3132 41.5966Z" fill="black"/>
<path d="M96.5069 46.8913V44.0329H93.1964V46.8913H92.3115V40.7525H93.171V43.2528H96.4814V40.7525H97.4045V46.8913H96.5069Z" fill="black"/>
<path d="M44.1949 40.7589V46.8913H43.3673V41.9547L40.2605 46.8913H39.1592V40.7589H39.9804V45.8106L43.1636 40.7589H44.1949Z" fill="black"/>
<path d="M42.4759 38.8214V38.9045C42.4464 39.0749 42.3555 39.2285 42.2204 39.3359C42.0854 39.4432 41.9157 39.4968 41.7438 39.4864C41.5725 39.494 41.4042 39.4394 41.2697 39.3325C41.1352 39.2257 41.0436 39.0737 41.0116 38.9045V38.8214L40.375 38.9556V39.0452C40.4256 39.381 40.5944 39.6875 40.8508 39.909C41.1072 40.1305 41.4342 40.2523 41.7724 40.2523C42.1106 40.2523 42.4376 40.1305 42.694 39.909C42.9504 39.6875 43.1192 39.381 43.1698 39.0452V38.9556L42.4759 38.8214Z" fill="black"/>
</g>
<defs>
<clipPath id="clip0">
<rect width="103" height="47" fill="white"/>
</clipPath>
</defs>
</svg>
