<svg width="739" height="223" viewBox="0 0 739 223" fill="none" xmlns="http://www.w3.org/2000/svg">
<path fill-rule="evenodd" clip-rule="evenodd" d="M6 0.5C6 0.775 5.55 1 5 1C4.45 1 4 1.225 4 1.5C4 1.775 3.64649 2 3.21449 2C2.20399 2 1 3.204 1 4.2145C1 4.6465 0.775 5 0.5 5C0.2055 5 0 6.762 0 9.2855C0 14.517 0.355993 15 4.21449 15C5.74649 15 7 15.225 7 15.5C7 15.8095 9.6665 16 14 16C18.3335 16 21 15.8095 21 15.5C21 15.225 21.675 15 22.5 15H24V48.5V82H15C9.3335 82 6 82.185 6 82.5C6 82.775 5.65501 83 5.23351 83C4.23801 83 1 86.238 1 87.2335C1 87.655 0.775 88 0.5 88C0.225 88 0 89.125 0 90.5C0 91.875 0.225 93 0.5 93C0.775 93 1 93.45 1 94C1 94.55 1.225 95 1.5 95C1.775 95 2 95.45 2 96C2 96.6665 2.3335 97 3 97C3.55 97 4 97.225 4 97.5C4 97.7855 5.5 98 7.5 98C9.5 98 11 97.7855 11 97.5C11 97.2145 12.5 97 14.5 97C16.5 97 18 96.7855 18 96.5C18 96.18 22.5 96 30.5 96C38.5 96 43 96.18 43 96.5C43 96.8125 46 97 51 97C56 97 59 96.8125 59 96.5C59 96.225 59.45 96 60 96C60.6255 96 61 95.6665 61 95.1105C61 94.621 61.45 93.8965 62 93.5C62.8015 92.9225 63 92.2055 63 89.8895C63 88.2965 62.7755 87 62.5 87C62.225 87 62 86.6525 62 86.2275C62 85.8025 61.4475 84.9025 60.7725 84.2275C59.661 83.1155 59.1425 83 55.2725 83C52.7575 83 51 82.7945 51 82.5C51 82.1905 48.3335 82 44 82H37V48.5V15H42.5C45.8335 15 48 15.197 48 15.5C48 15.803 50.1665 16 53.5 16C56.8335 16 59 15.803 59 15.5C59 15.225 59.3535 15 59.7855 15C60.966 15 62 13.7325 62 12.2855C62 11.5785 62.225 11 62.5 11C62.775 11 63 10.325 63 9.5C63 8.675 62.775 8 62.5 8C62.225 8 62 7.6525 62 7.2275C62 6.2825 59.7955 4 58.883 4C58.519 4 57.8965 3.55 57.5 3C57.1035 2.45 56.379 2 55.8895 2C55.4005 2 55 1.775 55 1.5C55 1.177 49.3335 1 39 1C28.6665 1 23 0.823 23 0.5C23 0.1865 19.8335 0 14.5 0C9.1665 0 6 0.1865 6 0.5ZM114.625 4.748C114.282 5.1385 114 6.48 114 7.729C114 8.978 113.775 10 113.5 10C113.183 10 113 13.8335 113 20.5V31H111C109.9 31 109 30.775 109 30.5C109 30.1865 105.833 30 100.5 30C95.1665 30 92 30.1865 92 30.5C92 30.775 91.6465 31 91.2145 31C90.782 31 90.107 31.3215 89.7145 31.7145C88.9025 32.526 88.741 35 89.5 35C89.775 35 90 35.5725 90 36.2725C90 37.676 92.0125 40 93.2275 40C93.6525 40 94 40.225 94 40.5C94 40.8145 97.262 41 102.786 41C109.734 41 111.721 41.1495 112.285 41.7145C112.877 42.306 113 45.4 113 59.7145C113 70.905 113.176 77 113.5 77C113.775 77 114 77.9 114 79C114 80.1 114.225 81 114.5 81C114.775 81 115 81.675 115 82.5C115 83.325 115.225 84 115.5 84C115.775 84 116 84.45 116 85C116 85.55 116.225 86 116.5 86C116.775 86 117 86.4005 117 86.8895C117 87.379 117.45 88.1035 118 88.5C118.55 88.8965 119 89.519 119 89.883C119 90.7955 121.283 93 122.228 93C122.653 93 123 93.225 123 93.5C123 93.775 123.45 94 124 94C124.55 94 125 94.225 125 94.5C125 94.775 125.4 95 125.889 95C126.379 95 127.104 95.45 127.5 96C127.924 96.587 128.795 97 129.611 97C130.375 97 131 97.225 131 97.5C131 97.7965 132.833 98 135.5 98C138.167 98 140 97.7965 140 97.5C140 97.225 140.9 97 142 97C143.1 97 144 96.775 144 96.5C144 96.225 144.675 96 145.5 96C146.325 96 147 95.775 147 95.5C147 95.225 147.675 95 148.5 95C149.325 95 150 94.775 150 94.5C150 94.225 150.341 94 150.759 94C151.748 94 158 87.748 158 86.7595C158 86.3415 158.225 86 158.5 86C158.775 86 159 85.55 159 85C159 84.45 159.225 84 159.5 84C159.775 84 160 83.55 160 83C160 82.45 160.225 82 160.5 82C160.815 82 161 78.738 161 73.2145C161 64.0855 160.764 63 158.785 63C158.353 63 158 62.775 158 62.5C158 62.225 156.978 62 155.728 62C153.072 62 151 63.633 151 65.7275C151 66.4275 150.775 67 150.5 67C150.215 67 150 68.5 150 70.5C150 72.5 149.785 74 149.5 74C149.225 74 149 74.675 149 75.5C149 76.325 148.775 77 148.5 77C148.225 77 148 77.45 148 78C148 78.55 147.775 79 147.5 79C147.225 79 147 79.3535 147 79.7855C147 80.708 145.825 82 144.987 82C144.665 82 143.771 82.675 143 83.5C142.229 84.325 141.239 85 140.799 85C140.359 85 140 85.225 140 85.5C140 85.7915 138.333 86 136 86C133.667 86 132 85.7915 132 85.5C132 85.225 131.55 85 131 85C130.45 85 130 84.775 130 84.5C130 84.225 129.647 84 129.215 84C128.251 84 127 82.8115 127 81.896C127 81.5245 126.55 80.8965 126 80.5C125.303 79.998 125 79.2055 125 77.8895C125 76.8505 124.775 76 124.5 76C124.176 76 124 69.905 124 58.7145C124 44.4 124.123 41.306 124.715 40.7145C125.291 40.1375 127.6 40 136.715 40C143.905 40 148 39.8185 148 39.5C148 39.225 148.45 39 149 39C149.899 39 150 38.6665 150 35.7145C150 32.336 149.372 31 147.785 31C147.353 31 147 30.775 147 30.5C147 30.2035 145.167 30 142.5 30C139.833 30 138 30.2035 138 30.5C138 30.8095 135.333 31 131 31H124V24.5C124 20.5 124.192 18 124.5 18C124.803 18 125 15.8335 125 12.5C125 9.1665 124.803 7 124.5 7C124.225 7 124 6.55 124 6C124 5.3335 123.666 5 123 5C122.45 5 122 4.775 122 4.5C122 3.6915 115.359 3.915 114.625 4.748ZM295 4.5C295 4.775 294.205 5 293.233 5C291.884 5 291.057 5.4095 289.733 6.7335C288.78 7.6865 288 8.8115 288 9.2335C288 9.655 287.775 10 287.5 10C287.225 10 287 10.675 287 11.5C287 12.325 287.225 13 287.5 13C287.775 13 288 13.3535 288 13.7855C288 14.966 289.268 16 290.715 16C291.422 16 292 16.225 292 16.5C292 16.8145 295.262 17 300.785 17C307.733 17 309.721 17.1495 310.285 17.7145C310.89 18.3185 311 23.4 311 50.7145V83H300.5C293.833 83 290 83.1825 290 83.5C290 83.775 289.653 84 289.228 84C288.013 84 286 86.324 286 87.7275C286 88.4275 285.775 89 285.5 89C285.225 89 285 89.45 285 90C285 90.55 285.225 91 285.5 91C285.775 91 286 91.45 286 92C286 92.55 286.225 93 286.5 93C286.775 93 287 93.3535 287 93.7855C287 94.796 288.204 96 289.215 96C289.647 96 290 96.225 290 96.5C290 96.828 300.424 97 320.272 97H350.546L351.772 95.7725C352.447 95.0975 353 94.1975 353 93.7725C353 93.3475 353.225 93 353.5 93C353.778 93 354 91.6665 354 90C354 88.3335 353.778 87 353.5 87C353.225 87 353 86.55 353 86C353 85.45 352.775 85 352.5 85C352.225 85 352 84.55 352 84C352 83.0235 351.667 83 337.715 83C326 83 323.3 82.8715 322.715 82.2855C322.109 81.68 322 76.1335 322 45.7855C322 22.262 321.829 10 321.5 10C321.225 10 321 9.6525 321 9.2275C321 8.227 318.773 6 317.772 6C317.347 6 317 5.775 317 5.5C317 5.1925 314.5 5 310.5 5C306.5 5 304 4.8075 304 4.5C304 4.2035 302.167 4 299.5 4C296.833 4 295 4.2035 295 4.5ZM408 4.5C408 4.775 407.43 5 406.734 5C405.045 5 402 8.0445 402 9.7335C402 10.43 401.775 11 401.5 11C401.225 11 401 11.9 401 13C401 14.1 401.225 15 401.5 15C401.775 15 402 15.57 402 16.2665C402 17.9555 405.045 21 406.734 21C407.43 21 408 21.225 408 21.5C408 21.775 408.9 22 410 22C411.1 22 412 21.775 412 21.5C412 21.225 412.45 21 413 21C413.55 21 414 20.775 414 20.5C414 20.225 414.45 20 415 20C415.626 20 416 19.6665 416 19.1105C416 18.621 416.45 17.8965 417 17.5C417.587 17.0765 418 16.2055 418 15.3895C418 14.6255 418.225 14 418.5 14C418.775 14 419 13.55 419 13C419 12.45 418.775 12 418.5 12C418.225 12 418 11.325 418 10.5C418 9.675 417.775 9 417.5 9C417.225 9 417 8.6465 417 8.2145C417 7.204 415.796 6 414.786 6C414.354 6 414 5.775 414 5.5C414 5.225 413.55 5 413 5C412.45 5 412 4.775 412 4.5C412 4.225 411.1 4 410 4C408.9 4 408 4.225 408 4.5ZM696 4.5C696 4.775 695.656 5 695.237 5C694.817 5 693.467 6.0065 692.237 7.237C690.01 9.463 690 9.4905 690 13C690 16.5095 690.01 16.537 692.237 18.763C693.467 19.9935 694.817 21 695.237 21C695.656 21 696 21.225 696 21.5C696 21.775 696.9 22 698 22C699.1 22 700 21.775 700 21.5C700 21.225 700.57 21 701.266 21C702.675 21 706 18.0265 706 16.7665C706 16.345 706.225 16 706.5 16C706.778 16 707 14.6665 707 13C707 11.3335 706.778 10 706.5 10C706.225 10 706 9.655 706 9.2335C706 7.9735 702.675 5 701.266 5C700.57 5 700 4.775 700 4.5C700 4.225 699.1 4 698 4C696.9 4 696 4.225 696 4.5ZM204 30.5C204 30.775 203.325 31 202.5 31C201.675 31 201 31.225 201 31.5C201 31.775 200.6 32 200.111 32C199.621 32 198.896 32.45 198.5 33C198.104 33.55 197.484 34 197.123 34C196.27 34 193 37.27 193 38.123C193 38.484 192.55 39.1035 192 39.5C191.413 39.9235 191 40.7945 191 41.6105C191 42.3745 190.775 43 190.5 43C190.206 43 190 44.7555 190 47.2665C190 51.4685 190.026 51.5595 191.733 53.2665C192.686 54.22 193.811 55 194.233 55C194.655 55 195 55.225 195 55.5C195 55.775 195.881 56 196.958 56C198.036 56 199.048 56.281 199.208 56.625C199.441 57.125 199.559 57.125 199.792 56.625C199.952 56.2815 200.74 56 201.542 56C202.344 56 203 55.775 203 55.5C203 55.225 203.347 55 203.772 55C204.773 55 207 52.773 207 51.7725C207 51.3475 207.225 51 207.5 51C207.775 51 208 50.325 208 49.5C208 48.675 208.225 48 208.5 48C208.775 48 209 47.325 209 46.5C209 45.675 209.225 45 209.5 45C209.775 45 210 44.6525 210 44.2275C210 43.227 212.227 41 213.228 41C213.653 41 214 40.775 214 40.5C214 40.225 214.9 40 216 40C217.1 40 218 39.775 218 39.5C218 39.222 219.334 39 221 39C222.666 39 224 39.222 224 39.5C224 39.775 224.675 40 225.5 40C226.325 40 227 40.225 227 40.5C227 40.775 227.344 41 227.763 41C229.053 41 233 45.3245 233 46.737C233 47.4315 233.225 48 233.5 48C233.792 48 234 49.6665 234 52V56H232.5C231.675 56 231 56.225 231 56.5C231 56.775 229.875 57 228.5 57C227.125 57 226 57.225 226 57.5C226 57.775 224.875 58 223.5 58C222.125 58 221 58.225 221 58.5C221 58.775 219.875 59 218.5 59C217.125 59 216 59.225 216 59.5C216 59.775 214.875 60 213.5 60C212.125 60 211 60.225 211 60.5C211 60.775 209.875 61 208.5 61C207.125 61 206 61.225 206 61.5C206 61.775 204.875 62 203.5 62C202.125 62 201 62.225 201 62.5C201 62.775 200.325 63 199.5 63C198.675 63 198 63.225 198 63.5C198 63.775 197.55 64 197 64C196.45 64 196 64.225 196 64.5C196 64.775 195.656 65 195.237 65C194.244 65 190 69.2445 190 70.237C190 70.6565 189.775 71 189.5 71C189.225 71 189 71.675 189 72.5C189 73.325 188.775 74 188.5 74C188.225 74 188 74.675 188 75.5C188 76.325 187.775 77 187.5 77C187.222 77 187 78.3335 187 80C187 81.6665 187.222 83 187.5 83C187.775 83 188 84.125 188 85.5C188 86.875 188.225 88 188.5 88C188.775 88 189 88.675 189 89.5C189 90.325 189.225 91 189.5 91C189.775 91 190 91.3475 190 91.7725C190 92.773 192.227 95 193.228 95C193.653 95 194 95.225 194 95.5C194 95.775 194.45 96 195 96C195.55 96 196 96.225 196 96.5C196 96.775 196.675 97 197.5 97C198.325 97 199 97.225 199 97.5C199 97.775 199.9 98 201 98C202.1 98 203 98.225 203 98.5C203 98.803 205.167 99 208.5 99C211.833 99 214 98.803 214 98.5C214 98.2085 215.667 98 218 98C220.333 98 222 97.7915 222 97.5C222 97.225 222.9 97 224 97C225.1 97 226 96.775 226 96.5C226 96.225 226.345 96 226.767 96C227.644 96 231 92.8135 231 91.981C231 91.264 232.269 90 232.988 90C233.296 90 235.102 91.575 237 93.5C238.898 95.425 240.8 97 241.226 97C241.652 97 242 97.225 242 97.5C242 97.7915 243.667 98 246 98C248.333 98 250 97.7915 250 97.5C250 97.225 250.675 97 251.5 97C252.325 97 253 96.775 253 96.5C253 96.225 253.569 96 254.263 96C255.676 96 260 92.0525 260 90.763C260 90.3435 260.225 90 260.5 90C260.775 90 261 88.7525 261 87.2275C261 83.4315 259.633 82 256.006 82C253.775 82 253.256 82.2105 251.733 83.7335C250.78 84.6865 250 85.715 250 86.019C250 86.921 248.649 88 247.519 88C246.94 88 245.686 87.22 244.733 86.2665C243.109 84.6425 243 84.3275 243 81.2665C243 79.422 242.782 78 242.5 78C242.183 78 242 74.3335 242 68C242 61.6665 242.183 58 242.5 58C242.81 58 243 55.3335 243 51C243 46.6665 242.81 44 242.5 44C242.225 44 242 43.325 242 42.5C242 41.675 241.775 41 241.5 41C241.225 41 241 40.55 241 40C241 39.45 240.775 39 240.5 39C240.225 39 240 38.6575 240 38.239C240 37.249 234.751 32 233.761 32C233.342 32 233 31.775 233 31.5C233 31.2085 231.333 31 229 31C226.667 31 225 30.7915 225 30.5C225 30.1825 221.167 30 214.5 30C207.833 30 204 30.1825 204 30.5ZM388 30.5C388 30.775 387.55 31 387 31C386.334 31 386 31.3335 386 32C386 32.55 385.775 33 385.5 33C385.225 33 385 33.7975 385 34.7725C385 36.9145 386.839 39 388.727 39C389.427 39 390 39.225 390 39.5C390 39.8 392 40 395 40C398 40 400 39.8 400 39.5C400 38.692 406.453 38.8815 407.286 39.7145C407.883 40.3115 408 44 408 62.2145V84H395.727H383.455L382.227 85.2275C381.552 85.9025 381 87.0085 381 87.6855C381 88.3625 380.719 89.048 380.375 89.2085C379.875 89.4415 379.875 89.5585 380.375 89.7915C380.719 89.952 381 90.964 381 92.0415C381 93.119 381.225 94 381.5 94C381.775 94 382 94.3535 382 94.7855C382 95.966 383.267 97 384.714 97C385.421 97 386 97.225 386 97.5C386 97.8275 396 98 415 98C434 98 444 97.8275 444 97.5C444 97.225 444.9 97 446 97C447.1 97 448 96.775 448 96.5C448 96.225 448.45 96 449 96C449.666 96 450 95.6665 450 95C450 94.45 450.225 94 450.5 94C450.775 94 451 92.875 451 91.5C451 90.125 450.775 89 450.5 89C450.225 89 450 88.655 450 88.2335C450 87.8115 449.22 86.6865 448.266 85.7335L446.534 84H433.481C422.836 84 420.297 83.8685 419.714 83.2855C419.124 82.696 419 79.7335 419 66.2855C419 55.762 418.823 50 418.5 50C418.187 50 418 46.8335 418 41.5C418 36.1665 417.813 33 417.5 33C417.225 33 417 32.6465 417 32.2145C417 30.114 416.216 30 401.786 30C392.929 30 388 30.179 388 30.5ZM493 30.5C493 30.775 492.325 31 491.5 31C490.675 31 490 31.225 490 31.5C490 31.775 489.55 32 489 32C488.45 32 488 32.225 488 32.5C488 32.775 487.658 33 487.239 33C486.313 33 481 38.2185 481 39.129C481 39.4865 480.55 40.1035 480 40.5C479.24 41.048 479 41.7945 479 43.6105C479 44.9245 478.775 46 478.5 46C478.225 46 478 46.9 478 48C478 49.1 478.225 50 478.5 50C478.775 50 479 50.45 479 51C479 51.55 479.225 52 479.5 52C479.775 52 480 52.45 480 53C480 53.6255 480.334 54 480.89 54C481.379 54 482.104 54.45 482.5 55C483.121 55.862 483.794 56 487.373 56H491.526L493.763 53.763C494.994 52.533 496 51.183 496 50.763C496 50.3435 496.225 50 496.5 50C496.775 50 497 49.1 497 48C497 46.9 497.225 46 497.5 46C497.775 46 498 45.55 498 45C498 44.45 498.225 44 498.5 44C498.775 44 499 43.55 499 43C499 42.3335 499.334 42 500 42C500.55 42 501 41.775 501 41.5C501 41.225 501.45 41 502 41C502.55 41 503 40.775 503 40.5C503 40.225 503.675 40 504.5 40C505.325 40 506 39.775 506 39.5C506 39.222 507.334 39 509 39C510.666 39 512 39.222 512 39.5C512 39.775 512.675 40 513.5 40C514.325 40 515 40.225 515 40.5C515 40.775 515.45 41 516 41C516.55 41 517 41.225 517 41.5C517 41.775 517.348 42 517.773 42C518.773 42 521 44.227 521 45.2275C521 45.6525 521.225 46 521.5 46C521.775 46 522 47.125 522 48.5C522 49.875 522.225 51 522.5 51C523.267 51 523.094 54.478 522.286 55.2855C521.893 55.6785 520.993 56 520.286 56C519.579 56 519 56.225 519 56.5C519 56.775 517.875 57 516.5 57C515.125 57 514 57.225 514 57.5C514 57.775 513.1 58 512 58C510.9 58 510 58.225 510 58.5C510 58.775 508.875 59 507.5 59C506.125 59 505 59.225 505 59.5C505 59.775 503.875 60 502.5 60C501.125 60 500 60.225 500 60.5C500 60.778 498.666 61 497 61C495.334 61 494 61.222 494 61.5C494 61.775 492.875 62 491.5 62C490.125 62 489 62.225 489 62.5C489 62.775 488.55 63 488 63C487.45 63 487 63.225 487 63.5C487 63.775 486.55 64 486 64C485.45 64 485 64.225 485 64.5C485 64.775 484.55 65 484 65C483.45 65 483 65.225 483 65.5C483 65.775 482.646 66 482.214 66C481.25 66 480 67.1885 480 68.104C480 68.4755 479.55 69.1035 479 69.5C478.45 69.8965 478 70.621 478 71.1105C478 71.5995 477.775 72 477.5 72C477.225 72 477 72.675 477 73.5C477 74.325 476.775 75 476.5 75C476.197 75 476 77.1665 476 80.5C476 83.8335 476.197 86 476.5 86C476.775 86 477 86.9 477 88C477 89.1 477.225 90 477.5 90C477.775 90 478 90.3435 478 90.763C478 91.7555 482.244 96 483.237 96C483.656 96 484 96.225 484 96.5C484 96.775 484.675 97 485.5 97C486.325 97 487 97.225 487 97.5C487 97.775 487.9 98 489 98C490.1 98 491 98.225 491 98.5C491 98.8055 493.333 99 497 99C500.667 99 503 98.8055 503 98.5C503 98.2085 504.667 98 507 98C509.333 98 511 97.7915 511 97.5C511 97.225 511.792 97 512.761 97C514.227 97 514.979 96.5425 517.261 94.261C518.767 92.7545 520 91.276 520 90.975C520 90.6745 520.338 90.091 520.75 89.6785C521.416 89.012 521.584 89.012 522.25 89.6785C522.662 90.091 523 90.6755 523 90.9775C523 91.8115 527.367 96 528.237 96C528.656 96 529 96.225 529 96.5C529 96.775 529.45 97 530 97C530.55 97 531 97.225 531 97.5C531 97.7915 532.667 98 535 98C537.333 98 539 97.7915 539 97.5C539 97.225 539.675 97 540.5 97C541.325 97 542 96.775 542 96.5C542 96.225 542.45 96 543 96C543.55 96 544 95.775 544 95.5C544 95.225 544.348 95 544.773 95C545.773 95 548 92.773 548 91.7725C548 91.3475 548.225 91 548.5 91C548.782 91 549 89.576 549 87.7275C549 84.919 548.826 84.2805 547.773 83.2275C546.83 82.284 546.019 82 544.273 82C543.023 82 542 82.225 542 82.5C542 82.775 541.646 83 541.214 83C540.204 83 539 84.204 539 85.2145C539 85.6465 538.775 86 538.5 86C538.225 86 538 86.45 538 87C538 87.778 537.666 88 536.5 88C535.675 88 535 87.775 535 87.5C535 87.225 534.646 87 534.214 87C533.034 87 532 85.7325 532 84.2855C532 83.5785 531.775 83 531.5 83C531.175 83 531 75.8335 531 62.5C531 49.1665 530.825 42 530.5 42C530.225 42 530 41.55 530 41C530 40.45 529.775 40 529.5 40C529.225 40 529 39.55 529 39C529 38.45 528.775 38 528.5 38C528.225 38 528 37.6565 528 37.237C528 36.2445 523.756 32 522.763 32C522.344 32 522 31.775 522 31.5C522 31.2085 520.333 31 518 31C515.667 31 514 30.7915 514 30.5C514 30.1825 510.167 30 503.5 30C496.833 30 493 30.1825 493 30.5ZM675.125 31.2625C674.262 32.1845 674 33.059 674 35.018C674 37.8925 674.755 39 676.714 39C677.421 39 678 39.225 678 39.5C678 39.815 681.333 40 687 40C695.667 40 696 40.037 696 41C696 41.55 696.225 42 696.5 42C696.825 42 697 49.095 697 62.2855C697 79.2 696.882 82.69 696.286 83.2855C695.706 83.8655 693.295 84 683.5 84C670.891 84 670 84.146 670 86.2145C670 86.6465 669.775 87 669.5 87C669.222 87 669 88.3335 669 90C669 91.6665 669.222 93 669.5 93C669.775 93 670 93.3475 670 93.7725C670 94.9875 672.324 97 673.727 97C674.427 97 675 97.225 675 97.5C675 97.8275 684.833 98 703.5 98C722.167 98 732 97.8275 732 97.5C732 97.225 733.023 97 734.273 97C736.019 97 736.83 96.716 737.773 95.7725C738.845 94.7005 739 94.0975 739 91C739 87.9025 738.845 87.2995 737.773 86.2275C737.098 85.5525 736.198 85 735.773 85C735.348 85 735 84.775 735 84.5C735 84.179 730.167 84 721.5 84C708.333 84 708 83.9755 708 83C708 82.45 707.775 82 707.5 82C707.174 82 707 73.8335 707 58.5C707 43.1665 706.826 35 706.5 35C706.225 35 706 34.4275 706 33.7275C706 33.0275 705.448 31.9025 704.773 31.2275L703.545 30L689.898 30.0305L676.25 30.061L675.125 31.2625ZM572 31.5C572 31.775 571.652 32 571.227 32C570.227 32 568 34.227 568 35.2275C568 35.6525 567.775 36 567.5 36C567.225 36 567 37.2535 567 38.7855C567 41.6525 567.708 43 569.214 43C569.646 43 570 43.225 570 43.5C570 43.775 570.45 44 571 44C571.55 44 572 43.775 572 43.5C572 42.6815 579.446 42.874 580.286 43.7145C580.88 44.3085 581 47.638 581 63.5C581 84.603 581.095 84 577.786 84C576.804 84 576 84.225 576 84.5C576 84.775 574.875 85 573.5 85C572.125 85 571 85.225 571 85.5C571 85.775 570.55 86 570 86C569.078 86 569 86.3335 569 90.2725C569 94.1425 569.115 94.661 570.227 95.7725C570.902 96.4475 572.027 97 572.727 97C573.427 97 574 97.225 574 97.5C574 97.819 578.167 98 585.5 98C592.833 98 597 97.819 597 97.5C597 97.225 597.675 97 598.5 97C599.325 97 600 96.775 600 96.5C600 96.225 600.354 96 600.786 96C601.796 96 603 94.796 603 93.7855C603 93.3535 603.225 93 603.5 93C603.775 93 604 92.1 604 91C604 89.9 603.775 89 603.5 89C603.225 89 603 88.6465 603 88.2145C603 87.204 601.796 86 600.786 86C600.354 86 600 85.775 600 85.5C600 85.2085 598.333 85 596 85H592V71.5C592 62.8335 592.179 58 592.5 58C592.775 58 593 57.55 593 57C593 56.45 593.225 56 593.5 56C593.775 56 594 55.6405 594 55.2005C594 54.761 594.675 53.7705 595.5 53C596.325 52.2295 597 51.3415 597 51.0265C597 50.2845 599.284 48 600.026 48C600.341 48 601.229 47.325 602 46.5C602.771 45.675 603.761 45 604.201 45C604.641 45 605 44.775 605 44.5C605 44.225 605.401 44 605.89 44C606.379 44 607.104 43.55 607.5 43C607.924 42.413 608.794 42 609.61 42C610.374 42 611 41.775 611 41.5C611 41.222 612.334 41 614 41C615.666 41 617 41.222 617 41.5C617 41.775 617.573 42 618.273 42C619.676 42 622 44.0125 622 45.2275C622 45.6525 622.225 46 622.5 46C622.8 46 623 48 623 51C623 54 623.2 56 623.5 56C623.81 56 624 58.6665 624 63C624 67.3335 623.81 70 623.5 70C623.19 70 623 72.6665 623 77C623 83.6665 622.952 84 622 84C621.45 84 621 84.225 621 84.5C621 84.775 619.98 85 618.734 85C616.814 85 616.202 85.2655 614.734 86.7335C613.668 87.799 613 88.9545 613 89.7335C613 90.43 612.775 91 612.5 91C612.225 91 612 91.675 612 92.5C612 93.325 612.225 94 612.5 94C612.775 94 613 94.3475 613 94.7725C613 95.1975 613.552 96.0975 614.227 96.7725L615.455 98H630.727C640.576 98 646 97.8225 646 97.5C646 97.225 646.348 97 646.773 97C647.988 97 650 94.676 650 93.2725C650 92.5725 650.225 92 650.5 92C650.775 92 651 91.55 651 91C651 90.45 650.775 90 650.5 90C650.225 90 650 89.6525 650 89.2275C650 88.227 647.773 86 646.773 86C646.348 86 646 85.775 646 85.5C646 85.225 644.875 85 643.5 85C642.125 85 641 84.775 641 84.5C641 84.2085 639.333 84 637 84H633V68.5C633 58.5 632.822 53 632.5 53C632.204 53 632 51.1665 632 48.5C632 45.8335 631.796 44 631.5 44C631.225 44 631 43.325 631 42.5C631 41.675 630.775 41 630.5 41C630.225 41 630 40.5995 630 40.1105C630 39.621 629.55 38.8965 629 38.5C628.45 38.1035 628 37.4755 628 37.104C628 36.2335 626.766 35 625.896 35C625.524 35 624.896 34.55 624.5 34C624.104 33.45 623.379 33 622.89 33C622.401 33 622 32.775 622 32.5C622 32.225 621.325 32 620.5 32C619.675 32 619 31.775 619 31.5C619 31.197 616.833 31 613.5 31C610.167 31 608 31.197 608 31.5C608 31.775 607.55 32 607 32C606.45 32 606 32.225 606 32.5C606 32.775 605.55 33 605 33C604.45 33 604 33.225 604 33.5C604 33.775 603.55 34 603 34C602.45 34 602 34.225 602 34.5C602 34.775 601.55 35 601 35C600.45 35 600 35.225 600 35.5C600 35.775 599.599 36 599.11 36C598.621 36 597.896 36.45 597.5 37C597.104 37.55 596.484 38 596.123 38C595.211 38 592 41.2975 592 42.2335C592 42.6665 591.565 43 591 43C590.074 43 590 42.6665 590 38.5C590 35.8335 589.796 34 589.5 34C589.225 34 589 33.55 589 33C589 32.3335 588.666 32 588 32C587.45 32 587 31.775 587 31.5C587 31.189 584.167 31 579.5 31C574.833 31 572 31.189 572 31.5ZM232 70.5C232 73.8335 231.803 76 231.5 76C231.225 76 231 76.675 231 77.5C231 78.325 230.775 79 230.5 79C230.225 79 230 79.45 230 80C230 80.55 229.775 81 229.5 81C229.225 81 229 81.3475 229 81.7725C229 82.773 226.773 85 225.772 85C225.347 85 225 85.225 225 85.5C225 85.775 224.55 86 224 86C223.45 86 223 86.225 223 86.5C223 86.775 222.1 87 221 87C219.9 87 219 87.225 219 87.5C219 87.8095 216.333 88 212 88C207.667 88 205 87.8095 205 87.5C205 87.225 204.653 87 204.228 87C203.227 87 201 84.773 201 83.7725C201 83.3475 200.775 83 200.5 83C200.218 83 200 81.579 200 79.737C200 76.539 200.044 76.429 202.237 74.237C203.467 73.0065 204.817 72 205.237 72C205.656 72 206 71.775 206 71.5C206 71.225 206.45 71 207 71C207.55 71 208 70.775 208 70.5C208 70.225 208.45 70 209 70C209.55 70 210 69.775 210 69.5C210 69.225 210.9 69 212 69C213.1 69 214 68.775 214 68.5C214 68.225 215.125 68 216.5 68C217.875 68 219 67.775 219 67.5C219 67.225 220.125 67 221.5 67C222.875 67 224 66.775 224 66.5C224 66.2145 225.5 66 227.5 66C229.5 66 231 65.7855 231 65.5C231 65.225 231.225 65 231.5 65C231.803 65 232 67.1665 232 70.5ZM521 68.5C521 70.5 520.785 72 520.5 72C520.222 72 520 73.3335 520 75C520 76.6665 519.778 78 519.5 78C519.225 78 519 78.5685 519 79.263C519 80.6755 515.053 85 513.763 85C513.344 85 513 85.225 513 85.5C513 85.775 512.55 86 512 86C511.45 86 511 86.225 511 86.5C511 86.775 510.325 87 509.5 87C508.675 87 508 87.225 508 87.5C508 87.8105 505.245 88 500.737 88H493.474L491.237 85.763C489.768 84.2945 489 83.0925 489 82.263C489 81.5685 488.775 81 488.5 81C488.225 81 488 80.325 488 79.5C488 78.675 488.225 78 488.5 78C488.775 78 489 77.55 489 77C489 76.45 489.225 76 489.5 76C489.775 76 490 75.6465 490 75.2145C490 74.2505 491.189 73 492.104 73C492.476 73 493.104 72.55 493.5 72C493.896 71.45 494.621 71 495.11 71C495.599 71 496 70.775 496 70.5C496 70.225 496.675 70 497.5 70C498.325 70 499 69.775 499 69.5C499 69.225 499.675 69 500.5 69C501.325 69 502 68.775 502 68.5C502 68.225 503.125 68 504.5 68C505.875 68 507 67.775 507 67.5C507 67.222 508.334 67 510 67C511.666 67 513 66.778 513 66.5C513 66.2145 514.5 66 516.5 66C518.5 66 520 65.7855 520 65.5C520 65.225 520.225 65 520.5 65C520.785 65 521 66.5 521 68.5ZM70 146.5V149H369.5H669V146.5V144H369.5H70V146.5ZM140 187.5C140 188.325 139.775 189 139.5 189C139.225 189 139 189.675 139 190.5C139 191.325 138.775 192 138.5 192C138.225 192 138 192.675 138 193.5C138 194.325 137.775 195 137.5 195C137.225 195 137 195.675 137 196.5C137 197.325 136.775 198 136.5 198C136.225 198 136 198.675 136 199.5C136 200.325 135.775 201 135.5 201C135.225 201 135 201.675 135 202.5C135 203.325 134.775 204 134.5 204C134.225 204 134 204.675 134 205.5C134 206.325 133.775 207 133.5 207C133.225 207 133 207.675 133 208.5C133 209.325 132.775 210 132.5 210C132.225 210 132 210.675 132 211.5C132 212.325 131.775 213 131.5 213C131.225 213 131 213.675 131 214.5C131 215.325 130.775 216 130.5 216C130.225 216 130 216.675 130 217.5C130 218.325 129.775 219 129.5 219C129.225 219 129 219.675 129 220.5C129 221.325 128.775 222 128.5 222C128.225 222 128 222.225 128 222.5C128 222.825 134.833 223 147.5 223C160.167 223 167 222.825 167 222.5C167 222.225 168.125 222 169.5 222C170.875 222 172 221.775 172 221.5C172 221.225 172.675 221 173.5 221C174.325 221 175 220.775 175 220.5C175 220.225 175.45 220 176 220C176.55 220 177 219.775 177 219.5C177 219.225 177.344 219 177.763 219C178.183 219 179.533 217.994 180.763 216.763C181.994 215.533 183 214.183 183 213.763C183 213.344 183.225 213 183.5 213C183.775 213 184 212.55 184 212C184 211.45 184.225 211 184.5 211C184.775 211 185 210.325 185 209.5C185 208.675 185.225 208 185.5 208C185.775 208 186 207.325 186 206.5C186 205.675 186.225 205 186.5 205C186.775 205 187 204.325 187 203.5C187 202.675 187.225 202 187.5 202C187.775 202 188 201.325 188 200.5C188 199.675 188.225 199 188.5 199C188.775 199 189 197.894 189 196.542C189 195.064 189.25 193.967 189.625 193.792C190.125 193.559 190.125 193.442 189.625 193.209C189.282 193.048 189 192.363 189 191.686C189 190.317 186.971 188 185.772 188C185.347 188 185 187.775 185 187.5C185 187.225 184.325 187 183.5 187C182.675 187 182 186.775 182 186.5C182 186.175 174.667 186 161 186H140V187.5ZM206.625 186.748C206.282 187.139 206 188.03 206 188.729C206 189.428 205.775 190 205.5 190C205.225 190 205 190.675 205 191.5C205 192.325 204.775 193 204.5 193C204.225 193 204 193.9 204 195C204 196.1 203.775 197 203.5 197C203.225 197 203 197.675 203 198.5C203 199.325 202.775 200 202.5 200C202.225 200 202 200.675 202 201.5C202 202.325 201.775 203 201.5 203C201.225 203 201 203.675 201 204.5C201 205.325 200.775 206 200.5 206C200.225 206 200 206.675 200 207.5C200 208.325 199.775 209 199.5 209C199.225 209 199 209.675 199 210.5C199 211.325 198.775 212 198.5 212C198.225 212 198 212.675 198 213.5C198 214.325 197.775 215 197.5 215C197.225 215 197 215.675 197 216.5C197 217.325 196.775 218 196.5 218C196.225 218 196 218.675 196 219.5C196 220.325 195.775 221 195.5 221C195.225 221 195 221.45 195 222C195 222.986 195.333 223 218.5 223C241.667 223 242 222.986 242 222C242 221.45 242.225 221 242.5 221C242.775 221 243 220.325 243 219.5C243 218.675 243.225 218 243.5 218C243.775 218 244 217.55 244 217C244 216.022 243.667 216 228.5 216H213V214C213 212.9 213.225 212 213.5 212C213.775 212 214 211.422 214 210.715C214 208.081 214.407 208 227.715 208C239.667 208 240 207.973 240 207C240 206.45 240.225 206 240.5 206C240.775 206 241 205.325 241 204.5C241 203.675 241.225 203 241.5 203C241.775 203 242 202.325 242 201.5V200H230H218V198.5C218 197.675 218.225 197 218.5 197C218.775 197 219 196.422 219 195.715C219 193.018 219.113 193 236.215 193H252V191.5C252 190.675 252.225 190 252.5 190C252.775 190 253 189.325 253 188.5C253 187.675 253.225 187 253.5 187C253.775 187 254 186.775 254 186.5C254 186.174 245.887 186.007 230.625 186.019C211.079 186.035 207.147 186.155 206.625 186.748ZM266.625 186.748C266.282 187.139 266 188.03 266 188.729C266 189.428 265.775 190 265.5 190C265.225 190 265 190.675 265 191.5C265 192.325 264.775 193 264.5 193C264.225 193 264 193.675 264 194.5C264 195.325 263.775 196 263.5 196C263.225 196 263 196.675 263 197.5C263 198.325 262.775 199 262.5 199C262.225 199 262 199.9 262 201C262 202.1 261.775 203 261.5 203C261.225 203 261 203.675 261 204.5C261 205.325 260.775 206 260.5 206C260.225 206 260 206.675 260 207.5C260 208.325 259.775 209 259.5 209C259.225 209 259 209.675 259 210.5C259 211.325 258.775 212 258.5 212C258.225 212 258 212.675 258 213.5C258 214.325 257.775 215 257.5 215C257.225 215 257 215.675 257 216.5C257 217.325 256.775 218 256.5 218C256.225 218 256 218.675 256 219.5C256 220.325 255.775 221 255.5 221C255.225 221 255 221.45 255 222C255 222.986 255.333 223 278 223C300.667 223 301 222.986 301 222C301 221.45 301.225 221 301.5 221C301.775 221 302 220.325 302 219.5C302 218.675 302.225 218 302.5 218C302.775 218 303 217.55 303 217C303 216.022 302.667 216 288 216H273V214C273 212.9 273.225 212 273.5 212C273.775 212 274 211.325 274 210.5C274 209.675 274.225 209 274.5 209C274.775 209 275 208.325 275 207.5C275 206.675 275.225 206 275.5 206C275.775 206 276 205.325 276 204.5C276 203.675 276.225 203 276.5 203C276.775 203 277 202.325 277 201.5C277 200.675 277.225 200 277.5 200C277.775 200 278 199.325 278 198.5C278 197.675 278.225 197 278.5 197C278.775 197 279 196.325 279 195.5C279 194.675 279.225 194 279.5 194C279.775 194 280 193.325 280 192.5C280 191.675 280.225 191 280.5 191C280.775 191 281 190.325 281 189.5C281 188.675 281.225 188 281.5 188C281.775 188 282 187.55 282 187C282 186.045 281.673 186.001 274.625 186.019C268.9 186.034 267.11 186.197 266.625 186.748ZM325 187C325 187.55 324.775 188 324.5 188C324.225 188 324 188.675 324 189.5C324 190.325 323.775 191 323.5 191C323.225 191 323 191.45 323 192C323 192.905 323.333 193 326.5 193H330V194.5C330 195.325 329.775 196 329.5 196C329.225 196 329 196.675 329 197.5C329 198.325 328.775 199 328.5 199C328.225 199 328 199.675 328 200.5C328 201.325 327.775 202 327.5 202C327.225 202 327 202.675 327 203.5C327 204.325 326.775 205 326.5 205C326.225 205 326 205.675 326 206.5C326 207.325 325.775 208 325.5 208C325.225 208 325 208.675 325 209.5C325 210.325 324.775 211 324.5 211C324.225 211 324 211.675 324 212.5C324 213.325 323.775 214 323.5 214C323.225 214 323 214.45 323 215C323 215.917 322.667 216 319 216C315.333 216 315 216.084 315 217C315 217.55 314.775 218 314.5 218C314.225 218 314 218.675 314 219.5C314 220.325 313.775 221 313.5 221C313.225 221 313 221.45 313 222C313 222.978 313.333 223 327.785 223C343.803 223 344 222.967 344 220.286C344 219.579 344.225 219 344.5 219C344.775 219 345 218.325 345 217.5C345 216.013 344.976 216 342.215 216C340.279 216 339.173 215.745 338.594 215.165C337.986 214.558 337.928 214.274 338.379 214.124C338.721 214.01 339 213.261 339 212.459C339 211.657 339.225 211 339.5 211C339.775 211 340 210.325 340 209.5C340 208.675 340.225 208 340.5 208C340.775 208 341 207.325 341 206.5C341 205.675 341.225 205 341.5 205C341.775 205 342 204.325 342 203.5C342 202.675 342.225 202 342.5 202C342.775 202 343 201.325 343 200.5C343 199.675 343.225 199 343.5 199C343.775 199 344 198.325 344 197.5C344 196.675 344.225 196 344.5 196C344.775 196 345 195.325 345 194.5V193H348.785C352.955 193 354 192.457 354 190.286C354 189.579 354.225 189 354.5 189C354.775 189 355 188.325 355 187.5V186H340C325.333 186 325 186.022 325 187ZM364 187.5C364 188.325 364.225 189 364.5 189C364.775 189 365 189.9 365 191C365 192.1 365.225 193 365.5 193C365.775 193 366 193.9 366 195C366 196.1 366.225 197 366.5 197C366.775 197 367 197.675 367 198.5C367 199.325 367.225 200 367.5 200C367.775 200 368 200.9 368 202C368 203.1 368.225 204 368.5 204C368.775 204 369 204.9 369 206C369 207.1 369.225 208 369.5 208C369.775 208 370 208.675 370 209.5C370 210.325 370.225 211 370.5 211C370.775 211 371 211.9 371 213C371 214.1 371.225 215 371.5 215C371.775 215 372 215.9 372 217C372 218.1 372.225 219 372.5 219C372.775 219 373 219.579 373 220.286C373 222.786 373.747 223 382.475 223H390.521L393.261 220.261C394.767 218.755 396 217.286 396 216.997C396 216.709 398.925 213.56 402.5 210C406.075 206.44 409 203.29 409 203C409 202.71 411.925 199.56 415.5 196C419.075 192.44 422 189.234 422 188.874C422 188.515 422.45 187.897 423 187.5C423.55 187.104 424 186.604 424 186.39C424 186.176 420.506 186 416.237 186H408.474L406.237 188.237C405.006 189.467 404 190.716 404 191.011C404 191.307 402.425 193.102 400.5 195C398.575 196.899 397 198.699 397 199C397 199.302 395.425 201.102 393.5 203C391.575 204.899 390 206.695 390 206.993C390 207.817 386.637 211 385.766 211C385.18 211 385 210.413 385 208.5C385 207.125 384.775 206 384.5 206C384.225 206 384 205.1 384 204C384 202.9 383.775 202 383.5 202C383.225 202 383 200.875 383 199.5C383 198.125 382.775 197 382.5 197C382.225 197 382 196.1 382 195C382 193.9 381.775 193 381.5 193C381.225 193 381 191.875 381 190.5C381 189.125 380.775 188 380.5 188C380.225 188 380 187.55 380 187C380 186.042 379.667 186 372 186H364V187.5ZM431 187.5C431 188.325 430.775 189 430.5 189C430.225 189 430 189.675 430 190.5C430 191.325 429.775 192 429.5 192C429.225 192 429 192.675 429 193.5C429 194.325 428.775 195 428.5 195C428.225 195 428 195.675 428 196.5C428 197.325 427.775 198 427.5 198C427.225 198 427 198.675 427 199.5C427 200.325 426.775 201 426.5 201C426.225 201 426 201.675 426 202.5C426 203.325 425.775 204 425.5 204C425.225 204 425 204.675 425 205.5C425 206.325 424.775 207 424.5 207C424.225 207 424 207.675 424 208.5C424 209.325 423.775 210 423.5 210C423.225 210 423 210.675 423 211.5C423 212.325 422.775 213 422.5 213C422.225 213 422 213.675 422 214.5C422 215.325 421.775 216 421.5 216C421.225 216 421 216.675 421 217.5C421 218.325 420.775 219 420.5 219C420.225 219 420 219.9 420 221V223H442.786C467.491 223 467 223.055 467 220.286C467 219.579 467.225 219 467.5 219C467.775 219 468 218.325 468 217.5V216H453.214C440.07 216 438.336 215.908 437.594 215.165C436.986 214.558 436.928 214.274 437.38 214.124C437.721 214.01 438 213.261 438 212.459C438 211.657 438.225 211 438.5 211C438.775 211 439 210.325 439 209.5V208H451.286C464.594 208 465 207.92 465 205.286C465 204.579 465.225 204 465.5 204C465.775 204 466 203.325 466 202.5C466 201.675 466.225 201 466.5 201C466.775 201 467 200.775 467 200.5C467 200.18 462.5 200 454.5 200C442.333 200 442 199.974 442 199C442 198.45 442.225 198 442.5 198C442.775 198 443 197.325 443 196.5C443 195.675 443.225 195 443.5 195C443.775 195 444 194.55 444 194C444 193.021 444.334 193 459.786 193C476.888 193 477 192.983 477 190.286C477 189.579 477.225 189 477.5 189C477.775 189 478 188.325 478 187.5V186H454.5H431V187.5ZM492.625 186.748C492.282 187.139 492 188.03 492 188.729C492 189.428 491.775 190 491.5 190C491.225 190 491 190.675 491 191.5C491 192.325 490.775 193 490.5 193C490.225 193 490 193.675 490 194.5C490 195.325 489.775 196 489.5 196C489.225 196 489 196.675 489 197.5C489 198.325 488.775 199 488.5 199C488.225 199 488 199.675 488 200.5C488 201.325 487.775 202 487.5 202C487.225 202 487 202.675 487 203.5C487 204.325 486.775 205 486.5 205C486.225 205 486 205.675 486 206.5C486 207.325 485.775 208 485.5 208C485.225 208 485 208.675 485 209.5C485 210.325 484.775 211 484.5 211C484.225 211 484 211.675 484 212.5C484 213.325 483.775 214 483.5 214C483.225 214 483 214.675 483 215.5C483 216.325 482.775 217 482.5 217C482.225 217 482 217.675 482 218.5C482 219.325 481.775 220 481.5 220C481.225 220 481 220.675 481 221.5V223H488.5C495.667 223 496 222.956 496 222C496 221.45 496.225 221 496.5 221C496.775 221 497 220.325 497 219.5C497 218.675 497.225 218 497.5 218C497.775 218 498 217.1 498 216C498 214.9 498.225 214 498.5 214C498.775 214 499 213.55 499 213C499 212.052 499.333 212 505.5 212C511.667 212 512 212.052 512 213C512 213.55 512.225 214 512.5 214C512.775 214 513 214.401 513 214.89C513 215.379 513.45 216.104 514 216.5C514.55 216.897 515 217.621 515 218.111C515 218.6 515.225 219 515.5 219C515.775 219 516 219.45 516 220C516 220.55 516.225 221 516.5 221C516.775 221 517 221.45 517 222C517 222.961 517.333 223 525.5 223C530.175 223 534 222.825 534 222.611C534 222.396 533.55 221.897 533 221.5C532.45 221.104 532 220.379 532 219.89C532 219.401 531.775 219 531.5 219C531.225 219 531 218.55 531 218C531 217.45 530.775 217 530.5 217C530.225 217 530 216.6 530 216.111C530 215.621 529.55 214.897 529 214.5C528.45 214.104 528 213.379 528 212.89C528 212.401 527.775 212 527.5 212C527.225 212 527 211.775 527 211.5C527 211.225 527.675 211 528.5 211C529.325 211 530 210.775 530 210.5C530 210.225 530.675 210 531.5 210C532.325 210 533 209.775 533 209.5C533 209.225 533.344 209 533.763 209C534.756 209 539 204.756 539 203.763C539 203.344 539.225 203 539.5 203C539.775 203 540 202.325 540 201.5C540 200.675 540.225 200 540.5 200C540.775 200 541 199.325 541 198.5C541 197.675 541.225 197 541.5 197C541.789 197 542 195.409 542 193.228C542 189.889 541.859 189.314 540.773 188.228C540.098 187.553 538.973 187 538.273 187C537.573 187 537 186.775 537 186.5C537 186.174 529.387 186.007 515.125 186.019C496.874 186.035 493.146 186.156 492.625 186.748ZM551 186.5C551 186.775 551.225 187 551.5 187C551.775 187 552 187.45 552 188C552 188.55 552.225 189 552.5 189C552.775 189 553 189.45 553 190C553 190.55 553.225 191 553.5 191C553.775 191 554 191.45 554 192C554 192.55 554.225 193 554.5 193C554.775 193 555 193.45 555 194C555 194.55 555.225 195 555.5 195C555.775 195 556 195.45 556 196C556 196.55 556.225 197 556.5 197C556.775 197 557 197.45 557 198C557 198.55 557.225 199 557.5 199C557.775 199 558 199.45 558 200C558 200.55 558.225 201 558.5 201C558.775 201 559 201.45 559 202C559 202.55 559.225 203 559.5 203C559.775 203 560 203.45 560 204C560 204.55 560.225 205 560.5 205C560.775 205 561 205.45 561 206C561 206.55 561.225 207 561.5 207C561.775 207 562 207.45 562 208C562 208.55 562.225 209 562.5 209C562.775 209 563 209.675 563 210.5C563 211.325 563.225 212 563.5 212C563.775 212 564 212.675 564 213.5C564 214.325 563.775 215 563.5 215C563.225 215 563 215.675 563 216.5C563 217.325 562.775 218 562.5 218C562.225 218 562 218.675 562 219.5C562 220.325 561.775 221 561.5 221C561.225 221 561 221.45 561 222C561 222.954 561.334 223 568.286 223C576.195 223 577 222.749 577 220.286C577 219.579 577.225 219 577.5 219C577.775 219 578 218.325 578 217.5C578 216.675 578.225 216 578.5 216C578.775 216 579 215.432 579 214.737C579 213.46 582.895 209 584.011 209C584.306 209 586.102 207.425 588 205.5C589.898 203.575 591.699 202 592 202C592.301 202 594.102 200.425 596 198.5C597.898 196.575 599.699 195 600 195C600.301 195 602.102 193.425 604 191.5C605.898 189.575 607.703 188 608.011 188C608.592 188 610 186.787 610 186.286C610 186.129 606.491 186 602.201 186H594.401L593 187.5C592.229 188.325 591.345 189 591.034 189C590.723 189 588.007 191.475 585 194.5C581.993 197.525 579.277 200 578.966 200C578.655 200 577.771 200.675 577 201.5C575.38 203.235 574 203.465 574 202C574 201.45 573.775 201 573.5 201C573.225 201 573 200.325 573 199.5C573 198.675 572.775 198 572.5 198C572.225 198 572 197.55 572 197C572 196.45 571.775 196 571.5 196C571.225 196 571 195.55 571 195C571 194.45 570.775 194 570.5 194C570.225 194 570 193.55 570 193C570 192.45 569.775 192 569.5 192C569.225 192 569 191.325 569 190.5C569 189.675 568.775 189 568.5 189C568.225 189 568 188.647 568 188.215C568 186.274 566.86 186 558.786 186C553.929 186 551 186.188 551 186.5ZM172.772 194.228C174.021 195.476 174.558 199 173.5 199C173.225 199 173 199.675 173 200.5C173 201.325 172.775 202 172.5 202C172.225 202 172 202.675 172 203.5C172 204.325 171.775 205 171.5 205C171.225 205 171 205.675 171 206.5C171 207.325 170.775 208 170.5 208C170.225 208 170 208.626 170 209.39C170 210.206 169.587 211.077 169 211.5C168.45 211.897 168 212.621 168 213.111C168 213.667 167.626 214 167 214C166.45 214 166 214.225 166 214.5C166 214.775 164.875 215 163.5 215C162.125 215 161 215.225 161 215.5C161 215.811 158.167 216 153.5 216H146V214.5C146 213.675 146.225 213 146.5 213C146.775 213 147 212.325 147 211.5C147 210.675 147.225 210 147.5 210C147.775 210 148 209.325 148 208.5C148 207.675 148.225 207 148.5 207C148.775 207 149 206.325 149 205.5C149 204.675 149.225 204 149.5 204C149.775 204 150 203.325 150 202.5C150 201.675 150.225 201 150.5 201C150.775 201 151 200.325 151 199.5C151 198.675 151.225 198 151.5 198C151.775 198 152 197.325 152 196.5C152 195.675 152.225 195 152.5 195C152.775 195 153 194.55 153 194C153 193.036 153.333 193 162.272 193C171.451 193 171.558 193.013 172.772 194.228ZM526.286 193.715C527.098 194.526 527.259 197 526.5 197C526.225 197 526 197.675 526 198.5C526 199.325 525.775 200 525.5 200C525.225 200 525 200.348 525 200.773C525 201.198 524.448 202.098 523.773 202.773C522.55 203.996 522.513 204 512.273 204C502.334 204 502 203.968 502 203C502 202.45 502.225 202 502.5 202C502.775 202 503 201.325 503 200.5C503 199.675 503.225 199 503.5 199C503.775 199 504 198.325 504 197.5C504 196.675 504.225 196 504.5 196C504.775 196 505 195.325 505 194.5V193H515.286C523.534 193 525.713 193.142 526.286 193.715Z" fill="black"/>
</svg>
