<svg width="78" height="66" viewBox="0 0 78 66" fill="none" xmlns="http://www.w3.org/2000/svg">
<path d="M0 0V47.1368H59.8554L77.6875 66V47.1368V0H0Z" fill="#80A851"/>
<path d="M59.5119 17.1016L56.805 24.4922L53.6253 17.1016H50.2736L53.4534 23.8906C52.8518 25.5235 51.8635 25.6953 50.8752 25.6953C49.6722 25.6953 48.8557 24.5781 48.8557 23.246V11.7305H43.8713V14.3946H45.7191V23.8476C45.6761 25.8672 44.8167 25.9961 44.387 25.9961C43.9573 25.9961 43.2698 25.7813 43.2698 24.707V21.7422C43.2698 18.1329 41.1644 16.8008 37.8557 16.8008C36.18 16.8008 34.5041 17.2305 33.6017 17.5313V20.2812C34.633 19.8515 35.9651 19.4648 37.4691 19.4648C39.1877 19.4648 40.0471 20.2383 40.0471 21.3125V21.6992C39.2737 21.5274 38.3283 21.3985 37.4261 21.3985C35.4924 21.3985 33.2581 22.086 32.7425 24.1914C32.0979 25.4805 30.8088 25.7383 30.0783 25.7383C28.8753 25.7383 28.0589 24.75 28.0589 23.5898V19.7656H31.5393V17.1016H28.0589V14.3087H24.9222V17.1016H23.0745V19.7656H24.9222V23.246C24.9222 24.9648 23.4612 25.8672 22.3869 25.8672C20.9261 25.8672 20.1526 24.6211 20.1526 23.4609V17.1016H14.8674V19.7656H16.93V24.1054C16.93 26.8124 19.0354 28.4023 21.1409 28.4023C22.2151 28.4023 24.0628 28.4023 25.4807 26.4688C26.3401 27.7578 27.844 28.4023 29.262 28.4023C30.2932 28.4023 31.7112 28.2304 33.0862 26.8984C33.7736 27.8437 35.0198 28.3594 36.3518 28.4023C37.9846 28.4453 39.2307 27.8867 40.305 27.0702C40.7776 27.8867 41.7659 28.4023 43.3987 28.4023C45.0315 28.4023 45.9769 28.0156 46.6643 26.8554C47.5237 27.8437 48.8128 28.4023 50.1447 28.4023C51.6487 28.4023 53.1097 28.1445 54.4416 26.2969L55.344 28.2304L55.301 28.2734C54.6994 29.9063 53.8401 30.6797 52.68 30.6797C52.2503 30.6797 51.8205 30.5938 51.3908 30.5079V33.1289C51.9495 33.2578 52.551 33.3867 53.1097 33.3867C54.8713 33.3867 56.5901 32.4414 57.8362 29.3906L62.6916 17.1016H59.5119ZM40.0042 25.2656C39.2737 25.9102 38.4143 26.168 37.555 26.168C36.6097 26.168 35.8362 25.6524 35.8362 24.8359C35.8362 23.7187 36.9964 23.332 38.1564 23.332C38.801 23.332 39.5315 23.4609 40.0471 23.5898V25.2656H40.0042ZM18.5198 15.8554C19.551 15.8554 20.4104 14.996 20.4104 13.9648C20.4104 12.9336 19.551 12.0742 18.5198 12.0742C17.4885 12.0742 16.6292 12.9336 16.6292 13.9648C16.6292 14.996 17.4455 15.8554 18.5198 15.8554Z" fill="white"/>
<path d="M18.3904 36.4375C17.7889 36.4375 17.2302 36.3086 16.8435 36.0937V35.3203C17.1873 35.4922 17.7459 35.664 18.2615 35.664C18.8631 35.664 19.3787 35.5351 19.3787 35.1054C19.3787 34.6759 18.949 34.5899 18.5193 34.5899H17.7029V33.9024H18.5193C18.949 33.9024 19.2928 33.7735 19.2928 33.4297C19.2928 33.043 18.9061 32.8711 18.3045 32.8711C17.8318 32.8711 17.2732 33 16.9294 33.2149V32.4414C17.3162 32.2695 17.8748 32.0977 18.4334 32.0977C19.6795 32.0977 20.238 32.6133 20.238 33.3008C20.238 33.7735 19.9374 34.1173 19.5077 34.2032C19.9803 34.3321 20.324 34.6759 20.324 35.1914C20.324 35.9219 19.6795 36.4375 18.3904 36.4375Z" fill="white"/>
<path d="M25.0073 35.6643C25.0933 35.6643 25.1792 35.6213 25.2651 35.6213V36.2659C25.0933 36.3518 24.8784 36.3518 24.7065 36.3518C24.3198 36.3518 24.019 36.2229 23.8901 35.8791C23.5034 36.2229 22.9877 36.3948 22.3432 36.3948C21.6127 36.3948 20.9253 36.008 20.9253 35.1486C20.9253 34.1174 21.9135 33.7736 22.7299 33.7736C23.0737 33.7736 23.4604 33.8166 23.8042 33.9025V33.7736C23.8042 33.258 23.4174 32.9142 22.7299 32.9142C22.1283 32.9142 21.6127 33.0861 21.2691 33.215V32.3987C21.6127 32.2698 22.1713 32.1409 22.8158 32.1409C23.976 32.1409 24.7065 32.6993 24.7065 33.9455V35.4065C24.7065 35.5783 24.8354 35.6643 25.0073 35.6643ZM21.8705 35.1057C21.8705 35.4924 22.2143 35.7073 22.644 35.7073C23.0737 35.7073 23.5034 35.5354 23.8042 35.2346V34.5471C23.5463 34.5041 23.2026 34.4611 22.9018 34.4611C22.3861 34.4611 21.8705 34.59 21.8705 35.1057Z" fill="white"/>
<path d="M25.9526 36.3086V32.2266H29.0035V33.043H26.855V36.3086H25.9526Z" fill="white"/>
<path d="M31.5389 32.1409C32.6989 32.1409 33.7302 32.8712 33.7302 34.2892C33.7302 35.7073 32.656 36.4378 31.5389 36.4378C30.4217 36.4378 29.3474 35.7073 29.3474 34.2892C29.3474 32.8712 30.4217 32.1409 31.5389 32.1409ZM31.5389 32.9572C30.7654 32.9572 30.2498 33.4728 30.2498 34.2892C30.2498 35.1057 30.7654 35.6213 31.5389 35.6213C32.3124 35.6213 32.8279 35.1057 32.8279 34.2892C32.8279 33.4728 32.3124 32.9572 31.5389 32.9572Z" fill="white"/>
<path d="M37.039 32.1409C38.2422 32.1409 39.0585 33.129 39.0585 34.2892C39.0585 35.4494 38.2422 36.4378 37.039 36.4378C36.3085 36.4378 35.8358 36.137 35.578 35.7932V38.1994H34.6758V32.2268H35.4921V32.8712C35.7929 32.4846 36.2655 32.1409 37.039 32.1409ZM36.8671 32.9142C36.2226 32.9142 35.7499 33.3009 35.578 33.7736V34.7619C35.7929 35.1916 36.2655 35.6213 36.8671 35.6213C37.5976 35.6213 38.1133 35.0627 38.1133 34.2892C38.1133 33.4728 37.5976 32.9142 36.8671 32.9142Z" fill="white"/>
<path d="M41.8944 32.1409C43.0546 32.1409 44.0857 32.8712 44.0857 34.2892C44.0857 35.7073 43.0116 36.4378 41.8944 36.4378C40.7772 36.4378 39.7029 35.7073 39.7029 34.2892C39.6599 32.8712 40.7342 32.1409 41.8944 32.1409ZM41.8944 32.9572C41.1209 32.9572 40.6053 33.4728 40.6053 34.2892C40.6053 35.1057 41.1209 35.6213 41.8944 35.6213C42.6679 35.6213 43.1835 35.1057 43.1835 34.2892C43.1835 33.4728 42.6249 32.9572 41.8944 32.9572Z" fill="white"/>
<path d="M44.5151 37.4259V35.5783H45.0738C45.5464 34.7189 45.7183 33.6877 45.7183 32.2698H48.898V35.5783H49.4995V37.4259H48.6401V36.3088H45.3745V37.4259H44.5151ZM46.0191 35.5783H47.9956V33.0001H46.5776C46.5346 34.0744 46.3629 34.8478 46.0191 35.5783Z" fill="white"/>
</svg>
