<svg width="64" height="49" viewBox="0 0 64 49" fill="none" xmlns="http://www.w3.org/2000/svg">
<g clip-path="url(#clip0)">
<path d="M3.3645 34.7597L7.52833 34.26L11.6755 10.293L7.51168 10.7926L3.3645 34.7597Z" fill="black"/>
<path d="M19.3202 18.121L25.1829 17.4048L25.8325 13.624L19.9698 14.3236L20.8026 9.46021L16.8053 9.94321L16.1224 13.8739C16.0058 14.5567 15.7227 14.8399 15.0565 14.9065L13.1245 15.1397L12.4583 18.9871L15.1564 18.654L13.7574 26.7984C13.3743 29.0302 13.6741 30.6791 14.6401 31.7284C15.6228 32.7943 17.2883 33.1774 19.5701 32.8943C20.0531 32.8276 20.5527 32.7277 21.0357 32.5945C21.5021 32.4612 22.0018 32.278 22.4848 32.0782L22.9345 31.8949L23.6173 27.9143L22.4848 28.364C22.085 28.5139 21.6687 28.6638 21.2523 28.7804C20.8525 28.897 20.4861 28.9803 20.153 29.0136C18.7873 29.1801 18.2377 28.9469 18.0211 28.7138C17.7213 28.3973 17.6547 27.6312 17.8379 26.5486L19.3202 18.121Z" fill="black"/>
<path d="M41.0885 34.3599C40.9886 34.3599 40.8886 34.3433 40.7887 34.3266C40.7554 34.3933 40.7554 34.4432 40.7721 34.4765C40.7887 34.5098 40.772 34.5598 40.7054 34.6264C40.7054 34.5931 40.6555 34.5931 40.5722 34.6431C40.4889 34.743 40.4389 34.7264 40.4389 34.5598C40.4056 34.5265 40.3557 34.5265 40.3057 34.5265C40.2391 34.4765 40.1725 34.4432 40.1058 34.4432C40.0226 34.4432 39.9726 34.3766 39.9393 34.26C39.906 34.1934 39.806 34.1434 39.6228 34.1101C39.3397 34.0435 39.2064 33.8603 39.2064 33.5605C39.1731 33.2774 39.1398 33.0109 39.0899 32.761C39.0399 32.4945 38.9899 32.2447 38.9233 32.0115C38.8234 31.5619 38.7901 31.1122 38.7901 30.6791C38.7568 30.2461 38.7568 29.7964 38.7734 29.33C38.7901 28.8637 38.8067 28.3973 38.84 27.9143C38.8733 27.5646 38.89 27.2148 38.89 26.865C38.89 26.5153 38.9067 26.1489 38.94 25.8158C38.9733 25.4993 39.0066 25.1995 39.0399 24.8997C39.0732 24.5999 39.1232 24.2835 39.1731 23.967C39.1731 23.8504 39.1731 23.7172 39.1898 23.5839C39.2064 23.4507 39.2064 23.3175 39.2064 23.1676C39.2064 23.0676 39.1898 23.0177 39.1565 22.9844C39.1232 22.9844 39.0732 23.0177 39.0232 23.1009C38.8733 23.2841 38.7234 23.4674 38.6069 23.6672C38.4736 23.8671 38.3404 24.0503 38.1905 24.2335C38.1239 24.3001 38.1405 24.3501 38.2404 24.3667C38.2738 24.3667 38.2904 24.3834 38.2904 24.4001C38.2904 24.4334 38.2738 24.45 38.2404 24.45C38.2404 24.5833 38.1572 24.6999 38.0073 24.7998C37.8241 24.983 37.6408 25.1662 37.4743 25.3827C37.3077 25.5826 37.1079 25.7824 36.8914 25.9657C36.8247 26.0323 36.7748 26.0989 36.7248 26.1489C36.6748 26.1988 36.6249 26.2655 36.5582 26.3321C36.4916 26.3987 36.475 26.4653 36.5083 26.5319C36.5083 26.5653 36.475 26.6152 36.4084 26.6818C36.1918 26.865 35.992 27.0483 35.8088 27.2481C35.6256 27.448 35.4423 27.6312 35.2425 27.7977C34.8927 28.1475 34.5763 28.4973 34.2598 28.8304C33.9434 29.1635 33.6269 29.4966 33.2771 29.813C33.0939 29.9962 32.9107 30.1461 32.7109 30.2794C32.5277 30.4126 32.3111 30.5292 32.0613 30.6125C31.7782 30.7124 31.495 30.829 31.2285 30.9456C30.9454 31.0788 30.6456 31.1788 30.3458 31.2454C30.1293 31.2787 29.9294 31.3453 29.7462 31.4619C29.5963 31.5452 29.4464 31.5452 29.3298 31.4619C29.2132 31.412 29.1133 31.3953 29.0467 31.3953C28.5803 31.2621 28.1973 31.0622 27.8808 30.7957C27.5311 30.5625 27.2313 30.2794 26.9481 29.9796C26.7316 29.813 26.5984 29.6298 26.5484 29.3967C26.4984 29.1635 26.4818 28.9303 26.4818 28.6805V27.881C26.4818 27.7811 26.4651 27.6978 26.4318 27.5979C26.3985 27.5146 26.3818 27.398 26.3818 27.2814C26.3818 26.5653 26.4818 25.8324 26.665 25.0496C26.7316 24.7665 26.7982 24.4667 26.8815 24.1669C26.9648 23.8671 27.0314 23.5506 27.098 23.2342C27.1646 23.001 27.2146 22.8011 27.2313 22.5846C27.2646 22.3848 27.3145 22.1682 27.3645 21.9351C27.4311 21.8018 27.4811 21.6686 27.4977 21.552C27.5311 21.4188 27.581 21.3022 27.631 21.1689C27.7476 20.7858 27.8642 20.3861 27.9641 20.003C28.064 19.62 28.164 19.2369 28.2972 18.8372C28.5137 18.2875 28.7136 17.7213 28.8968 17.1716C29.08 16.622 29.2965 16.0724 29.5464 15.5061C29.6463 15.2396 29.7296 15.0064 29.8295 14.7899C29.9294 14.5734 30.0127 14.3402 30.1126 14.0737C30.2126 13.9072 30.2958 13.724 30.3958 13.5241C30.4957 13.3243 30.579 13.1244 30.6789 12.9245C30.8288 12.5914 30.9954 12.275 31.1453 11.9585C31.2952 11.6421 31.4617 11.3256 31.6116 10.9925C31.8281 10.5928 32.028 10.2097 32.2112 9.82664C32.3944 9.44357 32.5943 9.07715 32.8108 8.71073C32.9274 8.47756 33.0606 8.26104 33.1772 8.06117C33.2938 7.86131 33.4437 7.66144 33.5936 7.44492C33.8434 7.07851 34.0933 6.69543 34.3597 6.29571C34.6262 5.91263 34.8927 5.52956 35.1759 5.14649C35.3924 4.86335 35.6256 4.59686 35.8587 4.31372C36.0919 4.03058 36.3251 3.78075 36.5749 3.53092C36.7581 3.34771 36.9413 3.1645 37.1079 2.98129C37.2744 2.79809 37.4576 2.59822 37.6408 2.43167C37.8574 2.24846 38.1072 2.06525 38.3903 1.86539H38.4403C38.6568 1.81542 38.84 1.71549 38.9733 1.61556C39.1065 1.49897 39.2564 1.39904 39.4063 1.28245C39.6561 1.09924 39.8893 0.949343 40.1225 0.816101C40.3557 0.699513 40.6055 0.632892 40.8886 0.632892C41.1884 0.632892 41.5049 0.616237 41.8047 0.582926C42.1045 0.566271 42.4209 0.566271 42.7374 0.582926C43.237 0.649547 43.6035 0.932688 43.8533 1.43235C43.9532 1.66552 44.0365 1.91535 44.1364 2.14853C44.2364 2.3817 44.303 2.63153 44.3696 2.86471C44.5528 3.74744 44.4695 4.59686 44.0865 5.41297C43.9699 5.64615 43.8533 5.86267 43.7367 6.06253C43.6201 6.2624 43.5035 6.46226 43.3869 6.66212C43.0705 7.16178 42.754 7.54486 42.4043 7.81134C42.2544 7.92793 42.1045 7.99455 41.9379 8.01121C41.8213 8.06117 41.6381 8.1611 41.3883 8.311C41.3217 8.41093 41.2551 8.4609 41.1551 8.47756C41.1551 8.51087 41.1385 8.52752 41.1052 8.56083C41.0718 8.57749 41.0552 8.56083 41.0552 8.49421C41.0552 8.37762 40.9886 8.34431 40.872 8.42759C40.7221 8.51087 40.5888 8.51087 40.4723 8.4609C40.3723 8.39428 40.2557 8.34431 40.1225 8.29435C40.0226 8.27769 39.9893 8.19441 39.9893 8.07783C39.9893 7.9779 40.0226 7.89462 40.0725 7.81134C40.1391 7.72807 40.1391 7.64479 40.0725 7.56151C40.1058 7.46158 40.1725 7.31168 40.3057 7.11182C40.4056 7.01189 40.5056 6.86199 40.6222 6.64547C40.9553 6.22909 41.2217 5.77939 41.405 5.31304C41.5882 4.84669 41.8047 4.36369 42.0545 3.89734C42.2044 3.63085 42.271 3.36437 42.2544 3.09788C42.2377 2.8314 42.2044 2.56491 42.1378 2.29843C42.0712 2.21515 42.0212 2.16518 41.9546 2.18184C41.6548 2.21515 41.3883 2.31508 41.1718 2.46498C40.8886 2.63153 40.6388 2.81474 40.4056 3.03126C40.1725 3.24778 39.9226 3.44764 39.6395 3.63085L39.5062 3.78075C39.3563 3.98061 39.1731 4.18048 38.9733 4.38034C38.7734 4.58021 38.5735 4.76342 38.3903 4.94662C38.2904 5.04656 38.2238 5.16314 38.1572 5.29639C38.0905 5.42963 38.0239 5.56287 37.974 5.69611C37.9073 5.82936 37.8574 5.94594 37.7907 6.04588C37.7241 6.14581 37.6575 6.24574 37.5576 6.34567C37.3411 6.5955 37.1245 6.94526 36.908 7.41161C36.8414 7.47824 36.8081 7.5282 36.7914 7.56151C36.7748 7.59482 36.7415 7.64479 36.6748 7.71141C36.4916 7.92793 36.3417 8.14445 36.2251 8.39428C36.1086 8.64411 35.992 8.89394 35.8754 9.16042C35.7754 9.42691 35.6755 9.67674 35.5423 9.94323C35.409 10.2097 35.2924 10.4762 35.1759 10.7427C35.0426 11.0092 34.9427 11.259 34.8261 11.5088C34.7095 11.7587 34.5929 12.0085 34.4763 12.275C34.3597 12.5415 34.2265 12.7913 34.1266 13.0245C34.01 13.2576 33.9267 13.5075 33.8767 13.7573C33.7602 14.0571 33.6269 14.3402 33.527 14.64C33.4104 14.9398 33.3105 15.223 33.2272 15.5228C33.1606 15.7226 33.0939 15.9225 33.0107 16.139C32.9274 16.3555 32.8441 16.5387 32.7608 16.7053C32.6942 16.8052 32.6609 16.9052 32.6609 17.0051C32.6609 17.105 32.6276 17.1883 32.561 17.2882C32.4444 17.6213 32.3278 17.9378 32.2612 18.2542C32.1779 18.5707 32.078 18.9038 31.9614 19.2202C31.8948 19.4201 31.8448 19.6033 31.8281 19.7699C31.7948 19.9531 31.7449 20.1363 31.6949 20.3195C31.6283 20.4527 31.595 20.586 31.5783 20.7026C31.5616 20.8358 31.5283 20.9524 31.4617 21.0856C31.3951 21.4354 31.3118 21.7852 31.2119 22.1183C31.0953 22.4514 31.012 22.8011 30.9621 23.1509C30.9621 23.2508 30.9454 23.3341 30.9454 23.434C30.9287 23.534 30.9287 23.6173 30.9287 23.7172C30.8954 24.0669 30.8788 24.4001 30.8621 24.6999C30.8455 25.0163 30.8122 25.3328 30.7455 25.6492C30.7455 25.6825 30.7455 25.6992 30.7289 25.7158C30.7122 25.7325 30.7122 25.7658 30.7122 25.7824C30.6123 25.949 30.579 26.1156 30.5956 26.2821C30.6123 26.4487 30.5956 26.6152 30.579 26.7818C30.579 27.0316 30.579 27.2814 30.579 27.5479C30.579 27.8144 30.5457 28.0809 30.4791 28.3307C30.4791 28.4806 30.5124 28.5805 30.579 28.5972C30.6123 28.6638 30.6456 28.6805 30.6789 28.6805C30.7122 28.6805 30.7455 28.6805 30.7788 28.7138C30.9621 28.847 31.1286 28.8803 31.2952 28.7971C31.4451 28.7138 31.6116 28.6139 31.7615 28.5139C31.9447 28.3307 32.1279 28.1808 32.2945 28.0309C32.461 27.881 32.6442 27.7311 32.8275 27.5479C32.8941 27.5146 32.9274 27.4813 32.944 27.4646C32.9607 27.448 32.994 27.4147 33.0606 27.3814C33.2438 27.1982 33.427 27.0316 33.5936 26.8484C33.7602 26.6652 33.9267 26.4986 34.0766 26.3154C34.3264 25.999 34.5596 25.6992 34.7761 25.3827C34.9926 25.0829 35.2092 24.7665 35.4257 24.4667C35.5756 24.2668 35.7588 24.0503 35.942 23.8504C36.1252 23.6339 36.2918 23.4507 36.4583 23.2675C36.7081 23.0177 36.9247 22.7678 37.1079 22.4847C37.2911 22.2182 37.4743 21.9351 37.6742 21.6686C37.924 21.3022 38.1738 20.9524 38.4403 20.636C38.7068 20.3195 38.9566 20.003 39.2064 19.6533C39.3064 19.52 39.3897 19.4035 39.5062 19.2869C39.6062 19.1869 39.7061 19.0537 39.806 18.9205C39.8727 18.8538 39.906 18.7706 39.906 18.6706C39.9726 18.4208 40.0059 18.171 40.0392 17.9378C40.0725 17.7046 40.1058 17.4548 40.1391 17.205C40.0725 17.2716 40.0059 17.3382 39.906 17.3882C39.806 17.4381 39.7228 17.4548 39.6228 17.4048H39.5729C39.1398 17.7379 38.6235 17.9045 38.0406 17.9211C37.8574 17.9211 37.6908 17.9544 37.5243 18.0377C37.3744 18.121 37.2078 18.2043 37.0579 18.2875C36.9913 18.2875 36.958 18.3375 36.958 18.3875C36.8247 18.5207 36.7081 18.554 36.5916 18.4874C36.5249 18.4708 36.4417 18.4874 36.3084 18.5707C36.0586 18.7539 35.8421 18.7872 35.6589 18.654C35.5423 18.604 35.4423 18.5873 35.3757 18.5873C35.026 18.5374 34.7761 18.4041 34.5763 18.171C34.2931 17.8712 34.3597 17.6213 34.7595 17.4548C35.0093 17.3049 35.2258 17.2216 35.409 17.2383C35.7255 17.205 36.0086 17.1217 36.2751 17.0217C36.5416 16.9052 36.8081 16.7886 37.0912 16.672C37.5243 16.4555 37.9406 16.2723 38.357 16.1057C38.7568 15.9391 39.1731 15.7393 39.6062 15.5394C40.0059 15.3396 40.389 15.123 40.7721 14.9065C41.1551 14.69 41.5382 14.4402 41.9546 14.1737C42.1045 14.0904 42.2544 14.0071 42.3876 13.9072C42.5209 13.8073 42.6708 13.724 42.8373 13.6407C42.8706 13.6074 42.9039 13.5907 42.9372 13.5741C43.1205 13.4908 43.3037 13.4075 43.4702 13.3243C43.6368 13.241 43.82 13.1577 44.0032 13.0744C44.1864 12.9912 44.3196 12.9245 44.3696 12.8912C44.5861 12.7746 44.8026 12.658 45.0025 12.5415C45.2024 12.4249 45.4189 12.3249 45.6354 12.225C45.752 12.1417 45.8686 12.0918 45.9852 12.0585C46.1018 12.0251 46.2183 12.0751 46.3349 12.175C46.4016 12.225 46.4349 12.2916 46.4349 12.3749C46.4349 12.4582 46.4682 12.5248 46.5348 12.5748C46.5348 12.6081 46.5181 12.6414 46.4848 12.6747C46.2683 12.9245 46.1184 13.2077 46.0185 13.5241C45.9019 13.724 45.7687 13.8572 45.6521 13.8905C45.5022 14.0071 45.3523 14.1071 45.2357 14.2236C45.1191 14.3402 44.9858 14.4568 44.8693 14.5901C44.7693 14.69 44.6694 14.7733 44.5362 14.8232C44.253 15.0064 44.1031 15.2563 44.0698 15.5394C44.0698 15.606 44.0531 15.656 44.0198 15.6893C43.8699 16.1057 43.8366 16.5054 43.9199 16.8718C43.9532 16.9551 43.9532 17.0551 43.9199 17.1716C43.8866 17.2882 43.8533 17.4048 43.82 17.5381C43.6701 17.9878 43.5535 18.4374 43.4702 18.8705C43.3869 19.3035 43.3037 19.7366 43.2204 20.1863C43.1538 20.3528 43.1038 20.5194 43.0871 20.7192C43.0538 20.9024 43.0039 21.1023 42.9539 21.3022C42.8873 21.4687 42.854 21.602 42.854 21.7352C42.854 21.8684 42.8373 22.0017 42.804 22.1682C42.804 22.3848 42.804 22.6013 42.7873 22.8011C42.7707 23.001 42.754 23.2175 42.7207 23.434C42.7207 23.7505 42.7041 24.0503 42.6708 24.3667C42.6375 24.6832 42.5875 24.9996 42.5375 25.3161C42.5042 25.4493 42.4876 25.5493 42.4876 25.6492C42.4876 25.7491 42.4709 25.8491 42.4376 25.9823C42.4376 26.2655 42.4209 26.5486 42.4209 26.8484C42.4043 27.1482 42.3876 27.4313 42.3543 27.7145C42.3543 27.9643 42.3543 28.1975 42.3543 28.414C42.3543 28.6305 42.321 28.8637 42.2544 29.1302C42.2211 29.4133 42.2211 29.6965 42.2377 29.9796C42.2544 30.2627 42.2377 30.5292 42.2211 30.7791C42.1878 30.9123 42.1878 31.0122 42.2211 31.1122C42.2544 31.1954 42.271 31.312 42.271 31.4286C42.3043 31.5785 42.321 31.795 42.321 32.0782C42.321 32.2614 42.271 32.4279 42.1878 32.5612C42.1544 32.5945 42.1378 32.6278 42.1378 32.6611C42.1378 32.6944 42.1211 32.7444 42.0878 32.811C42.0878 32.9609 42.0212 33.0442 41.9046 33.0608C41.8713 33.0608 41.8213 33.1441 41.7714 33.3107V33.4939C41.6215 33.6105 41.5382 33.727 41.5382 33.8436C41.5382 33.9602 41.5049 34.1101 41.4383 34.2767V34.4099C41.2884 34.3766 41.1884 34.3599 41.0885 34.3599Z" fill="#E30613"/>
<path d="M54.1462 2.78142C54.3294 2.79808 54.4793 2.69814 54.5626 2.49828C54.5959 2.43166 54.6459 2.36504 54.6959 2.29842C54.8458 2.21514 54.9957 2.09855 55.1455 1.96531C55.2788 1.83207 55.4453 1.73213 55.6286 1.66551C55.8451 1.4823 56.0616 1.33241 56.2781 1.21582C56.4946 1.09923 56.7278 0.965989 56.9776 0.799435C57.2275 0.649537 57.4773 0.516295 57.7271 0.399707C57.977 0.299775 58.2268 0.216499 58.4766 0.183188C58.6265 0.166533 58.7764 0.149877 58.893 0.133222C59.0096 0.116566 59.1595 0.0832558 59.3094 0.0332898C59.5925 -0.0333315 59.8923 -0.0333315 60.1921 0.0166345C60.8417 0.0666005 61.4413 0.299775 61.9576 0.732814C62.1075 0.866057 62.2574 1.03261 62.374 1.24913C62.4906 1.44899 62.6071 1.66551 62.7071 1.91534C62.857 2.21514 62.9569 2.49828 62.9902 2.79808C63.0235 3.09787 63.0735 3.39767 63.1235 3.73077C63.1901 4.19712 63.2234 4.64682 63.2234 5.11317C63.2234 5.57952 63.2234 6.04587 63.2234 6.51221C63.2234 6.91194 63.2067 7.31167 63.1734 7.7114C63.1401 8.11113 63.1068 8.51085 63.0735 8.91058C62.9402 9.92656 62.757 11.0092 62.5072 12.1584C62.324 12.8912 62.1408 13.6074 61.9409 14.3069C61.7577 15.0064 61.5412 15.706 61.2914 16.4221C60.7917 17.7546 60.1588 19.087 59.376 20.3861C59.1262 20.7858 58.8763 21.1856 58.6265 21.5686C58.3767 21.9517 58.1269 22.3348 57.877 22.7179C57.0942 23.9337 56.2115 25.0829 55.2122 26.1655C54.7458 26.6652 54.2628 27.1315 53.7632 27.5812C53.2635 28.0309 52.7472 28.4639 52.2309 28.8637C51.6979 29.2967 51.1649 29.6465 50.6486 29.8963C50.4987 29.9796 50.3821 30.0129 50.3155 29.9796C50.2822 29.9796 50.2655 29.9629 50.2655 29.9463C50.1156 30.0295 49.9824 30.0295 49.8658 29.9796C49.7492 29.913 49.6326 29.863 49.516 29.813C49.2995 29.7464 49.0997 29.6298 48.9165 29.4633C48.8165 29.38 48.7166 29.3134 48.6167 29.2634C48.5001 29.2134 48.4001 29.1468 48.3169 29.0635L48.2669 29.0136C48.2336 29.0136 48.2169 28.9969 48.2169 28.9803C48.067 29.0302 47.9338 29.0302 47.8505 28.9803C47.7506 28.9303 47.6506 28.9136 47.5174 28.9303H47.4674C47.3175 28.7971 47.1343 28.6971 46.9511 28.6472C46.7679 28.5972 46.6014 28.4973 46.4348 28.364C46.3349 28.2474 46.2516 28.1475 46.1517 28.0642C46.0517 27.9809 45.9685 27.881 45.8685 27.7644L45.5854 27.5146C45.4355 27.4646 45.2856 27.3314 45.169 27.0982C45.0191 26.7984 44.8859 26.5153 44.7693 26.2155C44.6693 25.9157 44.5361 25.5992 44.4195 25.2828V25.0496C44.4195 24.933 44.3862 24.8664 44.3196 24.883C44.2863 24.8497 44.2696 24.8164 44.2696 24.7498V24.5166C44.3029 24.3501 44.3029 24.2002 44.2696 24.0503C44.2363 23.9004 44.2363 23.7505 44.2696 23.5839C44.2696 23.434 44.2196 23.3174 44.1364 23.2675C44.0364 23.2175 43.9865 23.1509 43.9698 23.0843C43.9532 23.001 43.9365 22.9177 43.9032 22.8344C43.9032 22.6845 43.9032 22.518 43.8865 22.3514C43.8699 22.1849 43.8865 22.0183 43.9032 21.8518C43.9365 21.6852 43.9532 21.5353 43.9698 21.3688C43.9865 21.2189 44.0031 21.0523 44.0364 20.8858C44.1863 20.3361 44.2863 19.8032 44.3196 19.2702C44.3529 18.7372 44.4695 18.1709 44.686 17.588C44.7526 17.3715 44.8192 17.1383 44.9025 16.9385C44.9858 16.7219 45.0524 16.4888 45.119 16.2389C45.1523 16.1057 45.169 16.0058 45.1857 15.9058C45.2023 15.8059 45.219 15.706 45.2523 15.5727C45.4022 14.9565 45.6353 14.3402 45.9518 13.7073C46.0184 13.5408 46.1017 13.3742 46.2016 13.2077C46.3016 13.0411 46.4182 12.8746 46.5014 12.708C46.568 12.5748 46.618 12.4582 46.6846 12.3416C46.7513 12.225 46.8012 12.1251 46.8678 12.0085C46.9345 11.8752 47.0011 11.742 47.0844 11.6087C47.1676 11.4755 47.2509 11.3589 47.3342 11.259L47.6173 10.8093C47.684 10.6427 47.7672 10.4928 47.8672 10.3596C47.9838 10.2264 48.0837 10.0765 48.167 9.9099C48.2336 9.69338 48.3169 9.56014 48.4501 9.54349C48.4834 9.44355 48.5334 9.36028 48.5833 9.277C48.65 9.19372 48.6999 9.11045 48.7666 9.04383C48.8831 8.84396 49.0164 8.66075 49.133 8.47754C49.2496 8.31099 49.3828 8.12778 49.4994 7.91126C49.566 7.84464 49.616 7.79468 49.6659 7.74471C49.7159 7.7114 49.7159 7.66143 49.6826 7.59481L49.7825 7.49488C49.8991 7.47822 49.9657 7.42826 49.9657 7.32833C49.999 7.22839 50.049 7.14512 50.1323 7.04519C50.2156 6.96191 50.2822 6.86198 50.3488 6.76204L50.4487 6.66211C50.5154 6.49556 50.582 6.36232 50.6819 6.24573C50.7818 6.12914 50.8651 5.9959 50.9651 5.86266C51.0317 5.72941 51.0983 5.59617 51.1982 5.46293C51.2982 5.32969 51.3981 5.19644 51.5313 5.04655C51.6313 4.94661 51.6979 4.81337 51.7645 4.64682C51.7978 4.5802 51.8644 4.51357 51.9977 4.4303L52.0976 4.41364V4.51357C52.1642 4.48026 52.2309 4.39699 52.3141 4.29706C52.3974 4.19712 52.4474 4.11385 52.4807 4.04723C52.4807 3.9806 52.4973 3.93064 52.5473 3.89733C52.5973 3.86402 52.6306 3.83071 52.6639 3.7974C52.7638 3.69746 52.8471 3.58088 52.947 3.48094C53.047 3.38101 53.1469 3.28108 53.2801 3.21446C53.3801 3.14784 53.48 3.08122 53.5799 3.01459C53.6799 2.94797 53.7798 2.88135 53.8298 2.76476C53.8298 2.73145 53.8464 2.7148 53.8797 2.68149C53.9131 2.66483 53.9297 2.63152 53.9297 2.59821C53.8964 2.54825 53.9297 2.46497 54.0296 2.34838C54.1462 2.23179 54.2795 2.16517 54.3961 2.11521C54.5126 2.06524 54.6625 1.99862 54.8124 1.91534C54.8458 1.98196 54.8458 2.01527 54.8124 2.03193C54.7791 2.04859 54.7458 2.0819 54.7125 2.11521C54.5293 2.2651 54.3627 2.415 54.2462 2.54825C54.1296 2.63152 54.063 2.7148 54.063 2.79808L53.9297 2.81473V2.91466C53.9297 2.94797 53.963 2.96463 54.0296 2.94797C54.0629 2.91466 54.0629 2.88135 54.0296 2.84804L54.1462 2.78142ZM45.1024 26.3321C45.1024 26.1822 45.0691 25.9656 45.0024 25.6992C44.9358 25.4327 44.8859 25.2661 44.8192 25.2162C44.8525 25.3994 44.8692 25.5992 44.8692 25.7991C44.8692 25.9823 44.9525 26.1655 45.1024 26.3321ZM59.6591 3.9806C59.6591 4.04723 59.6258 4.08054 59.5592 4.08054C59.4926 4.08054 59.4593 4.06388 59.4593 3.99726C59.4926 3.86402 59.5092 3.71412 59.5092 3.53091C59.5759 3.33105 59.5592 3.18115 59.4593 3.06456C59.3927 3.01459 59.3593 2.96463 59.3593 2.93132C59.3593 2.8647 59.3094 2.81473 59.2261 2.76476C58.943 2.68149 58.6099 2.68149 58.1935 2.79808C58.1269 2.79808 58.0769 2.81473 58.0103 2.84804C57.9436 2.8647 57.8937 2.8647 57.8271 2.84804C57.7271 2.83139 57.6438 2.84804 57.5439 2.88135C57.444 2.93132 57.3774 2.96463 57.3107 2.99794C57.2441 3.06456 57.1775 3.11453 57.1275 3.13118C57.0609 3.14784 57.0109 3.18115 56.9443 3.23111C56.6612 3.39767 56.4114 3.56422 56.1782 3.76408C55.945 3.96395 55.7118 4.16381 55.4953 4.38033C55.1789 4.69678 54.8957 5.02989 54.6126 5.37965C54.3294 5.72941 54.0463 6.06252 53.7798 6.41228C53.43 6.82867 53.1136 7.24505 52.8305 7.67809C52.5307 8.11113 52.2642 8.54417 52.0143 9.01051C51.7645 9.44355 51.548 9.87659 51.3648 10.3096C51.1816 10.7427 50.9817 11.1757 50.7652 11.6421C50.5487 12.0751 50.3488 12.4915 50.1823 12.9079C50.0157 13.3242 49.8158 13.7406 49.5993 14.1737C49.3828 14.6733 49.2162 15.123 49.083 15.5394C48.9831 15.8892 48.8998 16.2223 48.8332 16.5554C48.7499 16.8718 48.65 17.2216 48.5334 17.5714C48.3835 17.9711 48.2669 18.4208 48.2003 18.9704C48.1336 19.2202 48.0837 19.4867 48.067 19.7366C48.0337 19.9864 47.9837 20.2362 47.9338 20.5027C47.8672 20.7525 47.8172 21.019 47.8005 21.2855C47.7672 21.552 47.7339 21.8351 47.7006 22.1183C47.7006 22.468 47.684 22.8011 47.684 23.1509C47.6673 23.5007 47.684 23.8338 47.7506 24.1669C47.7839 24.5 47.8505 24.8164 47.9838 25.1162C48.0171 25.2661 48.0504 25.3994 48.1003 25.4993C48.1503 25.5992 48.2003 25.6992 48.2669 25.7824C48.3335 25.899 48.3835 25.949 48.4501 25.949C48.55 25.899 48.6333 25.8824 48.7332 25.8657C48.8332 25.8491 48.9164 25.8157 49.0164 25.7325C49.133 25.6492 49.2662 25.5992 49.3828 25.5493C49.4994 25.4993 49.6326 25.4493 49.7492 25.3661C49.8492 25.3161 49.9491 25.2661 50.0823 25.1828C50.2322 25.0996 50.3655 25.0163 50.4487 24.933C50.5487 24.8497 50.6653 24.7665 50.8152 24.6832C50.9651 24.5999 51.115 24.5166 51.2315 24.4167C51.3481 24.3168 51.4814 24.2168 51.598 24.1169C51.9644 23.8171 52.3141 23.484 52.6472 23.1176C52.9804 22.7512 53.2968 22.3848 53.5966 22.0017C53.7465 21.7685 53.9297 21.5353 54.1129 21.3355C54.2961 21.1189 54.4627 20.8858 54.6292 20.6193C54.7791 20.3528 54.9623 20.0863 55.1622 19.8365C55.3621 19.5867 55.5453 19.3202 55.6952 19.0537C55.945 18.6873 56.1615 18.3042 56.378 17.9211C56.5779 17.538 56.7778 17.155 56.961 16.7552C57.0776 16.4888 57.1942 16.2223 57.2941 15.9391C57.394 15.656 57.5106 15.3895 57.6605 15.123C57.7271 14.9898 57.7604 14.9065 57.7604 14.8732C57.877 14.6067 57.9936 14.3402 58.0935 14.0571C58.1935 13.7739 58.2768 13.4908 58.3767 13.2077C58.4433 12.9911 58.5099 12.758 58.5932 12.5581C58.6765 12.3416 58.7431 12.1084 58.8097 11.8586C58.843 11.7586 58.893 11.5921 58.943 11.3256C59.0096 11.1257 59.0596 10.9425 59.1262 10.7427C59.1928 10.5428 59.2428 10.3596 59.2594 10.1597C59.326 9.9099 59.3927 9.62676 59.4759 9.34362C59.5592 9.06048 59.6258 8.77734 59.6925 8.52751C59.7258 8.39427 59.7591 8.27768 59.7924 8.14444C59.8257 8.0112 59.8757 7.87795 59.9256 7.76136C60.0256 7.59481 60.0755 7.42826 60.1088 7.27836C60.1421 7.11181 60.1921 6.96191 60.2421 6.79536C60.3087 6.59549 60.3753 6.41228 60.4586 6.21242C60.5419 6.01255 60.5585 5.82935 60.5252 5.64614C60.5252 5.61283 60.5419 5.57952 60.5752 5.54621C60.6085 5.51289 60.6252 5.42962 60.6252 5.31303C60.5918 5.26306 60.5752 5.12982 60.5752 4.94661C60.5752 4.83003 60.5585 4.71344 60.5252 4.59685C60.4919 4.49692 60.4586 4.39699 60.4253 4.29706C60.392 4.33037 60.3753 4.36368 60.3753 4.39699C60.3753 4.4303 60.3587 4.48026 60.3254 4.54689C60.2921 4.71344 60.2088 4.94661 60.0922 5.27972C60.0256 5.44627 59.9589 5.49624 59.859 5.44627C59.7924 5.39631 59.7591 5.41296 59.7591 5.51289C59.7258 5.54621 59.7091 5.57952 59.7091 5.59617C59.7091 5.61283 59.6925 5.64614 59.6591 5.67945C59.6258 5.64614 59.6425 5.57952 59.7091 5.44627C59.7424 5.31303 59.7757 5.19644 59.809 5.07986C59.8424 4.96327 59.859 4.83003 59.859 4.68013C59.7924 4.59685 59.7924 4.49692 59.859 4.39699C59.9256 4.26374 59.8923 4.19712 59.7591 4.18047V4.08054C59.7591 4.04723 59.7258 4.01391 59.6591 3.94729V3.9806V3.9806ZM59.7924 2.98128C59.859 3.03125 59.8923 3.08122 59.909 3.13118C59.9256 3.18115 59.9589 3.21446 60.0256 3.23111C59.9423 3.08122 59.859 2.99794 59.7924 2.98128ZM60.3587 2.11521C60.3587 1.89869 60.2088 1.81541 59.8923 1.84872C59.9923 1.99862 60.1421 2.0819 60.3587 2.11521ZM60.5918 3.11453C60.5585 3.06456 60.4753 2.96463 60.3587 2.8647C60.3587 2.99794 60.4419 3.08122 60.5918 3.11453ZM60.5918 4.04723C60.6252 3.9806 60.6252 3.91398 60.5918 3.83071C60.5585 3.76408 60.5752 3.68081 60.6418 3.61419C60.6751 3.58088 60.6585 3.53091 60.5918 3.48094C60.5585 3.43098 60.5419 3.41432 60.5252 3.46429C60.5086 3.51425 60.4753 3.53091 60.4086 3.4976V3.63084C60.4586 3.83071 60.5252 3.96395 60.5918 4.04723ZM60.875 4.66347C60.875 4.73009 60.8583 4.78006 60.825 4.81337C60.7917 4.84668 60.8084 4.89665 60.875 4.94661V4.66347V4.61351C60.9083 4.44695 60.9083 4.33037 60.875 4.21378C60.8417 4.11385 60.8084 3.9806 60.7751 3.83071C60.7751 3.73077 60.7417 3.73077 60.6751 3.7974C60.6418 3.96395 60.6418 4.09719 60.6751 4.21378C60.7084 4.33037 60.7584 4.46361 60.8084 4.61351C60.825 4.66347 60.8417 4.68013 60.875 4.66347Z" fill="#E30613"/>
<path d="M42.2378 39.6564L42.2878 39.623C42.2545 39.623 42.2545 39.6397 42.2378 39.6564Z" fill="#E72631"/>
<path d="M49.1831 39.5898C49.1831 39.6064 49.1831 39.6064 49.1831 39.5898C49.2164 39.6064 49.2664 39.6064 49.3663 39.6064L49.1831 39.5898Z" fill="#E72631"/>
<path d="M33.011 40.3559L33.061 40.3392C33.0276 40.3392 33.011 40.3392 33.011 40.3559Z" fill="#E72631"/>
<path d="M38.4738 39.9229C38.4572 39.9395 38.4239 39.9562 38.4072 39.9562C38.4405 39.9562 38.4738 39.9562 38.4738 39.9229Z" fill="#E72631"/>
<path d="M50.5989 40.5391L50.5156 40.4725C50.5323 40.5058 50.5656 40.5391 50.5989 40.5391Z" fill="#E72631"/>
<path d="M52.1811 39.9229C52.1645 39.9229 52.1312 39.9395 52.1145 39.9562C52.1312 39.9562 52.1811 39.9395 52.1811 39.9229Z" fill="#E72631"/>
<path d="M52.0645 39.9728L52.0978 39.9561C52.0811 39.9561 52.0645 39.9561 52.0645 39.9728Z" fill="#E72631"/>
<path d="M0.316212 48.2838C0.24959 48.3005 0.199624 48.3837 0.149658 48.4504L0.316212 48.2838Z" fill="#E72631"/>
<path d="M24.6997 41.605L24.7164 41.5717C24.6997 41.5884 24.6997 41.605 24.6997 41.605Z" fill="#E72631"/>
<path d="M49.2329 40.7889C49.1663 40.8555 48.9998 40.7889 48.9998 40.8555C49.083 40.8388 49.1996 40.8888 49.2329 40.7889Z" fill="#E72631"/>
<path d="M23.434 44.4199L23.384 44.4365C23.4007 44.4199 23.4173 44.4199 23.434 44.4199Z" fill="#E72631"/>
<path d="M0.432861 48.8834H0.499482C0.482827 48.8667 0.482827 48.8667 0.466172 48.8667C0.466172 48.8667 0.449517 48.8667 0.432861 48.8834Z" fill="#E72631"/>
<path d="M16.1223 43.3205L16.139 43.3039L16.1223 43.3205Z" fill="#E72631"/>
<path d="M15.656 43.3205C15.6893 43.3038 15.7226 43.2872 15.7393 43.2705C15.6893 43.2872 15.6727 43.3038 15.656 43.3205Z" fill="#E72631"/>
<path d="M0.149737 48.4503L0.0498047 48.5503C0.0997707 48.5169 0.116426 48.4836 0.149737 48.4503Z" fill="#E72631"/>
<path d="M10.8091 44.603C10.8257 44.603 10.8424 44.5864 10.859 44.5864C10.8257 44.5864 10.8257 44.603 10.8091 44.603Z" fill="#E72631"/>
<path d="M38.8403 39.9229C38.857 39.9229 38.8736 39.9229 38.8903 39.9395C38.8736 39.9229 38.8736 39.9062 38.8403 39.9229Z" fill="#E72631"/>
<path d="M35.7923 41.9714C35.7257 41.9714 35.659 42.0214 35.6257 42.0714C35.6757 42.0714 35.7423 42.0547 35.7923 41.9714Z" fill="#E72631"/>
<path d="M38.174 41.8881C38.1573 41.8715 38.1407 41.8715 38.124 41.8715C38.1407 41.8881 38.1573 41.8881 38.174 41.8881Z" fill="#E72631"/>
<path d="M26.7817 44.0201C27.4479 43.8535 28.314 43.6037 28.9802 43.5371C29.0968 43.3705 29.3133 43.3372 29.5298 43.2706L29.5798 43.4538L29.7464 43.3705C29.8296 43.4205 29.6131 43.4205 29.7464 43.4704L29.7963 43.3538C29.813 43.4205 30.2627 43.3205 29.9795 43.5037L30.6791 43.4038C30.829 43.3872 30.7457 43.2373 30.9289 43.2539C30.9788 43.3039 30.8789 43.3039 30.8956 43.3705C31.4285 43.4205 31.4285 42.9208 31.9282 42.9375L31.8949 42.9708C31.9615 42.9042 32.1281 42.9042 32.1281 42.8708C32.0448 42.7043 32.0614 42.9874 31.8949 42.8875C31.8782 42.7376 32.0614 42.7709 32.0448 42.671C32.1614 42.7043 32.2113 42.621 32.3113 42.5877C32.4945 42.671 32.7277 42.5711 32.8609 42.671C32.9275 42.6044 33.0108 42.4545 33.1774 42.4212C33.3273 42.5211 33.1607 42.5377 33.3439 42.571L33.3606 42.4711C33.5105 42.4711 33.4771 42.4878 33.4771 42.5377C33.627 42.5211 33.5771 42.4045 33.7769 42.4378L33.677 42.5377C33.8103 42.4878 33.8769 42.4878 34.0601 42.4711C34.0601 42.5211 33.9768 42.5377 33.9268 42.5211C34.0434 42.6377 34.0934 42.4378 34.16 42.4545C34.1434 42.4211 34.0101 42.4212 34.0601 42.3212C34.16 42.3212 34.2433 42.1713 34.3266 42.2713L34.2266 42.3712C34.4098 42.2713 34.3266 42.2379 34.5597 42.2546C34.5431 42.2713 34.5597 42.2879 34.5597 42.3046C34.693 42.1713 34.8929 42.2546 35.1094 42.2379L35.0761 42.2713C35.1593 42.2379 35.1926 42.138 35.2426 42.138C35.1094 42.1047 35.1427 42.0714 35.126 41.9881C35.3092 42.1214 35.3592 41.7882 35.6257 41.8382C35.6257 41.8882 35.5757 41.9548 35.4924 41.9215C35.4258 42.088 35.4258 42.2213 35.2759 42.3046C35.3759 42.2546 35.4924 42.2213 35.4758 42.2879L35.4924 42.138C35.5591 42.1214 35.609 42.1214 35.6423 42.1214C35.659 42.0214 35.5091 41.9881 35.6423 41.9215C35.7922 41.8549 35.7423 42.0547 35.7589 41.9881C35.9754 41.9048 35.8256 41.8216 36.0421 41.8382C36.0254 41.8549 35.9921 41.8882 35.9588 41.8715C36.1087 41.9048 36.3252 41.8049 36.3918 41.9715C36.3752 42.0048 36.3752 42.0714 36.3252 42.0547V42.0214C36.1753 42.1713 36.4585 41.9715 36.4251 42.138C36.4085 42.0547 36.625 42.0381 36.7083 42.0381L36.6583 41.9381C36.9415 41.5884 36.6583 42.1547 36.9748 42.0714C37.1746 41.9715 36.8915 42.0547 37.0081 41.9715C37.1413 41.9715 37.2079 42.0714 37.3912 42.0048C37.4578 42.0381 37.5744 42.088 37.591 42.2046C37.7076 42.138 37.9574 42.2213 38.0241 42.1047C37.8075 42.0214 37.8408 42.2546 37.5744 42.1214L37.6243 42.0048C37.7909 41.9881 37.9907 41.9215 38.124 41.9381C38.0907 41.9215 38.0907 41.8882 38.0907 41.8715C38.3239 41.8049 38.3738 41.6883 38.607 41.6883C38.6403 41.7883 38.5071 41.7882 38.4071 41.8049C38.557 41.8715 38.557 41.7882 38.7902 41.8049C38.8069 41.8882 38.6403 41.8216 38.6236 41.9048L38.8735 41.8549V41.8715C38.8901 41.7216 39.0733 41.8715 39.2232 41.8049C39.5897 41.7716 39.623 41.5551 39.8228 41.4218C39.8895 41.4551 39.9061 41.4885 39.8895 41.5384C39.7895 41.4718 39.8062 41.5384 39.7895 41.5717C39.9061 41.5384 40.0727 41.6883 40.0227 41.7549C40.2226 41.6883 39.9394 41.6883 40.056 41.6217L40.3225 41.605C40.2892 41.5218 40.1893 41.5218 40.3225 41.4551C40.4391 41.4218 40.5057 41.4385 40.6556 41.4218C40.6389 41.4551 40.7222 41.5384 40.6056 41.5384C40.6889 41.5551 40.8055 41.5551 40.8388 41.4718C40.6556 41.4218 41.1053 41.3719 40.9721 41.2719L41.1553 41.3219C41.1219 41.3219 41.1219 41.3719 41.0553 41.3719C41.1219 41.4885 41.1886 41.3219 41.2552 41.3052C41.3218 41.3219 41.4717 41.3219 41.4884 41.3552C41.5383 41.3219 41.6716 41.3219 41.7049 41.3885C41.7882 41.3552 41.7049 41.3052 41.7215 41.2719L41.988 41.2553C42.0047 41.3219 42.0546 41.5051 42.0047 41.5218C42.1046 41.4551 42.0213 41.3219 42.1712 41.3219C42.088 41.4551 42.3878 41.4052 42.2712 41.5717C42.3711 41.655 42.6209 41.6384 42.7542 41.5884C42.8375 41.4885 42.6043 41.5384 42.6043 41.4385C42.9873 41.3719 42.9873 41.0887 43.2871 41.122L43.2039 41.1054C43.3871 41.0388 43.3538 41.0554 43.4537 40.9555C43.4204 41.0887 43.6869 41.2886 43.9867 41.2386C44.0033 41.172 43.8035 41.122 43.8534 41.0221L44.0533 40.9888C44.0699 41.0055 44.0533 41.0221 44.02 41.0388C44.1865 40.9721 44.3531 41.1887 44.4031 41.0221L44.6029 41.1887L44.5196 41.1054C44.5363 41.0388 44.7362 41.0055 44.7695 40.9721C44.9693 40.8889 45.036 40.9388 45.1525 41.0054C45.1192 40.9555 45.0193 40.8389 45.1692 40.8056C45.1859 41.0221 45.5023 40.8556 45.519 40.9721C45.5856 40.9721 45.7022 41.0221 45.7022 40.9388V41.0721C45.7022 40.8889 45.9353 40.8889 46.1185 40.8389C46.1019 41.0887 46.3184 40.8056 46.4017 41.0221C46.4183 40.8556 46.7181 40.9388 46.7348 40.7889C46.868 40.7723 46.868 40.9222 46.9014 40.9721L46.968 40.9055C47.0346 40.9721 47.3011 40.9721 47.451 41.0054L47.5842 40.8556L47.6342 40.9222C47.6508 40.8889 47.7674 40.8556 47.7008 40.8056H47.7841C47.7841 40.639 47.884 40.7556 48.0339 40.6723C48.0672 40.689 48.0672 40.739 48.0339 40.7556C48.1172 40.7556 48.0839 40.8389 48.1338 40.8889C48.0839 40.8556 48.4003 40.5891 48.1838 40.5224C48.1672 40.4558 48.2837 40.4059 48.367 40.4225L48.417 40.5724L48.5003 40.4225C48.6169 40.3892 48.6668 40.4891 48.7667 40.5058C48.6668 40.5224 48.5669 40.7889 48.8167 40.7723C48.6835 40.7889 48.6168 40.8889 48.5502 40.9222C48.6002 40.9222 48.6335 40.9388 48.5502 41.0054C48.7501 40.9555 48.6168 40.9055 48.8001 40.8889C48.8001 41.0221 48.85 41.0554 49.0332 41.0887L48.9 41.0054C48.9 40.9888 48.9166 40.9721 48.9166 40.9721C48.8667 40.9555 48.85 40.9388 48.8334 40.8889C48.8667 40.8889 49.0499 40.7223 49.0832 40.7889C48.8667 40.5891 49.4163 40.6224 49.2831 40.5058C49.2997 40.4725 49.433 40.4558 49.4663 40.5224C49.2997 40.6224 49.5995 40.6723 49.5829 40.7556C49.6495 40.7223 49.4496 40.6723 49.5329 40.6057C49.6328 40.5891 49.6994 40.6723 49.7661 40.7057L49.7328 40.739L49.8827 40.7889C49.8993 40.7223 49.7328 40.689 49.866 40.639C49.8993 40.6723 50.0492 40.6224 50.0326 40.6723C49.9659 40.7723 50.0326 40.8722 49.8993 40.9055C49.9992 40.8889 50.3157 40.8556 50.1824 40.739H50.299C50.2158 40.689 50.0159 40.6057 50.2491 40.5724V40.6057L50.4156 40.5058L50.4822 40.5724C50.4822 40.5391 50.4989 40.5058 50.5655 40.5058C50.5822 40.5391 50.6488 40.5558 50.6321 40.6057C50.8154 40.5891 50.7987 40.5224 50.8154 40.4891C50.9153 40.4725 50.9486 40.5058 50.9153 40.5724C51.0485 40.5891 51.2817 40.5558 51.3816 40.6224C51.5648 40.5558 51.3483 40.5891 51.4483 40.5058C51.6148 40.7223 52.0478 40.5724 52.3476 40.5224C52.2644 40.3226 52.4309 40.4891 52.4809 40.3059C52.4143 40.3725 52.764 40.4392 52.5142 40.5058L52.6641 40.4725C52.7807 40.5724 52.4143 40.5724 52.5808 40.7057C52.764 40.689 52.864 40.4725 53.0805 40.5391C53.0139 40.689 53.247 40.4891 53.1971 40.639C53.1638 40.689 53.0971 40.6723 53.0305 40.689L53.0638 40.7223C53.4469 40.739 53.1638 40.5558 53.3636 40.4392C53.5968 40.4059 53.5468 40.5391 53.5635 40.6057C53.5968 40.639 53.7134 40.6057 53.78 40.5724C53.6468 40.6723 53.5135 40.4891 53.5801 40.4059C53.6967 40.5558 53.9299 40.4059 53.9965 40.3392C53.6468 40.1893 53.7633 40.3392 53.4302 40.1727C53.3803 40.2227 53.3969 40.3725 53.2137 40.3226C53.3303 40.2393 53.1971 40.2393 53.1638 40.2227C53.1971 40.3059 53.0305 40.256 52.9805 40.3059C52.9306 40.2393 53.0805 40.1061 52.8973 40.0894L52.864 40.2893C52.7807 40.256 52.8973 40.1394 52.7307 40.206C52.814 40.1061 52.6974 40.0561 52.9139 40.0061C52.6474 39.8562 52.5142 40.1061 52.3143 40.1893C52.331 40.1727 52.331 40.156 52.3476 40.1394C52.3143 40.1893 52.2311 40.1893 52.1644 40.206C52.0312 40.1727 52.2644 40.1061 52.2311 40.0561L52.0145 40.0728V40.0561C51.9646 40.0894 51.898 40.1061 51.8813 40.0561C51.9479 39.9895 51.9646 39.9229 52.0145 39.8729L51.798 40.0228C51.8147 39.9562 51.5982 39.9229 51.7647 39.8729L51.4316 39.9229L51.3983 39.7896C51.315 39.8229 51.315 39.8396 51.4149 39.8562C51.2984 39.8396 50.9153 40.1061 50.9653 39.8396C50.6988 39.9562 50.6155 39.9229 50.299 40.0061C50.5322 39.8729 50.0159 39.8729 50.2657 39.8063C50.1158 39.7563 50.0825 39.9062 49.9659 39.9229C49.8493 39.8729 49.8993 39.7396 50.0159 39.6897L49.8827 39.7563V39.723L49.7661 39.8063C49.6328 39.7396 49.7328 39.673 49.5995 39.6564L49.5829 39.773L49.4829 39.7063C49.5162 39.7563 49.433 39.7896 49.3497 39.8063V39.773L49.2331 39.8063C49.3497 39.723 49.1165 39.7896 49.1665 39.7063C49.0665 39.7063 49.0665 39.7063 48.8833 39.7396L48.9166 39.8229C48.6835 39.9062 48.9 39.7063 48.7001 39.7063L48.7168 39.7896C48.4336 39.6564 48.2504 39.9062 48.0339 39.8063C48.1505 39.773 48.1172 39.673 48.1172 39.7063C47.934 39.7396 47.6508 39.7396 47.4676 39.8729C47.3844 39.7396 47.3677 39.7063 47.1845 39.6564C47.0512 39.673 47.0346 39.6897 46.9846 39.773C46.8514 39.7396 46.6016 39.8229 46.5849 39.723C46.5516 39.8063 46.4683 39.723 46.385 39.7896L46.3684 39.7563L46.385 39.8396C46.1352 39.6564 45.9853 39.9895 45.7355 39.8229L45.7688 39.7896L45.6689 39.8396C45.6522 39.8063 45.6855 39.773 45.6855 39.723L45.2192 39.7396L45.3191 39.8063C45.2192 39.8229 45.1525 39.9229 45.036 39.8729C45.2192 39.723 44.8861 39.8729 44.8361 39.773L44.936 39.723C44.8028 39.7396 44.8028 39.7396 44.8194 39.8396C44.6362 39.8895 44.6862 39.673 44.5196 39.7896H44.6362C44.6695 39.8396 44.6029 39.9229 44.5196 39.9229C44.503 39.9062 44.4364 39.8729 44.503 39.8562C44.3697 39.9062 44.1532 39.8729 44.0866 39.9062C44.0033 39.8895 44.02 39.8229 44.0699 39.7896C43.7701 39.8895 43.9367 39.7896 43.6369 39.8895V39.8396L43.537 39.9062L43.3871 39.8063L43.4537 39.8729C43.3538 39.8895 43.3038 39.9229 43.1706 39.9062L43.2039 39.8229C42.9207 39.8895 42.8708 39.723 42.6209 39.8396C42.6043 39.8229 42.6376 39.8063 42.6542 39.7896C42.4211 39.9229 42.4544 39.673 42.2212 39.8396C42.2379 39.8063 42.2045 39.7896 42.2045 39.7563L42.088 39.8229V39.723L42.0047 39.8895L41.9214 39.7896L41.8881 39.8396C41.7549 39.6564 41.5883 39.8229 41.4217 39.6897L41.4551 39.8229C41.072 40.1394 40.489 39.773 40.006 39.9395V39.8396L39.8062 39.9895C39.6896 39.9229 39.8561 39.8895 39.8228 39.8396C39.6063 39.9229 39.7396 40.0061 39.4897 40.0561C39.3565 40.0061 39.523 39.9728 39.5897 39.9395C39.3565 40.0228 39.0067 40.1061 38.8235 40.0728C38.8235 40.0894 38.8069 40.1061 38.8235 40.1061C38.6736 40.1727 38.4571 40.1394 38.2739 40.1727C38.2739 40.1227 38.3239 40.1061 38.3572 40.1061C38.2905 40.1061 38.2073 40.0894 38.1573 40.1394L38.2073 40.0394C38.074 40.0394 37.8075 40.1394 37.7742 40.0394C37.7909 40.0728 37.7909 40.156 37.6743 40.156C37.591 40.0061 37.3578 40.256 37.158 40.1893C37.1746 40.156 37.3079 40.1227 37.2746 40.1227C37.1746 40.0894 37.0914 40.1727 37.0247 40.2227L37.0414 40.156L36.6084 40.2893C36.5251 40.1394 36.192 40.3725 36.2086 40.2393C36.0587 40.256 36.3419 40.2893 36.1587 40.3392C36.092 40.2726 35.9754 40.3892 35.9754 40.2893L35.9921 40.2726L35.8589 40.3059L35.9421 40.1893C35.8256 40.2227 35.7423 40.3392 35.7589 40.4225C35.6423 40.3725 35.4924 40.4392 35.4258 40.3559L35.4591 40.3226C35.1427 40.4059 34.8929 40.1061 34.6763 40.3226C34.6597 40.3059 34.6597 40.2893 34.693 40.2893L34.4931 40.3059L34.5264 40.2227L34.21 40.3892V40.3392C33.9935 40.3392 33.6604 40.4225 33.3939 40.4725L33.4272 40.4392C33.144 40.5558 33.1274 40.4225 32.9109 40.5058C32.9109 40.4891 32.9275 40.4891 32.9275 40.4891L32.7277 40.5224L32.761 40.4725C32.6277 40.6057 32.3279 40.3892 32.4279 40.4558C32.3446 40.5224 32.2113 40.5891 32.1947 40.6557C31.9782 40.689 32.1281 40.5891 31.9948 40.5724C31.8449 40.5891 31.8283 40.6723 31.6118 40.6557V40.6057C31.5118 40.6224 31.4619 40.6723 31.3286 40.7057L31.3619 40.6723C31.1454 40.8222 31.0621 40.5558 30.9122 40.8222C30.8123 40.7889 30.6457 40.8556 30.6291 40.7556C30.3626 40.8722 30.1461 40.9222 29.8796 41.0221C29.813 40.8556 29.8296 41.0388 29.6464 40.9721L29.6797 41.0554C29.2967 41.122 28.797 40.9721 28.3806 41.0721L28.3473 40.9888L28.2807 41.1054C27.8143 41.1387 27.1981 41.1887 26.8317 41.2553C26.7151 41.3219 26.5485 41.4718 26.3487 41.4718L26.3653 41.4551C26.0322 41.5717 25.6991 41.6717 25.316 41.6883C25.3327 41.6384 25.2994 41.6217 25.3327 41.5884C25.2661 41.705 25.1162 41.6384 25.0329 41.6384L25.1328 41.6883C25.0495 41.7883 24.883 41.7383 24.8164 41.6883L24.6665 41.8216C24.6498 41.8216 24.6332 41.8049 24.6332 41.7882L24.6165 41.8382L24.4999 41.7383C24.4666 41.7716 24.2501 41.8382 24.2001 41.9715C24.1835 41.9381 24.0169 41.9381 24.1335 41.8882L23.5339 41.9548L23.6338 41.9881C23.6672 42.0714 23.5006 42.1713 23.384 42.138C23.5006 42.0381 23.3674 42.0048 23.3007 41.9548C23.2341 42.0214 23.384 42.0214 23.3507 42.0714C23.2674 42.1547 23.0509 42.2213 22.9843 42.188L23.0343 42.138C22.901 42.188 22.8011 42.0547 22.6678 42.088C22.5512 42.188 22.4513 42.138 22.5013 42.2879C22.3347 42.3545 22.418 42.188 22.3514 42.188C22.2848 42.2713 22.0183 42.2879 21.985 42.2046C21.935 42.4545 21.4853 42.2213 21.4853 42.4212L21.3188 42.3379C21.3188 42.3878 21.3188 42.5044 21.2022 42.5544C21.0856 42.5211 21.0856 42.4212 21.0523 42.3878L21.019 42.5877C20.3361 42.5211 19.52 42.8209 18.7871 42.8042C18.4873 42.9042 18.1043 43.0707 17.7379 43.1373L17.7712 43.104L17.4048 43.1373L17.6879 43.1706C17.6213 43.204 17.5546 43.2539 17.488 43.2706C17.0716 43.2872 16.522 43.3039 16.0557 43.5204C15.7892 43.8035 15.8058 43.3705 15.5394 43.6037C15.556 43.5704 15.556 43.5371 15.5893 43.5204C15.2729 43.6703 15.1063 43.7369 14.8065 43.9534C14.7899 43.7369 14.59 44.0034 14.59 43.8868V43.9868C14.5067 43.9534 14.3235 43.9701 14.3402 43.9035L14.2236 44.0534L14.1903 43.9701C13.9904 44.0034 13.6073 44.1866 13.4574 44.0367C13.0244 44.2865 12.2583 44.4364 11.6587 44.553C11.592 44.653 11.4255 44.7029 11.2922 44.7362L11.1257 44.6696C10.9924 44.7362 10.8925 44.9194 10.7426 44.8861C10.7426 44.8695 10.7426 44.8695 10.7426 44.8528C10.6094 44.9194 10.4595 44.8861 10.3595 45.0194C10.2096 45.0527 10.0431 45.036 10.0597 44.9361C10.0931 45.1193 9.72664 45.0027 9.72664 45.0027C9.72664 45.0027 9.22698 45.1193 8.46083 45.2859C7.69469 45.4691 6.6454 45.7522 5.56281 46.0853C3.38096 46.7515 1.0159 47.7175 0.249754 48.5336C0.216443 48.6336 0.0665454 48.7668 0.166477 48.8334C0.04989 48.9167 -0.0833527 48.8001 -0.0666973 48.8834C0.133167 48.8668 -0.0333866 49.1166 0.183133 49.1499L0.0832007 49.2165C0.0832007 49.2831 0.216443 49.0833 0.233099 49.1999L0.199788 49.0333C0.29972 49.0166 0.366341 49.0333 0.416307 49.0833C0.482929 48.9833 0.449618 48.7502 0.699448 48.7668L0.649482 48.8001C0.816035 48.7335 0.782725 48.8668 0.832691 48.8834L0.79938 48.9001L0.965934 48.9334C0.832691 48.9167 0.716103 49.1166 0.79938 49.0666C1.0159 49.0333 0.732759 49.05 0.882657 48.9667C0.965934 48.9167 0.982589 49.0167 0.999244 49.0666L1.1658 49C1.18245 49.0666 1.04921 49.0333 1.14914 49.0833L1.33235 48.9334C1.43228 49.0999 1.53222 48.7668 1.68211 48.9001C1.54887 49 1.71542 48.95 1.71542 49.0333L2.08184 48.9001C2.13181 48.9167 1.99856 49 2.06519 48.9667C2.14846 49 2.16512 48.8834 2.19843 48.8668C2.24839 48.9001 2.48157 48.7668 2.51488 48.9001C2.79802 48.9001 2.56485 48.7002 2.83133 48.7002C2.8813 48.7668 2.64812 48.7835 2.78137 48.8168L3.01454 48.7002C2.99788 48.7502 3.01454 48.8334 2.91461 48.8501C3.61413 48.7335 4.09714 49 4.66342 48.7169C4.78001 48.7835 4.61345 48.8001 4.58014 48.8668C4.97987 48.6169 5.26301 48.8668 5.62943 48.7502L5.61277 48.6669C6.19571 48.7335 6.77865 48.4004 7.41155 48.3338L7.32827 48.3005C7.39489 48.2005 7.51148 48.1506 7.61141 48.1006C7.64472 48.1339 7.59476 48.2838 7.74466 48.2005C7.69469 48.1839 7.62807 48.1839 7.62807 48.1339C8.19435 48.1839 9.24364 47.8175 10.1097 47.7009C10.676 47.5177 11.2589 47.3844 11.8585 47.2512C12.4581 47.1346 13.0577 47.0014 13.6073 46.8515C13.4408 46.9014 13.4574 46.7016 13.6073 46.7016C14.0404 46.9347 14.2069 46.5017 14.6233 46.6183C15.2562 46.3518 15.9058 46.5017 16.4554 46.1186L16.4887 46.2019C16.5886 46.2186 16.6053 46.1519 16.6886 46.1186V46.1519C16.9217 46.1353 17.1716 45.9854 17.3215 46.002V45.6356C17.4547 45.6023 17.4048 45.7022 17.538 45.6023V45.6523L17.6712 45.519C17.6879 45.7022 18.0543 45.4524 18.1709 45.5024C18.3374 45.4358 18.6539 45.2692 18.9204 45.2526C18.987 45.3358 19.3201 45.2692 19.5366 45.2692C19.9364 45.1693 20.5026 45.0194 21.019 44.9528L20.9856 44.8362L21.1189 44.8029C21.1189 44.8362 21.1355 44.8362 21.1189 44.8528C21.2521 44.9694 21.4187 44.7529 21.5519 44.8029C21.4687 44.7196 21.452 44.8029 21.3854 44.8195C21.2688 44.7862 21.3521 44.653 21.502 44.6863V44.7196L21.5852 44.6363C21.6186 44.7196 21.7185 44.7529 21.7518 44.8362C22.1848 44.7196 22.4513 44.5031 22.9177 44.4531C22.8844 44.5697 23.2341 44.3698 23.1842 44.553C23.4506 44.4364 23.1175 44.4198 23.2175 44.2699C23.3007 44.2532 23.3674 44.2033 23.384 44.2532C23.3507 44.3032 23.4673 44.3532 23.4007 44.3698L23.5839 44.3199C23.6005 44.3365 23.5672 44.3698 23.5506 44.3698C23.9003 44.2033 24.2334 44.3698 24.5499 44.2033C24.5665 44.1366 24.4166 44.2033 24.4333 44.1366C24.7498 43.9534 24.7498 44.2033 25.0495 44.0534L24.9996 44.1533C25.0829 44.07 25.1162 43.9867 25.2994 44.0367C25.3493 44.1366 25.1661 44.1533 25.0995 44.2033C25.2161 44.1866 25.4992 44.1033 25.3993 44.0367C25.5326 43.9701 25.5992 44.0534 25.6825 44.07C25.6825 44.0367 25.5492 44.0201 25.6158 43.9701C25.8157 43.9867 26.0988 43.9368 26.332 43.9035C26.332 43.9368 26.3653 43.9701 26.332 43.9868C26.5152 43.8702 26.5319 44.1033 26.7817 44.0201Z" fill="#E72631"/>
<path d="M38.9902 41.8216H38.8902C38.8902 41.8382 38.8902 41.8716 38.8569 41.9049L38.9902 41.8216Z" fill="#E72631"/>
<path d="M34.5597 42.2712C34.543 42.2878 34.543 42.2878 34.5264 42.3045C34.543 42.2878 34.5597 42.2878 34.5597 42.2712Z" fill="#E72631"/>
<path d="M33.5103 42.5877C33.5769 42.5544 33.5103 42.5377 33.477 42.5211C33.4603 42.5377 33.477 42.5544 33.5103 42.5877Z" fill="#E72631"/>
<path d="M41.4717 41.2886C41.4551 41.3052 41.4551 41.3219 41.4551 41.3385C41.4884 41.3052 41.4884 41.2886 41.4717 41.2886Z" fill="#E72631"/>
<path d="M48.4503 40.8222C48.4336 40.8222 48.4336 40.8222 48.417 40.8055C48.4336 40.8222 48.4503 40.8222 48.4503 40.8222Z" fill="#E72631"/>
<path d="M48.0672 40.6724C48.0505 40.6724 48.0172 40.6724 47.9839 40.689C48.0172 40.7057 48.0339 40.689 48.0672 40.6724Z" fill="#E72631"/>
<path d="M39.7895 41.4885C39.7562 41.4885 39.7396 41.5051 39.7229 41.5218C39.7729 41.5218 39.7895 41.5051 39.7895 41.4885Z" fill="#E72631"/>
<path d="M47.9007 40.7223H47.8008V40.7389L47.9007 40.7223Z" fill="#E72631"/>
<path d="M48.5836 40.8389C48.5503 40.8389 48.5004 40.8389 48.467 40.8389C48.5004 40.8556 48.5503 40.8556 48.5836 40.8389Z" fill="#E72631"/>
<path d="M44.0199 40.9388C43.9367 40.9887 43.9866 40.9721 44.0199 40.9388V40.9388Z" fill="#E72631"/>
<path d="M47.4842 40.9388H47.4676L47.4509 40.9721L47.4842 40.9388Z" fill="#E72631"/>
<path d="M48.9999 40.8555C48.9833 40.8555 48.9666 40.8721 48.95 40.8721C48.9666 40.8721 48.9833 40.8721 48.9999 40.8888C48.9999 40.8721 48.9999 40.8555 48.9999 40.8555Z" fill="#E72631"/>
<path d="M45.5021 40.9888C45.5188 40.9555 45.5354 40.9222 45.5354 40.9055C45.5021 40.9055 45.4855 40.9222 45.5021 40.9888Z" fill="#E72631"/>
</g>
<defs>
<clipPath id="clip0">
<rect width="63.257" height="49" fill="white"/>
</clipPath>
</defs>
</svg>
