<svg width="179" height="80" viewBox="0 0 179 80" fill="none" xmlns="http://www.w3.org/2000/svg">
<g clip-path="url(#clip0)">
<path d="M0.433838 59.179V0.376343H12.2519C23.3227 0.376343 28.8347 5.32046 28.8347 15.2087C28.8347 21.8144 26.1254 26.029 20.7536 27.8122V27.9743C26.7794 29.879 29.7689 34.661 29.7689 42.4014C29.7689 53.5865 24.0701 59.179 12.6723 59.179H0.433838ZM10.3835 24.4891H10.944C13.7 24.4891 15.6619 23.8406 16.8297 22.5843C17.9975 21.3281 18.6048 19.1802 18.6048 16.1813C18.6048 13.3445 18.0909 11.3183 17.0632 10.062C16.0357 8.80567 14.3073 8.15726 11.8783 8.15726H10.3368V24.4891H10.3835ZM10.3835 51.4386H12.4387C15.0546 51.4386 16.8764 50.7091 17.9509 49.2502C18.9784 47.7913 19.4923 45.3192 19.4923 41.7935C19.4923 38.2273 18.885 35.7147 17.7173 34.3368C16.5495 32.9589 14.4475 32.27 11.4112 32.27H10.3368V51.4386H10.3835Z" fill="black"/>
<path d="M68.7269 59.179H58.497L51.5837 33.3236C51.2099 33.3642 50.6027 33.4047 49.8553 33.4452H47.7999V59.179H37.8503V0.376343H49.8553C55.3673 0.376343 59.5246 1.79474 62.4207 4.59101C65.317 7.38728 66.7183 11.5209 66.7183 16.8703C66.7183 23.3543 64.6163 27.9743 60.4122 30.7705L68.7269 59.179ZM47.7999 25.5833H49.8553C54.2462 25.5833 56.4417 22.6655 56.4417 16.8703C56.4417 11.0346 54.2462 8.07621 49.8553 8.07621H47.7999V25.5833Z" fill="black"/>
<path d="M99.6033 56.1801C97.1744 58.7332 93.7177 59.9895 89.2334 59.9895C84.7957 59.9895 81.339 58.7332 78.8633 56.1801C76.4342 53.627 75.1731 50.0608 75.1731 45.5219V0.376343H85.076V44.8735C85.076 47.6292 85.403 49.5745 86.0102 50.6686C86.6175 51.7628 87.7853 52.2897 89.4202 52.2897C90.915 52.2897 91.9893 51.7223 92.6433 50.6281C93.2972 49.5339 93.6243 47.5887 93.6243 44.8735V0.376343H103.2V45.5219C103.294 50.0608 102.032 53.627 99.6033 56.1801Z" fill="black"/>
<path d="M131.741 0.376343L126.65 18.6939H126.463L121.417 0.376343H111.001L119.736 28.339L110.067 59.179H119.549L125.622 37.2141H125.809L131.835 59.179H142.252L132.629 28.0553L141.27 0.376343H131.741Z" fill="black"/>
<path d="M168.924 0.376343L163.833 18.6939H163.645L158.601 0.376343H148.184L156.919 28.339L147.25 59.179H156.732L162.804 37.2141H163.039L169.017 59.179H179.434L169.811 28.0553L178.453 0.376343H168.924Z" fill="black"/>
<path d="M31.2639 70.4451V77.1317L26.8728 70.4451H24.4438V80.0497H26.5926V73.2413L31.0769 80.0497H33.4125V70.4451H31.2639Z" fill="black"/>
<path d="M38.0837 70.4451V80.0497H46.4919V78.3476H40.3727V75.8755H45.7445V74.2139H40.3727V72.1472H46.2116V70.4451H38.0837Z" fill="black"/>
<path d="M61.5799 70.4451L60.0851 75.9971L59.7582 77.4965L59.4312 75.9566L58.0765 70.4451H55.6476L54.4331 75.9971L54.106 77.4965L53.779 75.9566L52.331 70.4451H49.8552L52.985 80.0497H55.1337L56.4883 74.4571L56.862 72.5929L57.2358 74.4571L58.5904 80.0497H60.7858L63.9155 70.4451H61.5799Z" fill="black"/>
<path d="M82.4133 71.4989C82.7403 71.9042 82.9271 72.3905 82.9271 72.9578C82.9271 73.5252 82.7403 74.0115 82.4133 74.3762C82.2264 74.5788 81.9462 74.7409 81.5725 74.903C82.133 75.0651 82.5534 75.3488 82.8337 75.754C83.1139 76.1593 83.2541 76.6051 83.2541 77.1725C83.2541 77.7398 83.0673 78.2666 82.7403 78.7124C82.5534 78.9961 82.2732 79.2798 81.9462 79.4824C81.5725 79.7255 81.1987 79.8877 80.6849 79.9687C80.2178 80.0498 79.704 80.0903 79.1435 80.0903H74.1453V70.4857H79.4705C80.9185 70.4857 81.8528 70.81 82.4133 71.4989ZM76.4342 72.1473V74.2547H79.0967C79.5639 74.2547 79.9842 74.1735 80.2646 74.0115C80.5448 73.8494 80.7316 73.5657 80.7316 73.1604C80.7316 72.7146 80.5448 72.4309 80.1244 72.2689C79.7974 72.1878 79.3303 72.1068 78.8165 72.1068H76.4342V72.1473ZM76.4342 75.8351V78.3882H79.0967C79.5639 78.3882 79.9376 78.3477 80.2178 78.2261C80.6849 78.0235 80.9652 77.6182 80.9652 77.0103C80.9652 76.524 80.7316 76.1593 80.2646 75.9972C79.9842 75.8756 79.6573 75.8351 79.1435 75.8351H76.4342Z" fill="black"/>
<path d="M87.645 70.4451V80.0497H96.0531V78.3476H89.9338V75.8755H95.3058V74.2139H89.9338V72.1472H95.7728V70.4451H87.645Z" fill="black"/>
<path d="M100.257 70.4451V80.0497H108.058V78.3476H102.546V70.4451H100.257Z" fill="black"/>
<path d="M119.269 73.4439C119.082 72.7956 118.662 72.3497 118.008 72.0661C117.635 71.904 117.214 71.8634 116.747 71.8634C115.859 71.8634 115.111 72.1471 114.551 72.755C113.991 73.3223 113.711 74.2139 113.711 75.3892C113.711 76.5644 114.037 77.4154 114.645 77.9017C115.252 78.388 115.953 78.6312 116.747 78.6312C117.541 78.6312 118.148 78.4286 118.662 78.0639C119.176 77.6991 119.456 77.1723 119.596 76.5644H117.027V74.9839H121.652V80.0496H120.11L119.876 78.8743C119.409 79.3202 119.035 79.6443 118.662 79.8469C118.054 80.1712 117.307 80.3333 116.42 80.3333C114.971 80.3333 113.757 79.8875 112.823 78.9959C111.841 78.1044 111.375 76.8886 111.375 75.3892C111.375 73.8492 111.888 72.5929 112.87 71.6608C113.851 70.7287 115.159 70.2424 116.794 70.2424C118.194 70.2424 119.316 70.5666 120.157 71.1745C120.998 71.7824 121.511 72.5524 121.605 73.4844H119.269V73.4439Z" fill="black"/>
<path d="M128.424 70.4857H126.135V80.0903H128.424V70.4857Z" fill="black"/>
<path d="M137.44 72.674L138.841 76.4429H135.992L137.44 72.674ZM136.179 70.4451L132.255 80.0497H134.684L135.431 78.0639H139.495L140.243 80.0497H142.765L138.841 70.4451H136.179Z" fill="black"/>
<path d="M153.275 70.4451V77.1317L148.885 70.4451H146.456V80.0497H148.604V73.2413L153.135 80.0497H155.424V70.4451H153.275Z" fill="black"/>
</g>
<defs>
<clipPath id="clip0">
<rect width="179" height="80" fill="white"/>
</clipPath>
</defs>
</svg>
