<svg width="103" height="47" viewBox="0 0 103 47" fill="none" xmlns="http://www.w3.org/2000/svg">
<g clip-path="url(#clip0)">
<path fill-rule="evenodd" clip-rule="evenodd" d="M84.2638 0.0322266C84.353 0.198485 84.5121 0.115356 84.6331 0.12175L87.4915 0.185696C87.6733 0.187361 87.8538 0.217567 88.0263 0.27522C88.2126 0.315367 88.3769 0.424532 88.4867 0.580963C88.5964 0.737394 88.6434 0.929606 88.6184 1.1193C88.5802 2.50692 88.6502 3.90093 88.6629 5.28855C88.7457 6.95049 88.7329 8.61584 88.6247 10.2763C88.5356 11.1012 88.7393 11.9325 88.6247 12.7638C88.5802 13.0963 88.9558 13.3521 89.4587 13.3713C90.1335 13.4096 90.8147 13.4288 91.4896 13.448C92.0371 13.448 92.3363 13.6335 92.3617 14.1642C92.4944 15.4514 92.4773 16.7497 92.3108 18.0329C92.2344 18.4805 91.9989 18.5573 91.6742 18.5573C90.923 18.5573 90.1717 18.5573 89.4142 18.5573C88.8221 18.5573 88.6884 18.6915 88.6948 19.299C88.733 22.1382 88.6948 24.9774 88.6502 27.823C88.6502 28.8397 88.7075 29.8564 88.6502 30.8732C88.6502 31.2185 88.5165 31.3464 88.16 31.3847C86.8277 31.4881 85.4901 31.5052 84.1556 31.4359C83.6208 31.4359 83.4235 31.1226 83.4553 30.4639C83.5381 28.6926 83.5444 26.9277 83.5444 25.1501C83.5444 24.453 83.6145 23.7369 83.5826 23.0654C83.5317 22.2341 83.6208 21.4092 83.5826 20.5843C83.5444 19.7594 83.6399 18.8322 83.5826 17.9498C83.5165 16.6717 83.5165 15.3911 83.5826 14.113C83.6128 13.6008 83.5502 13.0873 83.398 12.5975C83.3535 12.4569 83.4553 12.2778 83.4553 12.1115C83.4553 11.1652 83.5444 10.2315 83.4935 9.27876C83.4553 8.58175 83.4935 7.85917 83.4935 7.14937C83.5401 6.19681 83.4975 5.24195 83.3662 4.2974C83.3457 4.23928 83.3409 4.17679 83.352 4.11619C83.3632 4.05559 83.3901 3.999 83.4299 3.95209C83.4714 3.91809 83.5029 3.87327 83.5209 3.82253C83.5388 3.77179 83.5426 3.71707 83.5317 3.66434C83.2198 2.60284 83.7227 1.56692 83.6017 0.518213C83.6017 0.307193 83.7227 0.185696 83.8118 0.0322266H84.2638Z" fill="#FAF7F5"/>
<path fill-rule="evenodd" clip-rule="evenodd" d="M103 30.0098C102.803 30.3167 102.936 30.6492 102.917 30.9881C102.898 31.327 102.796 31.5317 102.376 31.6276C101.667 31.7615 100.936 31.7242 100.243 31.5189C99.7105 31.4549 99.1719 31.4549 98.6391 31.5189C97.9197 31.5189 97.8305 31.3974 97.8305 30.7004C97.8305 28.3088 97.8815 25.9108 97.8305 23.5193C97.7923 22.2404 97.8815 21.0062 97.7732 19.7529C97.7606 19.6296 97.7606 19.5053 97.7732 19.382C97.8624 18.8193 97.665 18.5571 97.0857 18.5443C96.2262 18.5443 95.3668 18.5443 94.501 18.5443C94.2272 18.5443 94.1063 18.4868 94.0999 18.2054C94.0299 17.6513 94.0299 17.0905 94.0999 16.5364C94.1762 15.8779 94.1762 15.2127 94.0999 14.5541C94.0999 14.4902 94.0999 14.4326 94.0999 14.3687C94.0171 13.4031 94.2591 13.2049 95.2267 13.3711C95.9242 13.4894 96.6365 13.4894 97.334 13.3711C97.6905 13.32 97.7542 13.0578 97.716 12.7956C97.6801 12.5845 97.6694 12.3698 97.6841 12.1562C97.9069 10.2953 97.6332 8.41534 97.8687 6.54813C97.9451 5.90867 97.6714 5.32037 97.7732 4.68091C97.9515 3.60023 97.735 2.50037 97.8496 1.4069C97.8782 1.25478 97.8782 1.09862 97.8496 0.946493C97.6841 0.40935 97.9961 0.18554 98.5627 0.18554C99.785 0.18554 101.007 0.0960165 102.23 0.18554C102.72 0.217513 102.815 0.415744 102.866 0.824996C102.911 1.34935 102.815 1.86091 102.866 2.37887C102.924 3.46595 102.917 4.55302 102.866 5.6401C102.866 6.47779 102.93 7.31547 102.866 8.15955C102.815 9.29779 102.949 10.436 102.866 11.5679C102.784 12.6997 103 13.8251 102.784 14.9442C103.14 15.5836 102.784 16.2934 102.885 16.984C102.903 17.477 102.886 17.9706 102.834 18.4612C102.834 20.1941 103.006 21.9206 102.904 23.6472C102.873 24.1907 102.968 24.7087 102.968 25.2394C103.013 26.3585 102.968 27.4775 102.968 28.5966C102.938 28.7469 102.953 28.9029 103.013 29.0442L103 30.0098Z" fill="#FAF7F5"/>
<path fill-rule="evenodd" clip-rule="evenodd" d="M0.916797 0C1.00593 0.172653 1.16508 0.0831293 1.28604 0.0895238L4.1445 0.159864C4.32624 0.155666 4.50729 0.18381 4.67927 0.242993C4.86554 0.283141 5.02991 0.392305 5.13964 0.548736C5.24936 0.705167 5.29638 0.89738 5.27133 1.08707C5.23313 2.47469 5.30316 3.86871 5.3159 5.25633C5.40134 6.91394 5.38859 8.5752 5.2777 10.2313C5.18857 11.0562 5.39229 11.8875 5.2777 12.7188C5.23313 13.0513 5.60874 13.3071 6.11168 13.3582C6.79287 13.3902 7.4677 13.4158 8.14252 13.4286C8.69002 13.4286 8.98924 13.6204 9.02107 14.1448C9.15057 15.4342 9.13348 16.7343 8.97014 18.0199C8.89374 18.4611 8.65819 18.5378 8.33351 18.5442H6.06712C5.47505 18.5442 5.34136 18.6785 5.35409 19.2796C5.38592 22.1188 5.35409 24.9644 5.30316 27.8035C5.30316 28.8203 5.36683 29.837 5.30316 30.8601C5.30316 31.199 5.16947 31.3269 4.81296 31.3653C3.48078 31.4719 2.14301 31.4889 0.80857 31.4165C0.280169 31.4165 0.0764483 31.1095 0.10828 30.4445C0.191041 28.6796 0.197408 26.9083 0.197408 25.137C0.197408 24.4336 0.273803 23.7174 0.235605 23.046C0.191041 22.2147 0.273803 21.3898 0.235605 20.5649C0.197408 19.74 0.254704 18.8128 0.197408 17.9048C0.131505 16.6267 0.131505 15.3461 0.197408 14.068C0.222238 13.5614 0.15537 13.0544 5.29513e-05 12.5717C-0.044511 12.4246 0.0637157 12.2456 0.0573495 12.0793C0.0573495 11.1329 0.146477 10.1993 0.0955471 9.25293C0.0955471 8.55592 0.0955471 7.82694 0.0955471 7.12354C0.152712 6.17197 0.12074 5.21712 5.29513e-05 4.27156C5.29513e-05 4.14367 -0.0381447 4.02857 0.0637157 3.92626C0.106399 3.89172 0.138575 3.84584 0.156582 3.79384C0.17459 3.74183 0.177706 3.6858 0.165576 3.63211C-0.133639 2.55782 0.369297 1.53469 0.248338 0.485986C0.222873 0.274966 0.369297 0.153469 0.458425 0H0.916797Z" fill="#FAF7F5"/>
<path fill-rule="evenodd" clip-rule="evenodd" d="M14.4896 27.177C14.4896 26.1091 14.5278 25.0412 14.4896 23.9797C14.4196 22.6496 14.4896 21.3131 14.426 19.9831C14.4069 19.7832 14.4069 19.5819 14.426 19.382C14.5087 18.7425 14.3305 18.5123 13.6875 18.5059C12.8599 18.5059 12.0259 18.5059 11.1983 18.5059C10.8672 18.5059 10.759 18.4036 10.7463 18.1095C10.6827 17.57 10.6827 17.0248 10.7463 16.4853C10.8246 15.8111 10.8139 15.1295 10.7144 14.4582C10.6189 13.3136 10.7781 13.1793 11.9368 13.3647C12.5702 13.4556 13.2132 13.4556 13.8467 13.3647C14.2732 13.3072 14.3687 13.0642 14.2859 12.6741C14.2573 12.4898 14.2573 12.3021 14.2859 12.1178C14.5087 10.2442 14.2414 8.34499 14.4705 6.47138C14.5406 5.83192 14.2732 5.2692 14.3814 4.64254C14.5597 3.57465 14.3241 2.49397 14.4514 1.44526C14.4834 1.29347 14.4834 1.13664 14.4514 0.98485C14.2859 0.415735 14.5278 0.159952 15.1772 0.153558C16.3995 0.153558 17.6219 0.0640341 18.8505 0.153558C19.3089 0.153558 19.4171 0.370973 19.4553 0.748252C19.5126 1.279 19.4108 1.80335 19.4553 2.3405C19.519 3.44675 19.5063 4.54662 19.4553 5.65288C19.4553 6.49056 19.519 7.32825 19.4553 8.17233C19.4171 9.29138 19.5445 10.4168 19.4553 11.5295C19.3662 12.6421 19.589 13.7868 19.3662 14.9122C19.6909 15.4365 19.3089 16.0057 19.4553 16.5236C19.5077 17.0356 19.4863 17.5525 19.3917 18.0583C19.4299 20.0662 19.4872 22.0677 19.4935 24.0756C19.4935 25.751 19.4426 27.4327 19.5954 29.1145C19.6174 29.8231 19.5919 30.5324 19.519 31.2375C19.518 31.3155 19.4922 31.3912 19.4452 31.4534C19.3982 31.5155 19.3326 31.5609 19.258 31.5828C18.6664 31.7702 18.0359 31.7967 17.4309 31.6595C16.7764 31.5049 16.1024 31.451 15.4319 31.4997C15.2477 31.5189 15.0621 31.5189 14.878 31.4997C14.8109 31.4953 14.7455 31.4768 14.6861 31.4453C14.6267 31.4138 14.5745 31.3701 14.533 31.317C14.4916 31.2639 14.4617 31.2026 14.4455 31.1371C14.4292 31.0716 14.4269 31.0034 14.4387 30.937C14.4387 29.6964 14.4387 28.4623 14.4387 27.2281L14.4896 27.177Z" fill="#FAF7F5"/>
<path fill-rule="evenodd" clip-rule="evenodd" d="M40.1078 5.50632C39.1542 5.5326 38.1999 5.50484 37.2494 5.42319H37.1793C36.1798 5.42319 36.1798 5.42319 36.1862 4.40645C36.1862 3.18509 36.1862 1.96373 36.1862 0.74237C36.1862 0.454615 36.2817 0.37788 36.5682 0.288356C37.1951 0.146914 37.8426 0.123067 38.4781 0.218016C39.7042 0.282147 40.933 0.27147 42.1578 0.186044C43.291 0.134887 44.4433 0.000601351 45.5765 0.077336C46.2713 0.12837 46.9684 0.141178 47.6646 0.115703C49.9756 0.000601351 52.2865 0.0901252 54.5911 0.0517578H55.1068C55.6925 0.0517578 55.6861 0.128493 55.7434 0.691214C55.928 1.81026 55.476 2.87176 55.5652 3.97162C55.5652 4.37448 55.5652 4.78373 55.6097 5.18659C55.6543 5.58944 55.3614 5.50632 55.1705 5.49992C54.2792 5.49992 53.3943 5.44237 52.503 5.38482C51.5079 5.2889 50.5059 5.2889 49.5108 5.38482C49.2794 5.38814 49.0484 5.36236 48.8233 5.30808C48.5113 5.26332 48.3331 5.36564 48.3458 5.70455C48.4604 7.78278 48.2821 9.8674 48.4859 11.952C48.6068 13.2309 48.4349 14.5099 48.4477 15.7888C48.429 16.4287 48.446 17.0691 48.4986 17.7071C48.5457 18.1118 48.5328 18.5212 48.4604 18.9221C48.3595 19.3985 48.3993 19.8941 48.575 20.3481C48.621 20.4306 48.6402 20.5255 48.6299 20.6195C48.6197 20.7135 48.5804 20.8019 48.5177 20.8724C48.4732 20.9193 48.4438 20.9786 48.4336 21.0425C48.4234 21.1065 48.4327 21.172 48.4604 21.2305C48.7023 21.595 48.505 21.9531 48.4604 22.3112C48.4604 22.3752 48.4031 22.4519 48.4286 22.4967C48.7787 23.2896 48.4731 24.1209 48.5368 24.9266C48.5814 25.5341 48.575 26.1479 48.5941 26.7554C48.6151 27.2697 48.5981 27.7848 48.5432 28.2965C48.505 28.6482 48.645 29.0063 48.6386 29.3708C48.6386 29.9655 48.6386 30.5602 48.6386 31.1613C48.6386 31.5322 48.4795 31.7368 48.1102 31.6984C46.7606 31.5705 45.3982 31.6984 44.0486 31.6601C43.9569 31.6482 43.8689 31.6165 43.7907 31.567C43.7125 31.5176 43.6459 31.4516 43.5956 31.3737C43.5453 31.2958 43.5125 31.2079 43.4995 31.116C43.4865 31.0241 43.4935 30.9304 43.5202 30.8416C43.5659 30.4165 43.5659 29.9877 43.5202 29.5626C43.5202 29.326 43.3865 29.0511 43.6793 28.8784C43.6886 28.8537 43.6886 28.8264 43.6793 28.8017C43.2973 28.482 43.5838 28.0983 43.5838 27.7466C43.5205 27.1563 43.5014 26.5621 43.5265 25.9689C43.6157 25.4126 43.4374 24.8882 43.5265 24.3383C43.5688 23.7296 43.541 23.1181 43.4438 22.5158C43.4151 22.1092 43.4151 21.7011 43.4438 21.2945C43.5456 20.0005 43.5456 18.7005 43.4438 17.4066C43.4438 17.3235 43.4438 17.2467 43.4438 17.17C43.482 14.836 43.3355 12.4956 43.4883 10.136C43.5265 9.49652 43.3674 8.85706 43.3801 8.21761C43.3928 7.57815 43.3801 6.75325 43.3801 6.02427C43.3801 5.63421 43.2082 5.51271 42.8899 5.51271C42.0177 5.51271 41.1455 5.51271 40.006 5.51271" fill="#FAF7F5"/>
<path fill-rule="evenodd" clip-rule="evenodd" d="M26.63 29.7159C26.63 28.5074 26.5727 27.2988 26.5791 26.0838C26.5791 23.6667 26.6364 21.2431 26.5791 18.8196C26.5472 17.8604 26.6873 16.9012 26.6427 15.9357C26.5472 14.6805 26.5153 13.4213 26.5472 12.1629C26.5982 11.0566 26.6364 9.94395 26.6045 8.8377C26.5663 7.84654 26.6045 6.85538 26.5472 5.85783C26.4918 5.28197 26.4748 4.70304 26.4963 4.12491C26.5389 3.62947 26.5496 3.13179 26.5281 2.63497C26.5101 2.01423 26.5271 1.39297 26.5791 0.774158C26.6393 0.541468 26.7833 0.33947 26.9832 0.207194C27.1831 0.0749178 27.4247 0.0217514 27.6613 0.0579675C28.1452 0.128308 28.6481 0.000416476 29.1001 0.0899403C29.7337 0.166645 30.372 0.196566 31.01 0.179464C31.1736 0.228475 31.3222 0.317988 31.4424 0.439778C31.5625 0.561569 31.6503 0.711731 31.6976 0.876471C31.6976 2.10423 31.6976 3.32559 31.6976 4.55334C31.6976 5.60844 31.7357 6.66994 31.7357 7.75062C31.7357 8.92722 31.7357 10.1102 31.6785 11.2868C31.6728 11.6292 31.6962 11.9715 31.7485 12.3099C31.7824 13.0818 31.7654 13.8551 31.6976 14.6248C31.7358 18.6278 31.6976 22.6244 31.7612 26.621C31.7612 28.0406 31.8121 29.4537 31.7994 30.8733C31.7994 31.5128 31.5893 31.6918 30.9463 31.7046C29.7622 31.7046 28.5781 31.6023 27.3939 31.7046C26.6809 31.7494 26.5727 31.6407 26.5345 30.9309C26.5345 30.7327 26.5345 30.528 26.5345 30.3234C26.5345 30.1188 26.5345 29.9461 26.5345 29.7607H26.6364" fill="#FAF7F5"/>
<path fill-rule="evenodd" clip-rule="evenodd" d="M63.9684 12.7379C64.0194 12.885 64.3377 12.885 64.1149 13.1216C64.0321 13.2111 64.1149 13.3007 64.1785 13.3518C64.2422 13.403 64.4777 13.2943 64.4077 13.5117C64.3377 13.7291 64.1849 13.5117 64.0894 13.5948C64.1456 13.6633 64.1843 13.7445 64.2021 13.8315C64.2198 13.9184 64.2161 14.0084 64.1912 14.0936C64.1403 14.279 64.0003 14.5412 64.2995 14.6947C64.3695 14.7394 64.344 14.8801 64.2995 14.8865C63.9748 14.8865 64.3631 15.3981 63.9875 15.3725C63.9875 15.6347 64.2231 15.4109 64.2931 15.5643C63.9239 15.5643 64.0257 16.0119 64.0512 16.0567C64.1531 16.4205 64.1961 16.7983 64.1785 17.1758C64.1696 17.2702 64.1855 17.3654 64.2246 17.4518C64.2637 17.5381 64.3246 17.6127 64.4013 17.6681C64.338 17.7738 64.256 17.8669 64.1594 17.9431C64.013 18.0262 64.0003 18.0262 64.1594 18.1605C64.4714 18.4419 64.1594 18.5762 63.9557 18.6337C63.6374 18.736 63.7774 18.9023 63.8984 18.9854C64.1785 19.19 64.2549 19.3051 64.0894 19.6249C64.0316 19.712 64.0008 19.8143 64.0008 19.919C64.0008 20.0237 64.0316 20.126 64.0894 20.2132C64.1467 20.3219 64.1658 20.5521 64.0894 20.6032C63.7902 20.7439 63.9939 20.859 64.0894 20.9933C64.1849 21.1276 64.3695 21.3386 64.0385 21.4793C63.9684 21.4793 63.9557 21.5752 64.0385 21.6519C64.1153 21.7374 64.1648 21.8439 64.1807 21.9579C64.1966 22.0719 64.1781 22.1881 64.1276 22.2914C63.9366 22.6175 64.395 22.739 64.2676 23.0012C64.4777 22.8541 64.4395 23.0012 64.535 23.1419C64.7196 23.3785 64.3759 23.3913 64.4204 23.5511C64.4204 23.6151 64.5032 23.6918 64.5223 23.6534C64.7451 23.225 64.8279 23.9028 65.0061 23.7046C65.0061 23.743 65.0571 23.7813 65.0571 23.8133C65.0316 23.9728 65.0456 24.1361 65.0977 24.2889C65.1499 24.4416 65.2387 24.5792 65.3563 24.6894C65.4709 24.7597 65.5091 24.5487 65.6682 24.6062C65.5664 24.8109 65.5727 24.9451 65.8274 25.0794C66.2189 25.263 66.568 25.5265 66.8524 25.8532C67.0115 26.0514 67.2662 25.6869 67.1961 25.9491C67.0815 26.3903 67.3998 26.4862 67.6354 26.6589C67.4062 26.9275 67.9537 27.2983 67.4826 27.5605C67.368 27.6245 67.4826 27.9378 67.5908 27.9698C67.8073 28.0593 67.6736 28.1744 67.6545 28.2639C67.5463 28.8085 67.5463 29.3692 67.6545 29.9137C67.6552 30.3757 67.5953 30.8359 67.4762 31.2822C67.4762 31.4804 67.2089 31.4804 67.0561 31.4548C66.3683 31.4087 65.694 31.242 65.0634 30.9624C64.4268 30.5979 63.7392 30.259 63.1026 29.8498C61.1723 28.5076 59.7835 26.5162 59.1874 24.2353C58.9606 23.0538 58.8223 21.8568 58.7735 20.6544C58.7035 19.708 59.0728 18.7744 58.7735 17.828C58.7466 17.5542 58.7638 17.2778 58.8245 17.0095C58.835 16.7428 58.744 16.4821 58.5698 16.2805C58.4616 16.1143 58.6208 15.769 58.659 15.5068C58.687 15.3718 58.7061 15.2351 58.7163 15.0975C58.7163 13.8186 58.8245 12.5397 58.8436 11.2608C58.8436 10.6213 58.8436 9.94991 58.9072 9.31045C58.9072 8.93957 58.7099 8.60065 58.8499 8.24895C58.9566 7.7505 59.1346 7.27019 59.3783 6.82297C59.5054 6.634 59.5741 6.41154 59.5757 6.18351C59.5681 6.01438 59.6012 5.8459 59.6721 5.69231C59.7431 5.53872 59.8497 5.40453 59.9831 5.30106C60.4733 4.98773 60.3715 4.3163 60.8999 4.05412C61.0781 3.9646 61.0845 3.62569 61.3264 3.41467C61.6893 3.12691 61.9121 2.6665 62.4342 2.5578C62.5678 2.5578 62.6124 2.32759 62.7206 2.22528C63.1681 1.76703 63.7058 1.40766 64.2995 1.17018C64.6624 1.04229 64.9361 0.633035 65.4008 0.741742C65.4645 0.319701 66.0375 0.741742 66.1011 0.332491C66.1011 0.332491 66.2157 0.332491 66.273 0.300518L67.3235 0.236572C67.6481 0.236572 67.9028 0.236572 67.9282 0.677797C67.9633 0.985866 67.9633 1.29694 67.9282 1.60501C67.8391 2.04815 67.8391 2.50473 67.9282 2.94787C68.0359 3.34296 67.9951 3.76401 67.8137 4.13086C67.7755 4.22038 67.8137 4.27154 67.8964 4.28433C67.9792 4.29712 68.0492 4.32909 68.0365 4.33548C67.6099 4.59766 67.9283 5.04528 67.7882 5.3778C67.7245 5.51848 67.559 5.67195 67.5081 5.64637C67.0497 5.36501 66.8396 6.20269 66.394 5.88297C66.2539 6.15154 65.8847 6.15154 65.7574 6.38814C65.3372 7.09793 64.7578 7.66705 64.3822 8.41521C64.2955 8.57989 64.2664 8.76905 64.2995 8.95235C64.3404 9.39235 64.2589 9.83511 64.0639 10.2313C64.0257 10.3144 64.0639 10.3464 64.0639 10.3911C64.2613 10.6981 63.9621 11.0753 64.1149 11.2992C64.2676 11.523 63.9875 11.8747 64.1722 12.1624C64.3568 12.4502 64.3122 12.674 63.9302 12.7315" fill="#FAF7F5"/>
<path fill-rule="evenodd" clip-rule="evenodd" d="M72.2129 0.575565C72.3402 0.690668 72.0983 0.87611 72.302 0.933661C72.5057 0.991212 72.5439 0.735429 72.6712 0.697062C72.9386 0.786586 72.6712 1.16386 72.9768 1.20223C73.1487 1.20223 73.1296 0.972028 73.2315 0.869715C73.3906 0.94645 73.3524 1.09352 73.3906 1.22781C73.4288 1.3621 73.5243 1.52196 73.7026 1.31094C73.7599 1.24699 73.8172 1.25339 73.8235 1.31094C73.8554 1.7138 74.3901 1.69461 74.4602 2.07189C74.4563 2.08219 74.4563 2.09357 74.4602 2.10386C75.0459 1.77135 75.0586 2.48114 75.3578 2.6538C75.7118 2.91526 75.9747 3.28225 76.109 3.7025C76.1536 3.81761 76.3382 3.83679 76.4464 3.97747C77.3629 5.27516 77.9964 6.75252 78.3054 8.31298C78.4397 8.99244 78.5269 9.68044 78.5664 10.372C78.5664 10.5511 78.6173 10.7621 78.3118 10.7109C78.2035 10.7109 78.1972 10.7813 78.1781 10.858C78.159 10.9348 78.0253 11.0946 77.9043 11.069C77.4078 10.9348 76.8985 11.1202 76.4146 11.0051C75.8473 10.8872 75.2648 10.8613 74.6894 10.9284C74.2812 10.9489 73.8749 10.8607 73.5116 10.6726C73.4205 10.5946 73.3493 10.4959 73.3039 10.3846C73.2585 10.2734 73.2402 10.1529 73.2506 10.0331C73.2506 9.39366 73.4607 8.66468 72.8049 8.1723C72.7413 8.12114 72.6712 8.06359 72.7094 7.9421C72.7442 7.85774 72.7606 7.76689 72.7576 7.67563C72.7545 7.58438 72.732 7.49485 72.6916 7.41307C72.6511 7.33128 72.5938 7.25913 72.5233 7.20148C72.4528 7.14383 72.3708 7.10201 72.2829 7.07883C72.1747 7.04046 72.041 7.04686 72.0346 6.92536C71.9837 6.43298 71.5762 6.36904 71.2261 6.23475C70.9969 6.15162 70.8187 5.96618 70.5895 5.86387C70.2537 5.72587 69.9092 5.61051 69.5581 5.51856C69.5132 5.51248 69.4699 5.49717 69.431 5.47358C69.3922 5.45 69.3586 5.41864 69.3323 5.38146C69.3061 5.34427 69.2877 5.30206 69.2783 5.25745C69.269 5.21283 69.2689 5.16676 69.278 5.1221C69.3589 4.69565 69.3305 4.25553 69.1953 3.84319C69.1252 3.61938 69.3735 3.48509 69.399 3.20373C69.4626 2.49393 69.399 1.79053 69.469 1.08713C69.5154 0.833621 69.5793 0.583638 69.66 0.338967C69.66 0.236654 69.7364 0.262232 69.781 0.275021C70.0356 0.332572 70.3221 0.518014 70.4621 0.102368C70.4621 0.0576062 70.6149 0.102368 70.6595 0.153525C70.7805 0.345361 70.8569 0.677878 71.1179 0.255838C71.1179 0.204681 71.2134 0.255838 71.2197 0.479647C71.2261 0.703457 71.2197 0.831348 71.4362 0.601144C71.4722 0.565016 71.5187 0.54124 71.569 0.533202C71.6193 0.525165 71.6709 0.533277 71.7163 0.556382C71.9073 0.799375 72.0855 0.633116 72.2574 0.556382" fill="#FAF7F5"/>
<path fill-rule="evenodd" clip-rule="evenodd" d="M78.2098 22.2722C78.2115 23.2082 78.0477 24.137 77.726 25.0154C77.5859 25.3096 77.5159 25.6549 77.3949 25.9491C77.0019 26.7778 76.4939 27.5464 75.8861 28.2319C75.035 29.2887 73.9433 30.1244 72.703 30.6682C71.7521 31.0855 70.7429 31.353 69.7108 31.4612C69.0742 31.5379 68.9151 31.3716 68.9533 30.7002C69.0042 29.8497 68.9533 28.9929 68.9533 28.1424C68.9915 27.5669 68.7559 26.9274 69.1633 26.3775C69.3704 26.1694 69.6379 26.0328 69.9273 25.9874C70.7038 25.8157 71.4075 25.4049 71.9405 24.8123C72.4734 24.2196 72.809 23.4747 72.9004 22.6814C72.9591 22.3061 73.055 21.9377 73.1868 21.5816C73.2378 21.4153 73.3651 21.345 73.5752 21.345C74.9312 21.345 76.2809 21.4153 77.6305 21.4537C78.0761 21.4537 78.2671 21.5816 78.1716 22.0356C78.1652 22.1122 78.1652 22.1892 78.1716 22.2658" fill="#FAF7F5"/>
<path d="M10.6574 46.8912V41.6477L8.66474 46.8912H7.92626L5.91451 41.6477V46.8912H5.09326V40.7524H6.36652L8.2764 45.8105L10.1863 40.7524H11.4595V46.8912H10.6574Z" fill="#FAF7F5"/>
<path d="M13.0193 46.8912L14.439 44.2631C14.0704 44.1548 13.7468 43.9291 13.5171 43.62C13.2874 43.3108 13.1641 42.935 13.1657 42.5493C13.1657 41.4686 13.9488 40.7524 15.2093 40.7524H17.8831V46.8912H17.0428V44.4229H15.2793L14.0061 46.8912H13.0193ZM14.0697 42.6197C14.0688 42.7676 14.0991 42.9141 14.1586 43.0495C14.2181 43.1848 14.3054 43.306 14.4149 43.4051C14.5243 43.5041 14.6534 43.5788 14.7936 43.6242C14.9338 43.6695 15.082 43.6846 15.2284 43.6684H17.0428V41.5646H15.2793C15.1288 41.5425 14.9753 41.5533 14.8294 41.5962C14.6834 41.6392 14.5484 41.7133 14.4336 41.8134C14.3187 41.9136 14.2268 42.0375 14.164 42.1766C14.1012 42.3158 14.069 42.4669 14.0697 42.6197Z" fill="#FAF7F5"/>
<path d="M23.7974 42.3512C23.6198 42.06 23.368 41.8218 23.0681 41.661C22.7681 41.5003 22.4309 41.4229 22.0912 41.4368C20.818 41.4368 20.0095 42.3895 20.0095 43.8155C20.0095 45.2415 20.8371 46.2199 22.0721 46.2199C22.4172 46.2247 22.7577 46.1395 23.0601 45.9725C23.3625 45.8054 23.6166 45.5624 23.7974 45.2671L24.5041 45.7275C24.2426 46.1314 23.8823 46.4612 23.4575 46.6851C23.0328 46.909 22.558 47.0197 22.0785 47.0064C20.2959 47.0064 19.1118 45.67 19.1118 43.8091C19.1118 41.9483 20.2959 40.6118 22.0721 40.6118C22.5435 40.5963 23.0111 40.7015 23.431 40.9174C23.8508 41.1332 24.2091 41.4528 24.4722 41.846L23.7974 42.3512Z" fill="#FAF7F5"/>
<path d="M29.8135 46.8912V44.0329H26.503V46.8912H25.6436V40.7524H26.503V43.2527H29.8135V40.7524H30.6729V46.8912H29.8135Z" fill="#FAF7F5"/>
<path d="M34.9125 46.9999C33.0854 46.9999 31.9331 45.6315 31.9331 43.8027C31.9331 41.9738 33.0854 40.6054 34.9125 40.6054C35.3234 40.5987 35.7312 40.6784 36.1097 40.8394C36.4881 41.0004 36.8288 41.2391 37.11 41.5402C37.3912 41.8412 37.6066 42.1981 37.7423 42.5877C37.8781 42.9773 37.9312 43.3912 37.8983 43.8027C37.8983 45.6315 36.7333 46.9999 34.9125 46.9999ZM34.9125 41.4558C33.6074 41.4558 32.8308 42.4342 32.8308 43.8218C32.8308 45.2095 33.6074 46.2006 34.9125 46.2006C36.2176 46.2006 36.9943 45.2158 36.9943 43.8218C36.9943 42.4278 36.2049 41.4558 34.9125 41.4558Z" fill="#FAF7F5"/>
<path d="M53.0947 44.5636H51.3885V46.8912H50.5291V40.7524H53.0756C54.4634 40.7524 55.2337 41.5198 55.2337 42.6708C55.2337 43.8218 54.4825 44.5636 53.0947 44.5636ZM53.0947 43.7707C53.9477 43.7707 54.3679 43.3358 54.3679 42.6644C54.3679 41.993 53.9477 41.5646 53.0947 41.5646H51.3885V43.7835L53.0947 43.7707Z" fill="#FAF7F5"/>
<path d="M56.4814 46.8912V40.7524H60.8105V41.5646H57.3473V43.2911H60.3649V44.0392H57.3473V46.1111H60.906V46.904L56.4814 46.8912Z" fill="#FAF7F5"/>
<path d="M66.5469 42.3512C66.3693 42.06 66.1175 41.8218 65.8176 41.661C65.5176 41.5003 65.1804 41.4228 64.8407 41.4367C63.5675 41.4367 62.759 42.3895 62.759 43.8155C62.759 45.2415 63.5866 46.2199 64.8216 46.2199C65.1669 46.2253 65.5075 46.1404 65.8101 45.9733C66.1126 45.8062 66.3666 45.5628 66.5469 45.2671L67.2536 45.7275C66.9931 46.1309 66.6339 46.4604 66.2103 46.6843C65.7867 46.9083 65.3129 47.0192 64.8344 47.0064C63.0455 47.0064 61.8613 45.6699 61.8613 43.8091C61.8613 41.9483 63.0455 40.6118 64.8216 40.6118C65.2939 40.5964 65.7624 40.7016 66.1832 40.9174C66.6041 41.1332 66.9636 41.4527 67.2281 41.846L66.5469 42.3512Z" fill="#FAF7F5"/>
<path d="M70.7422 41.5646V46.904H69.8764V41.5646H67.8074V40.7524H72.8176V41.5646H70.7422Z" fill="#FAF7F5"/>
<path d="M76.287 47C74.4599 47 73.3076 45.6316 73.3076 43.8027C73.3076 41.9739 74.4599 40.6055 76.287 40.6055C78.1142 40.6055 79.2728 41.9803 79.2728 43.8027C79.2728 45.6252 78.1142 47 76.287 47ZM76.287 41.4559C75.0138 41.4559 74.2053 42.4343 74.2053 43.8219C74.2053 45.2096 74.9883 46.2007 76.287 46.2007C77.5858 46.2007 78.3688 45.2159 78.3688 43.8219C78.3688 42.4279 77.5794 41.4559 76.287 41.4559Z" fill="#FAF7F5"/>
<path d="M83.0993 44.5636H81.3931V46.8912H80.5337V40.7524H83.0802C84.4681 40.7524 85.2384 41.5198 85.2384 42.6708C85.2384 43.8218 84.4872 44.5636 83.0993 44.5636ZM83.0993 43.7707C83.9524 43.7707 84.3726 43.3358 84.3726 42.6644C84.3726 41.993 83.9587 41.5518 83.0993 41.5518H81.3931V43.7707H83.0993Z" fill="#FAF7F5"/>
<path d="M90.3186 46.8912L89.682 45.1839H86.9317L86.2951 46.8912H85.3975L87.8867 40.7524H88.8289L91.3244 46.8912H90.3186ZM88.3132 41.5965L87.2182 44.4293H89.3955L88.3132 41.5965Z" fill="#FAF7F5"/>
<path d="M96.5067 46.8912V44.0329H93.1962V46.8912H92.3113V40.7524H93.1707V43.2527H96.4812V40.7524H97.4043V46.8912H96.5067Z" fill="#FAF7F5"/>
<path d="M44.1949 40.7588V46.8912H43.3673V41.9546L40.2605 46.8912H39.1592V40.7588H39.9804V45.8105L43.1636 40.7588H44.1949Z" fill="#FAF7F5"/>
<path d="M42.4759 38.8213V38.9044C42.4464 39.0749 42.3555 39.2284 42.2204 39.3358C42.0854 39.4431 41.9157 39.4967 41.7438 39.4863C41.5725 39.494 41.4042 39.4393 41.2697 39.3325C41.1352 39.2256 41.0436 39.0736 41.0116 38.9044V38.8213L40.375 38.9556V39.0451C40.4256 39.381 40.5944 39.6875 40.8508 39.909C41.1072 40.1305 41.4342 40.2523 41.7724 40.2523C42.1106 40.2523 42.4376 40.1305 42.694 39.909C42.9504 39.6875 43.1192 39.381 43.1698 39.0451V38.9556L42.4759 38.8213Z" fill="#FAF7F5"/>
</g>
<defs>
<clipPath id="clip0">
<rect width="103" height="47" fill="white"/>
</clipPath>
</defs>
</svg>
