<svg width="122" height="47" viewBox="0 0 122 47" fill="none" xmlns="http://www.w3.org/2000/svg">
<rect width="122" height="47" fill="white"/>
<g clip-path="url(#clip0)">
<path fill-rule="evenodd" clip-rule="evenodd" d="M14.2879 19.5136C14.2979 16.3996 14.3082 13.2868 14.3182 10.1536C13.3383 10.1481 11.695 10.2285 11.3504 10.0704C11.0907 9.89529 10.9989 9.71511 11 9.45682C11.0011 9.06036 11.0537 8.71493 11.2224 8.43152C11.3678 8.25567 11.5654 8.19914 11.7312 8.07314C11.8445 7.98757 11.9677 8.00013 12.0924 8.00131C13.1663 8.01033 14.2398 8.02093 15.3133 8.05469C16.2262 8.08374 17.1402 8.08845 18.0542 8.09355C18.2459 8.09473 18.4098 8.13163 18.5574 8.26705C18.6603 8.36087 18.7736 8.44723 18.8931 8.51592C19.1906 8.68706 19.3734 8.85468 19.4637 9.26252C19.4633 9.45918 19.403 9.68842 19.2653 9.94789C19.1569 10.0833 19.0411 10.1622 18.7939 10.2439C18.4353 10.311 16.9574 10.1057 16.0422 10.0366C16.0323 13.2102 16.0219 16.347 16.0115 19.4449C16.0989 19.5426 16.1703 19.5351 16.2376 19.5379C16.9788 19.5701 17.72 19.6019 18.4616 19.6317C18.9164 19.6502 19.2816 19.8021 19.4174 20.3183C19.4419 20.4105 19.4382 20.86 19.3937 20.995C19.2387 21.4656 18.9919 21.6513 18.5108 21.6792C18.1789 21.6984 17.8477 21.6764 17.5184 21.647C16.1503 21.5241 14.78 21.5685 13.4105 21.5814C13.0778 21.5842 12.7511 21.654 12.4299 21.7239C12.0295 21.8115 11.5029 21.8268 11.2953 21.4998C11.0618 21.1233 10.9456 20.8513 11.0933 20.4054C11.1606 20.2021 11.2694 20.0293 11.4082 19.901C11.6816 19.6482 11.9829 19.4288 12.3847 19.4818C12.8958 19.5493 13.4112 19.5355 13.9245 19.5556C14.0259 19.5595 14.1287 19.5791 14.2879 19.5136Z" fill="black"/>
<path fill-rule="evenodd" clip-rule="evenodd" d="M90.1824 14.5602C90.1074 14.4385 90.0039 14.4048 89.8609 14.4168C89.5625 14.4421 89.2622 14.4421 88.9627 14.451C88.8716 14.4534 88.7812 14.4506 88.692 14.4373C88.4929 14.4084 88.3398 14.2322 88.3133 14.0182C88.2606 13.591 88.3872 13.212 88.7233 12.9025C88.9216 12.7202 89.1715 12.6018 89.4437 12.599C89.8792 12.5945 90.3147 12.599 90.74 12.6018C90.9096 12.6026 91.0758 12.664 91.2016 12.7852C91.4433 13.0177 91.5292 13.33 91.5109 13.7062C91.4985 13.9403 91.5071 14.1752 91.5064 14.408C91.5882 14.4188 91.6177 14.3634 91.6498 14.3145C91.9486 13.8608 92.3549 13.54 92.7971 13.2714C93.1063 13.0839 93.4353 12.9374 93.7636 12.7873C94.3974 12.4978 95.0099 12.5528 95.6328 12.8093C96.5567 13.1899 97.0131 13.9307 97.1087 14.9612C97.263 16.6246 97.2312 18.2927 97.2338 19.9604C97.2342 20.07 97.2335 20.18 97.2331 20.2695C97.3388 20.384 97.4482 20.343 97.5472 20.3502C97.8336 20.3719 98.1204 20.3567 98.4084 20.3904C98.7744 20.4333 99.1041 20.5401 99.3973 20.8164C99.4586 20.8742 99.5041 20.9508 99.5333 21.0323C99.6035 21.2283 99.6046 21.3266 99.5359 21.6699C99.4832 21.9296 99.3118 22.1517 99.0754 22.2328C99.0007 22.2589 98.92 22.2765 98.8323 22.289C98.2101 22.3757 97.5894 22.3271 96.9687 22.342C96.4615 22.3544 95.9543 22.344 95.4472 22.3512C95.238 22.3544 95.0319 22.3468 94.8246 22.2761C94.7066 22.2364 94.6061 22.1472 94.5475 22.0308C94.3503 21.6366 94.4086 21.2162 94.6241 20.8079C94.7593 20.551 95.0173 20.4386 95.2881 20.4064C95.4815 20.3832 95.6776 20.3844 95.8606 20.3209C95.9189 20.1953 95.9013 20.0692 95.9028 19.9476C95.9174 19.0703 95.9323 18.1931 95.9753 17.3171C96.0126 16.5487 95.9047 15.7883 95.8356 15.0275C95.802 14.6581 95.6354 14.3482 95.2616 14.2338C94.8825 14.1169 94.524 14.0587 94.1266 14.2354C93.1896 14.6513 92.4598 15.3073 91.9086 16.2114C91.791 16.4045 91.7181 16.6069 91.7118 16.8325C91.68 17.9811 91.686 19.1306 91.6954 20.2796C91.6954 20.3009 91.7137 20.3221 91.729 20.3551C91.8406 20.4101 91.9695 20.3872 92.0935 20.3916C92.2899 20.3988 92.4826 20.4229 92.6764 20.4623C92.6791 20.4627 92.6817 20.4635 92.6847 20.4639C93.1384 20.5578 93.4178 21.0721 93.262 21.5386C93.2486 21.5788 93.2325 21.6193 93.2131 21.659C93.0417 22.014 92.7777 22.2026 92.4023 22.2536C91.459 22.3821 90.5152 22.2793 89.5715 22.2874C89.338 22.289 89.1114 22.2183 88.9007 22.1308C88.708 22.0513 88.5549 21.8758 88.5471 21.6273C88.5377 21.3198 88.5463 21.0115 88.5474 20.7176C88.5848 20.4197 89.6088 20.343 90.1638 20.2346L90.1824 14.5602Z" fill="black"/>
<path fill-rule="evenodd" clip-rule="evenodd" d="M82.1124 17.6335C81.5205 17.7251 80.9508 17.8006 80.3862 17.9051C79.7629 18.0205 79.1255 18.0933 78.5643 18.4356C78.302 18.5957 78.0095 18.7334 77.8327 18.9877C77.5953 19.3293 77.557 19.7385 77.7305 20.1173C77.8725 20.4283 78.0762 20.6881 78.4617 20.7789C78.8855 20.8783 79.2993 20.8755 79.7193 20.8298C80.2843 20.7683 80.8303 20.6607 81.3115 20.3043C81.5638 20.1173 81.7376 19.8896 81.8409 19.6071C82.0714 18.9799 82.0905 18.3202 82.1124 17.6335ZM83.9063 20.694C84.0376 20.7758 84.1574 20.8137 84.3201 20.791C84.4878 20.7351 84.5127 20.5821 84.5744 20.4545C84.6819 20.2323 84.8657 20.0758 85.0782 19.9952C85.5686 19.809 86.0816 20.2221 86.0425 20.7542C86.0318 20.8982 86.0126 21.0418 85.9636 21.1811C85.781 21.6952 85.3362 21.9085 84.8798 22.0775C84.6249 22.1722 84.3458 22.2121 84.074 22.2442C83.7003 22.2884 83.3236 22.1757 83.0411 21.9229C82.7345 21.6483 82.4462 21.3482 82.2326 21.0031C82.1013 21.009 82.0875 21.1076 82.0431 21.1725C81.983 21.2613 81.9336 21.3584 81.8708 21.4452C81.6304 21.7778 81.3735 22.0478 80.9233 22.1186C80.2694 22.2215 79.6136 22.3095 78.9563 22.3459C78.2569 22.3846 77.5697 22.2301 76.9254 21.9488C76.6287 21.8189 76.3886 21.606 76.2252 21.2774C75.9522 20.7284 75.868 20.1423 75.8921 19.5632C75.9223 18.8238 76.2144 18.15 76.7864 17.6382C76.7879 17.6367 76.7902 17.6355 76.7921 17.6347C77.2607 17.4434 77.7048 17.1593 78.2098 17.0971C79.0309 16.9962 79.8334 16.8076 80.6404 16.6386C81.0787 16.5466 81.5167 16.4562 81.9562 16.3709C82.0725 16.3486 82.1851 16.3216 82.3003 16.2653C82.4282 15.8075 82.316 15.3615 82.1985 14.9245C82.1545 14.7625 82.058 14.6204 81.9282 14.5168C81.0504 13.818 80.2449 13.7722 79.2901 14.3098C79.1469 14.3904 79.1144 14.5281 79.0378 14.669C78.8912 14.937 78.8143 15.2359 78.7431 15.534C78.6768 15.8118 78.4885 15.9836 78.2726 16.1335C77.6711 16.5501 77.0119 16.3968 76.5758 15.9973C76.3197 15.7625 76.1693 15.4206 76.237 15.0324C76.2703 14.8435 76.2991 14.6533 76.3343 14.4647C76.3726 14.2597 76.5 14.0993 76.5912 13.9197C76.8768 13.3571 77.3744 13.0593 77.902 12.8238C78.2653 12.6618 78.6738 12.6039 79.0757 12.5953C79.7947 12.5796 80.5102 12.6321 81.2234 12.7236C81.3762 12.7428 81.5305 12.7608 81.6843 12.7494C82.1832 12.7123 82.5289 12.9681 82.8524 13.3164C83.1965 13.6877 83.3523 14.1505 83.5353 14.604C83.5805 14.7167 83.5709 14.8376 83.5725 14.9561C83.5832 15.6702 83.5878 16.3858 83.4944 17.0936C83.4094 17.7384 83.4664 18.3891 83.4955 19.037C83.5097 19.3496 83.538 19.6615 83.5564 19.9737C83.5725 20.2448 83.6215 20.5003 83.9063 20.694Z" fill="black"/>
<path fill-rule="evenodd" clip-rule="evenodd" d="M42.5822 17.0588C41.9892 17.1515 41.4225 17.2278 40.8603 17.3319C40.2406 17.4465 39.6072 17.5212 39.0493 17.8636C38.7881 18.0232 38.4989 18.1629 38.3234 18.4168C38.0859 18.7588 38.0516 19.1696 38.2237 19.5464C38.3653 19.8559 38.5666 20.1177 38.9533 20.2061C39.3747 20.3027 39.7861 20.3019 40.2037 20.2554C40.7647 20.1928 41.3087 20.0875 41.786 19.7287C42.0364 19.5405 42.2073 19.312 42.3105 19.0303C42.54 18.4031 42.5552 17.7431 42.5822 17.0588ZM44.3719 20.12C44.4774 20.2116 44.6171 20.2346 44.7598 20.2221C44.9436 20.1591 44.9672 20.005 45.0285 19.8782C45.2238 19.4752 45.6684 19.2905 46.0752 19.3817C46.395 19.4533 46.5933 19.7777 46.5385 20.1079C46.5099 20.2785 46.4608 20.46 46.4075 20.6099C46.2241 21.1232 45.7825 21.3364 45.3288 21.5043C45.0784 21.597 44.8051 21.6393 44.5387 21.6698C44.155 21.7132 43.769 21.5923 43.4805 21.3294C43.184 21.0586 42.9065 20.7644 42.6972 20.4283C42.567 20.4385 42.5533 20.5359 42.5099 20.6013C42.4494 20.6901 42.4003 20.7867 42.3379 20.8736C42.0985 21.2069 41.8423 21.4746 41.3943 21.5454C40.7442 21.6483 40.0922 21.7363 39.4386 21.7719C38.7432 21.8107 38.06 21.6561 37.4198 21.3736C37.1248 21.2433 36.8881 21.0285 36.7251 20.7006C36.4534 20.1521 36.3719 19.5656 36.3948 18.9865C36.4146 18.492 36.5523 18.0287 36.8108 17.6226C37.0167 17.299 37.322 17.0545 37.6642 16.8921C38.0002 16.7328 38.3348 16.5677 38.7025 16.5223C39.5189 16.4226 40.3167 16.2336 41.1191 16.0642C41.5545 15.9718 41.9904 15.8822 42.4273 15.7965C42.5426 15.7742 42.6549 15.7492 42.7672 15.6893C42.8791 15.282 42.8045 14.8837 42.7029 14.4936C42.6473 14.2788 42.4616 13.9881 42.2857 13.8574C41.4487 13.2353 40.6711 13.2263 39.7709 13.7377C39.6887 13.7843 39.6446 13.8508 39.6065 13.9243C39.4402 14.246 39.3073 14.5836 39.2342 14.9397C39.1737 15.2323 38.9792 15.4072 38.7592 15.5606C38.1605 15.9789 37.4993 15.8192 37.073 15.4217C36.8199 15.1858 36.6684 14.8442 36.7385 14.4557C36.7723 14.2667 36.8005 14.0766 36.8351 13.8876C36.8736 13.6829 37.0011 13.5229 37.0921 13.3433C37.3772 12.7819 37.8685 12.4802 38.3961 12.2486C38.7585 12.0893 39.1634 12.0291 39.5635 12.0209C40.2768 12.0068 40.9874 12.0584 41.6954 12.1496C41.8217 12.1656 42.0299 12.1852 42.1571 12.1758C42.6538 12.1374 42.9952 12.3992 43.3168 12.7451C43.6613 13.1152 43.8128 13.5796 43.9951 14.0331C44.0393 14.1427 44.0298 14.2608 44.0313 14.3766C44.0416 15.1474 44.0043 15.9167 43.9346 16.6839C43.8805 17.2763 43.9281 17.8722 43.9552 18.4661C43.9696 18.7788 43.9959 19.0906 44.0164 19.4032C44.0328 19.6599 44.0655 19.9095 44.3719 20.12Z" fill="black"/>
<path fill-rule="evenodd" clip-rule="evenodd" d="M49.956 20.5639C49.9971 20.3343 50.0948 20.1294 50.3116 19.9827C50.5105 19.8483 50.7055 19.7853 50.9448 19.7901C51.6626 19.8047 52.3811 19.8008 53.0993 19.8008C53.2164 19.8008 53.3374 19.8253 53.4851 19.758C53.513 16.6719 53.541 13.5767 53.5689 10.4756C53.4103 10.4118 53.266 10.432 53.1264 10.4252C52.4695 10.3939 51.8103 10.4415 51.1561 10.3337C50.6412 10.2492 50.4756 10.2457 50.3151 9.96382C50.3104 9.9329 50.2705 9.77751 50.2681 9.74143C50.2581 9.57137 50.2596 9.42113 50.3178 9.21777C50.4042 8.92086 50.6547 8.79163 50.9429 8.67509C51.1011 8.61126 51.255 8.57281 51.4268 8.574C52.2892 8.57995 53.1505 8.58431 54.0117 8.64179C54.6194 8.68262 55.1735 9.27565 55.1712 9.9C55.1611 13.0253 55.1498 16.1506 55.1413 19.2755C55.1409 19.4186 55.1072 19.5669 55.1886 19.7358C56.4915 19.7627 58.1598 19.8305 59.1036 19.8174C59.4526 19.8127 59.7807 21.0526 59.2335 21.7135C59.0098 21.7555 58.7728 21.7781 58.5332 21.7777C55.9952 21.7725 53.4568 21.7594 50.9184 21.7717C50.3732 21.7745 50.1091 21.4031 49.9552 20.9226C49.9187 20.8088 49.9327 20.6911 49.956 20.5639Z" fill="black"/>
<path fill-rule="evenodd" clip-rule="evenodd" d="M31.8966 16.7977C32.2373 16.649 32.5414 16.6716 32.8327 17.0209C32.8961 17.0969 32.9337 17.1924 32.9378 17.2933C32.9603 17.8673 32.9835 18.4732 33.0052 19.0786C33.0067 19.1178 33.0023 19.1574 32.9912 19.1946C32.7796 19.9258 32.4224 20.5604 31.8704 21.0649C31.8564 21.0777 31.8409 21.0894 31.8244 21.0987C31.184 21.4596 30.4979 21.691 29.7819 21.7589C29.3347 21.8012 28.8694 21.793 28.4639 21.5089C28.33 21.4154 28.1932 21.3257 28.0461 21.2582C27.4953 21.0044 27.1982 20.5293 26.953 19.9875C26.6817 19.3891 26.553 18.7312 26.5552 18.0684C26.5593 16.7911 26.5382 15.5134 26.525 14.2362C26.5239 14.1364 26.5405 14.0336 26.5143 13.9203C26.501 13.8624 26.4538 13.8194 26.397 13.8163C26.188 13.8058 25.9697 13.7902 25.7515 13.7902C25.319 13.791 24.8866 13.8019 24.4545 13.8124C23.8605 13.8263 23.5243 13.5279 23.4421 12.9092C23.4329 12.839 23.4218 12.7687 23.4133 12.7117C23.4572 12.2634 24.0633 12.2436 24.4548 12.2335C25.0112 12.2192 25.5675 12.2751 26.1216 12.343C26.2665 12.3608 26.4133 12.3892 26.5888 12.3457C26.6853 11.2202 26.5158 10.0737 26.7119 8.96452C26.7307 8.85934 26.7937 8.76697 26.8811 8.71186C27.231 8.49258 27.6218 8.53566 27.9978 8.83528C28.1051 8.92066 28.1704 9.05495 28.1704 9.19622C28.1704 10.229 28.0583 11.2749 28.0277 12.3116C28.1162 12.4078 28.2128 12.3752 28.2991 12.376C28.9815 12.3799 29.6635 12.3969 30.343 12.3073C30.4894 12.2879 30.6391 12.3019 30.7862 12.2898C31.0276 12.2704 31.2385 12.3236 31.4258 12.6038C31.518 12.8266 31.536 13.1293 31.4878 13.4336C31.3042 13.6303 31.0892 13.6913 30.8363 13.6944C30.0293 13.7049 29.2219 13.7332 28.4148 13.7573C28.2913 13.7608 28.1637 13.7398 28.0484 13.8015C27.9894 13.8904 28.0126 13.9886 28.0137 14.0813C28.0332 15.5744 28.0388 17.0678 28.083 18.5605C28.1007 19.1593 28.3518 19.6534 28.8989 19.9386C29.533 20.2693 30.1185 20.1909 30.6501 19.6837C30.6752 19.6596 30.6977 19.6313 30.7257 19.6115C31.2577 19.2346 31.4096 18.6567 31.4557 18.0377C31.4774 17.7427 31.5117 17.4536 31.5829 17.173C31.626 17.0038 31.7425 16.8648 31.8966 16.7977Z" fill="black"/>
<path fill-rule="evenodd" clip-rule="evenodd" d="M102.613 20.2451C102.702 20.133 102.822 20.0523 102.957 20.0233C103.154 19.9812 103.352 19.9816 103.55 19.9836C104.29 19.9895 105.03 19.9987 105.771 20.0039C105.882 20.0046 105.997 20.0261 106.106 19.984C106.168 19.6724 106.165 14.1186 106.105 13.7307C105.572 13.7287 105.04 13.7152 104.508 13.7287C104.087 13.7391 103.667 13.7784 103.251 13.5427C103.103 13.3869 103.074 13.1668 103.1 12.9255C103.136 12.5968 103.315 12.3882 103.616 12.3441C103.672 12.3361 103.73 12.3365 103.787 12.3373C104.835 12.348 105.882 12.3596 106.93 12.3723C107.009 12.3731 107.088 12.3858 107.146 12.3914C107.284 12.4267 107.474 12.8786 107.489 13.2109C107.555 14.679 107.516 16.1475 107.538 17.6157C107.548 18.3132 107.561 19.0103 107.573 19.7078C107.575 19.7916 107.565 19.8787 107.606 19.9574C107.726 20.0277 107.854 19.9947 107.976 19.9967C108.693 20.007 109.411 20.0054 110.128 20.0233C110.458 20.0313 110.787 20.0651 111.115 20.1044C111.368 20.1346 111.551 20.3003 111.675 20.5316C111.796 20.7582 111.857 21.0026 111.807 21.2685C111.796 21.3285 111.786 21.3893 111.777 21.4501C111.759 21.5781 111.698 21.6977 111.6 21.7736C111.415 21.9175 111.199 21.9815 110.963 22.0045C110.6 22.0399 110.237 22.055 109.873 22.0526C107.879 22.0419 105.886 22.034 103.893 22.032C103.63 22.0316 103.371 21.991 103.111 21.9708C102.854 21.9509 102.708 21.7458 102.595 21.5395C102.427 21.2339 102.424 20.8826 102.465 20.542C102.479 20.4263 102.543 20.3333 102.613 20.2451Z" fill="black"/>
<path fill-rule="evenodd" clip-rule="evenodd" d="M67.687 12.0309C67.9805 12.0964 68.0609 12.5634 68.076 12.884C68.1458 14.3705 68.1043 15.8579 68.1269 17.3448C68.1375 18.0454 68.1507 18.7456 68.1639 19.4461C68.1654 19.5188 68.1764 19.591 68.1824 19.6593C68.308 19.7455 68.4397 19.7084 68.5642 19.71C69.3215 19.722 70.0787 19.7212 70.8352 19.7395C71.1605 19.7471 71.4872 19.7735 71.8094 19.8214C72.1747 19.8757 72.4931 20.292 72.5025 20.7559C72.5056 20.9028 72.4833 21.0501 72.4633 21.1958C72.4497 21.2976 72.4018 21.3914 72.3271 21.4576C72.1588 21.6073 71.9649 21.6943 71.7445 21.7115C71.4548 21.7347 71.1673 21.7794 70.8745 21.7778C68.8125 21.7662 66.7513 21.7594 64.6893 21.7538C64.3516 21.753 64.0158 21.7327 63.6785 21.7063C63.3699 21.6824 63.1967 21.4864 63.062 21.2373C62.9001 20.9371 62.8816 20.593 62.9431 20.2709C62.9899 20.0266 63.131 19.799 63.4118 19.7431C63.6193 19.702 63.8279 19.6952 64.0377 19.6972C64.7946 19.704 65.5518 19.7116 66.3091 19.7188C66.4245 19.72 66.5404 19.7196 66.6517 19.72C66.7245 19.425 66.7332 13.9314 66.6649 13.4173C66.5864 13.3474 66.4894 13.3762 66.4011 13.3782C65.8888 13.3885 65.3764 13.3961 64.8651 13.4225C64.4886 13.4416 64.1234 13.4221 63.7464 13.2329C63.5755 13.0736 63.56 12.8357 63.591 12.5826C63.6264 12.2888 63.7989 12.0892 64.0717 12.0325C64.106 12.0257 64.1411 12.0186 64.175 12.0186C65.3624 12.0225 66.5498 12.0269 67.687 12.0309Z" fill="black"/>
<path fill-rule="evenodd" clip-rule="evenodd" d="M106.371 9.14952C107.003 9.15315 107.494 9.66058 107.486 10.3011C107.478 10.929 106.962 11.4528 106.346 11.4444C105.715 11.4357 105.228 10.8628 105.229 10.2764C105.229 9.7366 105.71 9.11569 106.371 9.14952Z" fill="black"/>
<path fill-rule="evenodd" clip-rule="evenodd" d="M66.859 8.57488C67.4919 8.57161 67.9903 9.07377 67.9889 9.71202C67.9868 10.343 67.4845 10.8681 66.8636 10.8703C66.2137 10.8724 65.7366 10.2779 65.732 9.71748C65.7277 9.15601 66.219 8.54723 66.859 8.57488Z" fill="black"/>
<path fill-rule="evenodd" clip-rule="evenodd" d="M34.7662 35.5451C34.9122 35.1028 34.6366 34.8805 33.9376 34.8782L31.9594 34.8713L30.9269 37.9607L32.9051 37.9676C33.6041 37.9703 34.0257 37.7526 34.1713 37.3099L34.7662 35.5451ZM34.7453 33.849C35.6219 33.852 36.2405 34.0004 36.5996 34.2867C36.9579 34.5757 37.0451 34.9985 36.8633 35.5524L36.2687 37.3175C36.0846 37.8714 35.7183 38.2927 35.1703 38.5759C34.6222 38.8619 33.9071 39.0029 33.0308 38.9999L28.4917 38.9842L30.2061 33.8333L34.7453 33.849Z" fill="black"/>
<path fill-rule="evenodd" clip-rule="evenodd" d="M43.7702 38.9999L37.5195 38.9773L39.168 33.8333L45.419 33.8558L45.0881 34.8851L40.8647 34.8698L40.5475 35.8627L43.869 35.8746L43.5396 36.9019L40.2181 36.8897L39.8762 37.9553L44.0999 37.9706L43.7702 38.9999Z" fill="black"/>
<path fill-rule="evenodd" clip-rule="evenodd" d="M47.8861 37.9556L52.1899 37.9706L51.8451 38.9999L45.4189 38.9777L47.1447 33.8333L49.267 33.8405L47.8861 37.9556Z" fill="black"/>
<path fill-rule="evenodd" clip-rule="evenodd" d="M57.3299 38.9999L53.3184 38.9854L53.6443 37.9545L54.646 37.9579L55.6237 34.868L54.6223 34.8641L54.9497 33.8333L58.9608 33.8478L58.6335 34.8787L57.6295 34.8753L56.6518 37.9652L57.6558 37.969L57.3299 38.9999Z" fill="black"/>
<path fill-rule="evenodd" clip-rule="evenodd" d="M63.1331 37.4531L66.2919 33.8547L68.553 33.8627L63.785 38.9999L61.4658 38.9919L60.0894 33.8333L62.3505 33.8409L63.1331 37.4531Z" fill="black"/>
<path fill-rule="evenodd" clip-rule="evenodd" d="M74.2394 38.9999L67.9888 38.9773L69.6372 33.8333L75.8882 33.8562L75.5573 34.8851L71.3339 34.8698L71.0167 35.8627L74.3383 35.8746L74.0089 36.9019L70.6873 36.8897L70.3454 37.9553L74.5692 37.9706L74.2394 38.9999Z" fill="black"/>
<path fill-rule="evenodd" clip-rule="evenodd" d="M82.1764 35.3214C82.2729 35.0276 82.092 34.8791 81.6297 34.8772L79.3189 34.8692L78.8119 36.4124L81.1228 36.4204C81.5855 36.4219 81.8639 36.275 81.9604 35.9812L82.1764 35.3214ZM77.5789 33.8333L82.4314 33.8505C83.2388 33.8531 83.7877 33.9736 84.076 34.207C84.3666 34.4404 84.4282 34.8145 84.258 35.3286L84.0423 35.9885C83.9073 36.3959 83.6954 36.7119 83.4105 36.9365C83.1256 37.161 82.7401 37.3079 82.2521 37.3791L83.1642 38.9999L80.9116 38.9919L80.0907 37.4468L78.4744 37.441L77.9675 38.9816L75.8882 38.9743L77.5789 33.8333Z" fill="black"/>
<path fill-rule="evenodd" clip-rule="evenodd" d="M85.6233 33.8394H87.522L88.5871 36.4584L91.1378 33.8394H93.1336L89.1468 37.6969L88.7423 39L86.8632 38.993L87.2674 37.6899L85.6233 33.8394Z" fill="black"/>
<path fill-rule="evenodd" clip-rule="evenodd" d="M101.842 29.2407L20.5923 28.8776L20.5945 28.0925L101.844 28.4556L101.842 29.2407Z" fill="black"/>
</g>
<defs>
<clipPath id="clip0">
<rect x="11" y="8" width="101" height="31" fill="white"/>
</clipPath>
</defs>
</svg>
