<svg width="79" height="66" viewBox="0 0 79 66" fill="none" xmlns="http://www.w3.org/2000/svg">
<g clip-path="url(#clip0)">
<path d="M0.29126 0V47.1596H60.4828L78.2913 66V0H0.29126Z" fill="white"/>
<path d="M27.9671 14.0566V16.5047H31.1106V18.8592H27.9624V22.192C27.9624 23.1703 28.7518 24.1486 29.7338 24.1486C30.4198 24.1486 31.5053 23.9566 32.0926 22.7771L32.7786 24.9303C32.3246 25.4723 31.7528 25.9043 31.1064 26.1938C30.4601 26.4833 29.7561 26.6227 29.0478 26.6013C27.1777 26.6013 25.1149 25.3281 25.1149 22.8754V18.9575H23.4421V16.603H25.1149V14.0566H27.9624H27.9671Z" fill="black"/>
<path d="M20.886 16.5047V22.1919C20.886 23.1702 21.5767 24.3451 22.8548 24.3451C23.158 24.3391 23.457 24.2734 23.7346 24.1519C24.0122 24.0304 24.263 23.8554 24.4726 23.6371C24.6822 23.4187 24.8464 23.1613 24.9558 22.8796C25.0652 22.5978 25.1177 22.2973 25.1102 21.9953L25.8009 24.64C24.5229 26.503 22.7561 26.503 21.8681 26.503C21.367 26.5091 20.8699 26.4136 20.4071 26.2222C19.9443 26.0309 19.5254 25.7477 19.176 25.3899C18.8265 25.0322 18.5538 24.6073 18.3744 24.1412C18.195 23.6751 18.1127 23.1775 18.1325 22.6787V18.8638H16.2671V16.5094H20.886V16.5047ZM46.5414 11.7021V21.9953C46.5414 22.9783 47.0348 24.1485 48.1155 24.1485C48.8015 24.1485 49.7883 24.1485 50.6717 22.4821L51.7524 24.5417C50.573 26.3064 49.1962 26.6013 47.8195 26.6013C45.6581 26.6013 43.694 25.0332 43.694 22.5804V14.1549H42.0165V11.7958H46.5367V11.7021H46.5414Z" fill="black"/>
<path d="M42.4158 24.4434C42.8058 24.4434 43.6938 24.4434 43.6938 22.3838L44.7746 25.0331C43.8865 26.3063 42.1197 26.4046 41.5324 26.4046C40.5456 26.4046 39.3709 26.0114 38.9715 25.328C38.4887 25.7464 37.9274 26.0653 37.3201 26.2662C36.7128 26.467 36.0715 26.5459 35.4334 26.4983C33.5679 26.4046 31.8952 25.328 31.9938 23.5634C32.0925 21.1106 34.3526 20.3289 36.3167 20.3289C37.1061 20.3289 37.9895 20.4225 38.6802 20.6238V20.2306C38.6802 19.2476 37.8908 18.5642 36.4154 18.5642C35.0434 18.5642 33.864 18.9574 32.9759 19.2476V16.8042C34.206 16.3617 35.5023 16.1291 36.8101 16.1161C39.7609 16.1161 41.6264 17.2957 41.6264 20.5302V23.1749C41.5324 24.2514 42.1197 24.448 42.4158 24.448V24.4434ZM34.9447 23.3668C34.9447 24.0502 35.6307 24.5417 36.5141 24.5417C37.3035 24.5417 38.0882 24.3451 38.6755 23.76V22.1872C38.2855 22.0889 37.5948 21.9906 37.0074 21.9906C36.0207 21.9906 34.94 22.3791 34.94 23.3621L34.9447 23.3668ZM56.0752 16.5046H59.026L54.7031 27.4812C53.6224 30.2289 52.0483 31.0106 50.4742 31.0106C49.9808 31.0106 49.4874 30.917 48.9001 30.814V28.4642C49.2948 28.5578 49.6895 28.5578 50.0795 28.5578C51.0662 28.5578 51.8509 27.8744 52.4383 26.4046L47.8194 16.5046H50.7702L53.6177 23.0719L56.0752 16.5046ZM21.1819 13.5651C21.1819 14.548 20.3972 15.2314 19.5091 15.2314C19.0704 15.2173 18.6536 15.0371 18.3437 14.7275C18.0337 14.4179 17.854 14.0021 17.8411 13.5651C17.854 13.128 18.0337 12.7123 18.3437 12.4027C18.6536 12.093 19.0704 11.9128 19.5091 11.8987C20.4959 11.8987 21.1819 12.6804 21.1819 13.5651ZM18.0384 34.8349V32.9719H18.6258C19.1191 32.0919 19.3118 31.0106 19.3118 29.6391H22.554V32.9719H23.146V34.8349H22.2626V33.7583H18.9218V34.8349H18.0384ZM19.6078 32.9719H21.5766V30.3272H20.1012C20.1012 31.4974 19.9038 32.2838 19.6078 32.9719ZM25.7021 29.5408C26.8815 29.5408 27.9623 30.3272 27.9623 31.694C27.9623 33.1685 26.8815 33.8519 25.7068 33.8519C24.5228 33.8519 23.442 33.0702 23.442 31.6987C23.4651 31.1175 23.7136 30.5679 24.1351 30.1655C24.5566 29.7631 25.1183 29.5391 25.7021 29.5408ZM25.7021 30.4208C24.9175 30.4208 24.4241 30.9123 24.4241 31.797C24.4241 32.5787 24.9175 33.1685 25.7021 33.1685C26.4915 33.1685 26.9802 32.677 26.9802 31.797C27.0789 30.9123 26.4915 30.4208 25.7021 30.4208ZM28.7517 33.7583V29.6391H29.7337L31.1105 31.7923L32.4872 29.6391H33.4693V33.7583H32.5859V31.0106L31.4065 32.7753H30.8144L29.6397 31.0106V33.7583H28.747H28.7517ZM36.5188 29.5408C37.6935 29.5408 38.7742 30.3272 38.7742 31.694C38.7742 33.1685 37.6935 33.8519 36.5188 33.8519C35.3347 33.8519 34.254 33.0702 34.254 31.6987C34.254 30.3272 35.3347 29.5408 36.5141 29.5408H36.5188ZM36.5188 30.4208C35.7294 30.4208 35.236 30.9123 35.236 31.797C35.236 32.5787 35.7294 33.1685 36.5141 33.1685C37.3035 33.1685 37.7921 32.677 37.7921 31.797C37.7921 30.9123 37.3035 30.4208 36.5141 30.4208H36.5188ZM39.5636 33.7536V29.6344H40.447V32.2838L42.6084 29.6391H43.3978V33.7583H42.5144V31.1089L40.353 33.7536H39.5636ZM41.5277 29.0493C41.0693 29.0718 40.6173 28.9344 40.2496 28.6608V27.8744C40.6167 28.1497 41.0687 28.2888 41.5277 28.2676C41.9224 28.2676 42.3171 28.1693 42.8058 27.8744V28.7544C42.4158 28.951 42.0211 29.0493 41.5277 29.0493Z" fill="black"/>
</g>
<defs>
<clipPath id="clip0">
<rect x="0.29126" width="78" height="66" fill="white"/>
</clipPath>
</defs>
</svg>
