<svg width="106" height="56" viewBox="0 0 106 56" fill="none" xmlns="http://www.w3.org/2000/svg">
<path d="M28.998 5.69507V11.6271H36.795V17.3221H28.998V25.3901C28.998 27.7631 30.947 30.1361 33.384 30.1361C35.09 30.1361 37.77 29.6611 39.232 26.8141L40.938 32.0341C37.77 35.5941 34.115 36.0681 31.678 36.0681C27.048 36.0681 21.931 32.9831 21.931 27.0511V17.5591H18.032V11.6271H22.175V5.69507H28.998Z" fill="#FAF7F5"/>
<path d="M11.453 11.627V25.39C11.453 27.763 13.159 30.61 16.326 30.61C18.763 30.61 21.931 28.712 21.931 24.915L23.637 31.322C20.469 35.831 16.083 35.831 13.89 35.831C9.26 35.831 4.63 32.508 4.63 26.576V17.322H0V11.627H11.453ZM75.053 0V24.915C75.053 27.288 76.271 30.135 78.952 30.135C80.657 30.135 83.094 30.135 85.287 26.102L87.967 31.085C85.043 35.355 81.632 36.068 78.221 36.068C72.86 36.068 67.986 32.271 67.986 26.339V5.695H63.843V0H75.053Z" fill="#FAF7F5"/>
<path d="M64.8179 30.848C65.7929 30.848 67.9859 30.848 67.9859 25.864L70.6659 32.271C68.4739 35.356 64.0869 35.593 62.6259 35.593C60.1879 35.593 57.2639 34.644 56.2899 32.983C53.8529 34.881 51.1719 36.068 47.5169 35.831C42.8869 35.593 38.7449 32.983 38.9879 28.711C39.2319 22.78 44.8369 20.881 49.7099 20.881C51.6599 20.881 53.8529 21.119 55.5589 21.593V20.644C55.5589 18.271 53.6089 16.61 49.9539 16.61C46.5419 16.61 43.6179 17.56 41.4249 18.271V12.576C43.3749 11.864 47.0299 10.916 50.9289 10.916C58.2389 10.916 62.8689 13.763 62.8689 21.593V28C62.6249 30.136 64.0869 30.848 64.8189 30.848H64.8179ZM46.2979 28.238C46.2979 29.898 48.0049 31.085 50.1979 31.085C52.1479 31.085 54.0969 30.61 55.5579 29.186V25.39C54.5839 25.153 52.8779 24.915 51.4159 24.915C48.9789 24.915 46.2989 25.627 46.2989 28.237L46.2979 28.238ZM98.6899 11.627H106L95.2779 37.967C92.5979 44.61 88.6989 46.508 84.7999 46.508C83.5819 46.508 82.3629 46.271 80.9009 46.034V40.339C81.8759 40.576 82.8509 40.576 83.8249 40.576C86.2619 40.576 88.2119 38.916 89.6739 35.356L78.2199 11.627H85.5299L92.5969 27.525L98.6889 11.627H98.6899ZM12.1839 4.50802C12.1839 6.88102 10.2339 8.54202 8.04093 8.54202C5.84793 8.54202 3.89893 6.64402 3.89893 4.50802C3.89893 2.37302 5.84893 0.47502 8.04093 0.47502C10.4779 0.23702 12.1839 2.13502 12.1839 4.50802ZM4.38593 56V51.492H5.84793C7.06693 49.356 7.55393 46.746 7.55393 43.424H15.5949V51.492H17.0579V56H14.8639V53.39H6.57993V56H4.38593ZM8.28593 51.492H13.1589V45.085H9.50293C9.50293 47.932 9.01593 49.83 8.28493 51.492H8.28593ZM23.3929 43.186C26.3169 43.186 28.9979 45.085 28.9979 48.406C28.9979 51.966 26.3179 53.627 23.3929 53.627C20.4689 53.627 17.7889 51.729 17.7889 48.407C18.0319 44.847 20.7129 43.187 23.3929 43.187V43.186ZM23.3929 45.085C21.4429 45.085 20.2249 46.271 20.2249 48.407C20.2249 50.305 21.4439 51.729 23.3929 51.729C25.3429 51.729 26.5609 50.542 26.5609 48.407C26.8049 46.508 25.3429 45.085 23.3929 45.085ZM30.9469 53.39V43.424H33.3839L36.7949 48.644L40.2069 43.424H42.6439V53.39H40.4499V46.508L37.5259 51.017H36.0639L33.1399 46.508V53.39H30.9469ZM50.1979 43.186C53.1219 43.186 55.8019 45.085 55.8019 48.406C55.8019 51.966 53.1219 53.627 50.1979 53.627C47.2739 53.627 44.5929 51.729 44.5929 48.407C44.5929 44.847 47.2729 43.187 50.1979 43.187V43.186ZM50.1979 45.085C48.2479 45.085 47.0299 46.271 47.0299 48.407C47.0299 50.305 48.2479 51.729 50.1979 51.729C52.1479 51.729 53.3649 50.542 53.3649 48.407C53.3649 46.508 52.1469 45.085 50.1979 45.085ZM57.7519 53.39V43.424H59.9449V49.831L65.3049 43.424H67.2549V53.39H65.0619V46.983L59.7019 53.39H57.7519ZM62.6249 42C61.4069 42 60.4319 41.763 59.4579 41.05V39.153C60.4319 39.865 61.4069 40.102 62.6249 40.102C63.5999 40.102 64.5749 39.865 65.7929 39.152V41.051C64.8179 41.763 63.5999 42 62.6249 42Z" fill="#FAF7F5"/>
</svg>
