<svg width="79" height="66" viewBox="0 0 79 66" fill="none" xmlns="http://www.w3.org/2000/svg">
<path d="M0.60376 0V47.1368H60.4592L78.2912 66V47.1368V0H0.60376Z" fill="white"/>
<path d="M60.1157 17.1016L57.4087 24.4922L54.2291 17.1016H50.8774L54.0572 23.8906C53.4556 25.5235 52.4673 25.6953 51.479 25.6953C50.2759 25.6953 49.4595 24.5781 49.4595 23.246V11.7305H44.4751V14.3946H46.3228V23.8476C46.2798 25.8672 45.4204 25.9961 44.9907 25.9961C44.561 25.9961 43.8735 25.7813 43.8735 24.707V21.7422C43.8735 18.1329 41.7681 16.8008 38.4594 16.8008C36.7837 16.8008 35.1079 17.2305 34.2055 17.5313V20.2812C35.2368 19.8515 36.5689 19.4648 38.0728 19.4648C39.7915 19.4648 40.6509 20.2383 40.6509 21.3125V21.6992C39.8774 21.5274 38.9321 21.3985 38.0298 21.3985C36.0962 21.3985 33.8619 22.086 33.3462 24.1914C32.7017 25.4805 31.4126 25.7383 30.6821 25.7383C29.4791 25.7383 28.6626 24.75 28.6626 23.5898V19.7656H32.1431V17.1016H28.6626V14.3087H25.5259V17.1016H23.6782V19.7656H25.5259V23.246C25.5259 24.9648 24.065 25.8672 22.9907 25.8672C21.5298 25.8672 20.7564 24.6211 20.7564 23.4609V17.1016H15.4712V19.7656H17.5338V24.1054C17.5338 26.8124 19.6392 28.4023 21.7447 28.4023C22.8188 28.4023 24.6665 28.4023 26.0844 26.4688C26.9438 27.7578 28.4478 28.4023 29.8658 28.4023C30.8969 28.4023 32.315 28.2304 33.69 26.8984C34.3774 27.8437 35.6235 28.3594 36.9556 28.4023C38.5883 28.4453 39.8345 27.8867 40.9087 27.0702C41.3814 27.8867 42.3697 28.4023 44.0024 28.4023C45.6353 28.4023 46.5806 28.0156 47.268 26.8554C48.1274 27.8437 49.4165 28.4023 50.7485 28.4023C52.2524 28.4023 53.7134 28.1445 55.0454 26.2969L55.9477 28.2304L55.9048 28.2734C55.3032 29.9063 54.4439 30.6797 53.2837 30.6797C52.854 30.6797 52.4243 30.5938 51.9946 30.5079V33.1289C52.5532 33.2578 53.1548 33.3867 53.7134 33.3867C55.4751 33.3867 57.1939 32.4414 58.44 29.3906L63.2954 17.1016H60.1157ZM40.6079 25.2656C39.8774 25.9102 39.018 26.168 38.1588 26.168C37.2134 26.168 36.44 25.6524 36.44 24.8359C36.44 23.7187 37.6001 23.332 38.7602 23.332C39.4048 23.332 40.1353 23.4609 40.6509 23.5898V25.2656H40.6079ZM19.1235 15.8554C20.1548 15.8554 21.0142 14.996 21.0142 13.9648C21.0142 12.9336 20.1548 12.0742 19.1235 12.0742C18.0922 12.0742 17.233 12.9336 17.233 13.9648C17.233 14.996 18.0493 15.8554 19.1235 15.8554Z" fill="black"/>
<path d="M18.9942 36.4375C18.3926 36.4375 17.834 36.3086 17.4473 36.0937V35.3203C17.791 35.4922 18.3496 35.664 18.8653 35.664C19.4669 35.664 19.9825 35.5351 19.9825 35.1054C19.9825 34.6759 19.5528 34.5899 19.1231 34.5899H18.3067V33.9024H19.1231C19.5528 33.9024 19.8966 33.7735 19.8966 33.4297C19.8966 33.043 19.5098 32.8711 18.9083 32.8711C18.4356 32.8711 17.877 33 17.5332 33.2149V32.4414C17.9199 32.2695 18.4785 32.0977 19.0372 32.0977C20.2833 32.0977 20.8418 32.6133 20.8418 33.3008C20.8418 33.7735 20.5411 34.1173 20.1114 34.2032C20.5841 34.3321 20.9277 34.6759 20.9277 35.1914C20.9277 35.9219 20.2833 36.4375 18.9942 36.4375Z" fill="black"/>
<path d="M25.6111 35.6643C25.697 35.6643 25.783 35.6213 25.8689 35.6213V36.2659C25.697 36.3518 25.4822 36.3518 25.3103 36.3518C24.9236 36.3518 24.6228 36.2229 24.4939 35.8791C24.1071 36.2229 23.5915 36.3948 22.9469 36.3948C22.2164 36.3948 21.5291 36.008 21.5291 35.1486C21.5291 34.1174 22.5172 33.7736 23.3337 33.7736C23.6774 33.7736 24.0642 33.8166 24.4079 33.9025V33.7736C24.4079 33.258 24.0212 32.9142 23.3337 32.9142C22.7321 32.9142 22.2164 33.0861 21.8728 33.215V32.3987C22.2164 32.2698 22.775 32.1409 23.4196 32.1409C24.5798 32.1409 25.3103 32.6993 25.3103 33.9455V35.4065C25.3103 35.5783 25.4392 35.6643 25.6111 35.6643ZM22.4743 35.1057C22.4743 35.4924 22.818 35.7073 23.2477 35.7073C23.6774 35.7073 24.1071 35.5354 24.4079 35.2346V34.5471C24.1501 34.5041 23.8063 34.4611 23.5055 34.4611C22.9899 34.4611 22.4743 34.59 22.4743 35.1057Z" fill="black"/>
<path d="M26.5564 36.3086V32.2266H29.6073V33.043H27.4588V36.3086H26.5564Z" fill="black"/>
<path d="M32.1427 32.1409C33.3027 32.1409 34.334 32.8712 34.334 34.2892C34.334 35.7073 33.2597 36.4378 32.1427 36.4378C31.0254 36.4378 29.9512 35.7073 29.9512 34.2892C29.9512 32.8712 31.0254 32.1409 32.1427 32.1409ZM32.1427 32.9572C31.3692 32.9572 30.8535 33.4728 30.8535 34.2892C30.8535 35.1057 31.3692 35.6213 32.1427 35.6213C32.9161 35.6213 33.4316 35.1057 33.4316 34.2892C33.4316 33.4728 32.9161 32.9572 32.1427 32.9572Z" fill="black"/>
<path d="M37.6428 32.1409C38.8459 32.1409 39.6622 33.129 39.6622 34.2892C39.6622 35.4494 38.8459 36.4378 37.6428 36.4378C36.9123 36.4378 36.4396 36.137 36.1818 35.7932V38.1994H35.2795V32.2268H36.0958V32.8712C36.3966 32.4846 36.8693 32.1409 37.6428 32.1409ZM37.4709 32.9142C36.8263 32.9142 36.3537 33.3009 36.1818 33.7736V34.7619C36.3966 35.1916 36.8693 35.6213 37.4709 35.6213C38.2014 35.6213 38.717 35.0627 38.717 34.2892C38.717 33.4728 38.2014 32.9142 37.4709 32.9142Z" fill="black"/>
<path d="M42.4981 32.1409C43.6583 32.1409 44.6895 32.8712 44.6895 34.2892C44.6895 35.7073 43.6154 36.4378 42.4981 36.4378C41.3809 36.4378 40.3067 35.7073 40.3067 34.2892C40.2637 32.8712 41.338 32.1409 42.4981 32.1409ZM42.4981 32.9572C41.7247 32.9572 41.209 33.4728 41.209 34.2892C41.209 35.1057 41.7247 35.6213 42.4981 35.6213C43.2716 35.6213 43.7873 35.1057 43.7873 34.2892C43.7873 33.4728 43.2286 32.9572 42.4981 32.9572Z" fill="black"/>
<path d="M45.1189 37.4259V35.5783H45.6775C46.1502 34.7189 46.3221 33.6877 46.3221 32.2698H49.5017V35.5783H50.1033V37.4259H49.2439V36.3088H45.9783V37.4259H45.1189ZM46.6229 35.5783H48.5993V33.0001H47.1813C47.1384 34.0744 46.9666 34.8478 46.6229 35.5783Z" fill="black"/>
</svg>
