<svg width="145" height="47" viewBox="0 0 145 47" fill="none" xmlns="http://www.w3.org/2000/svg">
<g clip-path="url(#clip0)">
<path d="M0.0420923 23.7009C0.0420923 16.5379 0.0830923 9.41588 9.22848e-05 2.25288C9.22848e-05 0.711884 0.292092 0.086884 2.04009 0.086884C15.6601 0.169884 29.2371 0.169884 42.8561 0.086884C44.4801 0.086884 44.8141 0.627884 44.8141 2.12688C44.7725 13.2335 44.7725 24.3403 44.8141 35.4469C44.8141 36.9459 44.3141 37.4869 42.9401 37.7789C29.1541 40.7769 15.4101 43.7759 1.66609 46.8989C-0.0419077 47.2759 9.22848e-05 46.5669 9.22848e-05 45.3599C0.0420923 38.1529 0.0420923 30.9069 0.0420923 23.6999V23.7009ZM20.0751 21.4939C20.0751 23.4939 19.9911 25.5339 20.1161 27.5339C20.1581 28.2409 19.4501 29.4909 20.9911 29.6159C22.9481 29.7819 24.6561 28.7409 24.6561 27.3659C24.6981 23.1189 24.6141 18.9119 24.6981 14.6639C24.7391 12.8729 23.6151 13.0399 22.5321 13.0809C21.4491 13.1229 20.0321 12.5809 20.0751 14.6219C20.1161 16.9119 20.0751 19.2029 20.0751 21.4939ZM90.7521 37.1529C88.5021 37.7359 86.9201 37.5269 85.6711 35.7779C84.7541 34.4869 83.5461 33.4039 82.5051 32.1959C82.0471 31.6549 81.4231 31.5719 80.7981 31.6959C80.0061 31.8629 80.2981 32.5709 80.2561 33.0709C80.2151 33.9039 80.1731 34.7369 80.2561 35.5699C80.3401 36.7779 80.1311 37.4859 78.6321 37.4439C77.0491 37.4439 77.0081 36.6109 77.0491 35.4869C77.0911 31.4469 77.1331 27.4479 77.0491 23.4089C77.0081 22.0339 77.5071 21.5759 78.8401 21.6589C80.8401 21.7429 82.8801 21.6589 84.8801 21.7009C87.7111 21.7839 89.6691 23.2009 90.2101 25.4909C90.7521 27.8649 89.7101 29.8219 87.0451 31.0709C86.0871 31.5299 86.0871 31.8629 86.7121 32.5299C87.9621 34.0289 89.2111 35.4869 90.7521 37.1529ZM83.0881 28.7399C83.7131 28.7399 84.3381 28.8229 84.9631 28.7399C86.1291 28.5729 87.0871 28.0319 87.0871 26.6159C87.0451 25.2409 86.1291 24.6999 84.9211 24.6159C83.8381 24.5329 82.7141 24.6159 81.5891 24.5329C80.5891 24.4909 80.3391 24.9079 80.2561 25.8659C80.0901 28.8229 80.0481 28.8229 83.0881 28.7399ZM69.0951 28.2819H70.1351C73.6751 28.2819 74.1341 28.9889 72.9681 32.4459C71.6771 36.2779 67.8871 38.3599 63.6801 37.5689C59.8491 36.8189 56.9751 33.2379 57.1001 29.3229C57.2661 25.1579 60.3901 21.8259 64.5131 21.4099C66.4291 21.2009 68.2621 21.5349 69.8861 22.5759C70.3861 22.9089 71.5101 23.2419 70.8441 24.0329C70.3021 24.6999 69.7191 25.9489 68.3441 25.1579C67.6791 24.7829 66.9711 24.4909 66.2211 24.3669C63.8051 23.9499 61.4731 25.3239 60.6401 27.6979C59.7651 30.1559 60.6401 32.7789 62.7641 34.0709C64.7641 35.2779 67.5541 34.9869 69.0941 33.3629C69.5531 32.8629 70.1781 32.2799 69.9281 31.5719C69.6361 30.8639 68.8451 31.2379 68.2621 31.1969C67.5684 31.1552 66.8728 31.1552 66.1791 31.1969C65.1791 31.2379 64.8471 30.8219 64.8471 29.8639C64.8471 28.8639 65.0551 28.2819 66.2211 28.3239C67.1371 28.3239 68.0951 28.2809 69.0951 28.2809V28.2819ZM93.1261 29.6149C93.1261 25.0339 96.7071 21.4099 101.247 21.3689C105.912 21.3269 109.618 25.0339 109.577 29.6569C109.535 34.2369 105.953 37.7779 101.289 37.7779C96.7071 37.7359 93.1671 34.1959 93.1261 29.6149ZM106.495 29.6149C106.495 26.6159 104.163 24.2419 101.247 24.2839C98.4151 24.3259 96.2071 26.6579 96.2071 29.6139C96.2071 32.5299 98.4151 34.7379 101.33 34.7789C104.246 34.7789 106.495 32.5299 106.495 29.6149ZM135.815 21.7429C136.981 21.7429 138.189 21.6599 139.355 21.7429C142.354 22.0349 144.228 24.0339 144.228 26.9489C144.228 29.8649 142.396 31.8219 139.355 32.1549C139.022 32.1969 138.647 32.1969 138.314 32.1969C134.607 32.3219 134.566 32.2799 134.316 36.0699C134.233 37.4029 133.524 37.4449 132.567 37.4449C131.525 37.4859 131.109 37.1529 131.109 36.0289C131.151 31.7389 131.151 27.4489 131.109 23.1589C131.109 21.9089 131.609 21.6189 132.733 21.7019C133.774 21.7849 134.816 21.7019 135.857 21.7019L135.815 21.7429ZM137.564 24.5329C134.233 24.4929 134.357 24.4929 134.233 27.2409C134.149 28.9479 134.691 29.6569 136.398 29.4069C137.231 29.2819 138.064 29.3649 138.855 29.2819C140.188 29.1569 141.021 28.3649 141.021 26.9909C141.021 25.5329 140.147 24.7419 138.731 24.5749C138.231 24.5749 137.689 24.5749 137.564 24.5339V24.5329ZM93.9171 15.7039C91.6681 16.1619 90.1271 16.0369 89.6691 13.7049C89.5861 13.2049 89.3361 12.5809 88.6281 12.5809H82.7971C82.0891 12.5809 81.8391 13.1639 81.7561 13.7049C81.2981 15.9549 79.7981 16.2869 77.8411 15.7869C77.5081 15.0789 78.0491 14.5379 78.2991 13.9549C80.0891 9.74788 81.9221 5.58388 83.7131 1.37688C84.0461 0.585884 84.4211 0.085884 85.3791 0.210884C86.1701 0.293884 87.0451 -0.0391159 87.5031 1.04388C89.5861 5.87488 91.7511 10.7059 93.9171 15.7039ZM85.7541 4.12588C85.2131 5.33388 84.8381 5.99988 84.5881 6.70788C84.2961 7.62388 83.1721 8.74788 83.8801 9.45688C84.4211 9.99788 85.8371 9.62388 86.8371 9.70688C87.7531 9.74788 87.8781 9.33188 87.5451 8.58188C87.0041 7.24988 86.5041 5.91688 85.7541 4.12588ZM113.2 27.0739V23.5339C113.2 22.5339 113.034 21.6179 114.616 21.6599C116.032 21.6599 116.366 22.2429 116.366 23.5339C116.324 25.9489 116.282 28.4069 116.449 30.8219C116.616 33.4039 118.032 34.7789 120.114 34.7369C122.155 34.7369 123.529 33.1969 123.654 30.6559C123.737 28.1559 123.737 25.6579 123.696 23.1589C123.654 21.8679 124.279 21.7009 125.32 21.7009C126.445 21.7009 126.944 21.9929 126.903 23.2009C126.819 25.6989 126.944 28.1979 126.861 30.6969C126.653 35.0699 123.987 37.8189 120.031 37.7359C115.949 37.6529 113.367 34.9039 113.242 30.4059C113.2 29.3229 113.2 28.1979 113.2 27.0739ZM107.12 0.376884C109.619 -0.373116 110.91 0.501884 111.826 2.50088C112.576 4.16688 113.658 5.70788 114.783 7.62388C115.952 5.54104 117.146 3.47255 118.365 1.41888C118.656 0.918884 118.864 0.168884 119.614 0.168884C120.489 0.168884 121.613 -0.247116 122.155 0.418884C122.613 1.00188 121.738 1.75188 121.363 2.37588C120.447 4.00088 119.531 5.66588 118.49 7.20788C116.99 9.45688 115.949 11.7889 116.324 14.5789C116.49 15.7459 115.741 15.9539 114.783 15.8699C114.075 15.8289 113.034 16.0789 113.242 14.8699C113.908 11.0399 111.659 8.28988 109.952 5.33288C109.035 3.70888 108.119 2.12688 107.12 0.376884ZM70.5521 0.169884C72.4271 0.169884 74.3011 0.209884 76.1331 0.169884C77.3831 0.127884 77.3831 0.835884 77.4241 1.75188C77.4661 2.79288 77.0081 3.00188 76.0921 3.04288C72.2181 3.25088 72.2181 3.29288 72.2181 7.20788C72.2181 9.62288 72.1771 12.0389 72.2181 14.4549C72.2601 15.7049 71.7181 15.9539 70.5941 15.9539C69.5111 15.9539 68.9701 15.7869 68.9701 14.4959C69.0531 11.2479 68.9281 7.99888 69.0111 4.75088C69.1371 3.37588 68.7201 2.79288 67.3461 2.95988C66.6791 3.04288 65.9711 2.91788 65.2631 3.00088C64.2631 3.08488 63.7231 2.83488 63.7631 1.66888C63.7631 0.460884 64.2221 0.085884 65.3471 0.168884C67.0961 0.210884 68.8451 0.127884 70.5531 0.168884L70.5521 0.169884ZM96.9571 7.87388C96.9571 5.70888 96.9991 3.58388 96.9571 1.41888C96.9161 0.209884 97.5401 0.085884 98.4981 0.127884C99.4151 0.127884 100.123 0.168884 100.123 1.41788C100.081 4.66788 100.164 7.91588 100.081 11.1649C100.039 12.5809 100.456 13.1639 101.913 13.0389C103.579 12.9139 105.245 13.0799 106.911 12.9969C108.119 12.9549 108.202 13.6219 108.244 14.5379C108.286 15.5379 107.911 15.8709 106.911 15.8709C103.996 15.8289 101.081 15.8289 98.1651 15.8709C97.1241 15.8709 96.8741 15.4129 96.9151 14.4959C96.9571 12.3309 96.9571 10.0819 96.9571 7.87388ZM60.6821 7.95688C60.6821 10.1649 60.6401 12.3719 60.7231 14.5789C60.7651 15.7869 60.1401 15.9119 59.1831 15.8709C58.2661 15.8709 57.8081 15.7039 57.8081 14.6209C57.8501 10.2059 57.8501 5.79088 57.8081 1.33488C57.8081 0.127884 58.3491 0.044884 59.3081 0.00288402C60.4321 -0.039116 60.7241 0.418884 60.6821 1.45988C60.6401 3.66788 60.6821 5.83288 60.6821 7.95688Z" fill="#FAF7F5"/>
</g>
<defs>
<clipPath id="clip0">
<rect width="145" height="47" fill="white"/>
</clipPath>
</defs>
</svg>
