<svg width="166" height="141" viewBox="0 0 166 141" fill="none" xmlns="http://www.w3.org/2000/svg">
<path d="M0 0V100.75H128.1L166 141V0H0Z" fill="#F21200"/>
<path d="M58.9 30.03V35.26H65.59V40.29H58.89V47.41C58.89 49.5 60.57 51.59 62.66 51.59C64.12 51.59 66.43 51.18 67.68 48.66L69.14 53.26C68.1737 54.4179 66.9567 55.341 65.5812 55.9595C64.2056 56.578 62.7075 56.8756 61.2 56.83C57.22 56.83 52.83 54.11 52.83 48.87V40.5H49.27V35.47H52.83V30.03H58.89H58.9Z" fill="white"/>
<path d="M43.83 35.26V47.41C43.83 49.5 45.3 52.01 48.02 52.01C48.6652 51.997 49.3016 51.8567 49.8924 51.5971C50.4833 51.3375 51.017 50.9638 51.4631 50.4973C51.9091 50.0309 52.2585 49.4809 52.4914 48.879C52.7243 48.2771 52.8359 47.6352 52.82 46.99L54.29 52.64C51.57 56.62 47.81 56.62 45.92 56.62C44.8536 56.633 43.7958 56.429 42.8108 56.0201C41.8259 55.6113 40.9344 55.0064 40.1907 54.2421C39.447 53.4778 38.8665 52.5701 38.4848 51.5744C38.103 50.5786 37.9279 49.5156 37.97 48.45V40.3H34V35.27H43.83V35.26ZM98.43 25V46.99C98.43 49.09 99.48 51.59 101.78 51.59C103.24 51.59 105.34 51.59 107.22 48.03L109.52 52.43C107.01 56.2 104.08 56.83 101.15 56.83C96.55 56.83 92.37 53.48 92.37 48.24V30.24H88.8V25.2H98.42V25H98.43Z" fill="white"/>
<path d="M89.65 52.22C90.48 52.22 92.37 52.22 92.37 47.82L94.67 53.48C92.78 56.2 89.02 56.41 87.77 56.41C85.67 56.41 83.17 55.57 82.32 54.11C81.2925 55.0038 80.0979 55.685 78.8054 56.1141C77.5128 56.5432 76.1481 56.7118 74.79 56.61C70.82 56.41 67.26 54.11 67.47 50.34C67.68 45.1 72.49 43.43 76.67 43.43C78.35 43.43 80.23 43.63 81.7 44.06V43.22C81.7 41.12 80.02 39.66 76.88 39.66C73.96 39.66 71.45 40.5 69.56 41.12V35.9C72.178 34.9546 74.9367 34.4577 77.72 34.43C84 34.43 87.97 36.95 87.97 43.86V49.51C87.77 51.81 89.02 52.23 89.65 52.23V52.22ZM73.75 49.92C73.75 51.38 75.21 52.43 77.09 52.43C78.77 52.43 80.44 52.01 81.69 50.76V47.4C80.86 47.19 79.39 46.98 78.14 46.98C76.04 46.98 73.74 47.81 73.74 49.91L73.75 49.92ZM118.72 35.26H125L115.8 58.71C113.5 64.58 110.15 66.25 106.8 66.25C105.75 66.25 104.7 66.05 103.45 65.83V60.81C104.29 61.01 105.13 61.01 105.96 61.01C108.06 61.01 109.73 59.55 110.98 56.41L101.15 35.26H107.43L113.49 49.29L118.72 35.26ZM44.46 28.98C44.46 31.08 42.79 32.54 40.9 32.54C39.9663 32.5098 39.0793 32.1248 38.4197 31.4633C37.76 30.8018 37.3775 29.9137 37.35 28.98C37.3775 28.0462 37.76 27.1581 38.4197 26.4966C39.0793 25.8352 39.9663 25.4501 40.9 25.42C43 25.42 44.46 27.09 44.46 28.98ZM37.77 74.42V70.44H39.02C40.07 68.56 40.48 66.25 40.48 63.32H47.38V70.44H48.64V74.42H46.76V72.12H39.65V74.42H37.77ZM41.11 70.44H45.3V64.79H42.16C42.16 67.29 41.74 68.97 41.11 70.44ZM54.08 63.11C56.59 63.11 58.89 64.79 58.89 67.71C58.89 70.86 56.59 72.32 54.09 72.32C51.57 72.32 49.27 70.65 49.27 67.72C49.3192 66.4784 49.8479 65.3043 50.7449 64.4446C51.642 63.5848 52.8375 63.1064 54.08 63.11ZM54.08 64.99C52.41 64.99 51.36 66.04 51.36 67.93C51.36 69.6 52.41 70.86 54.08 70.86C55.76 70.86 56.8 69.81 56.8 67.93C57.01 66.04 55.76 64.99 54.08 64.99ZM60.57 72.12V63.32H62.66L65.59 67.92L68.52 63.32H70.61V72.12H68.73V66.25L66.22 70.02H64.96L62.46 66.25V72.12H60.56H60.57ZM77.1 63.11C79.6 63.11 81.9 64.79 81.9 67.71C81.9 70.86 79.6 72.32 77.1 72.32C74.58 72.32 72.28 70.65 72.28 67.72C72.28 64.79 74.58 63.11 77.09 63.11H77.1ZM77.1 64.99C75.42 64.99 74.37 66.04 74.37 67.93C74.37 69.6 75.42 70.86 77.09 70.86C78.77 70.86 79.81 69.81 79.81 67.93C79.81 66.04 78.77 64.99 77.09 64.99H77.1ZM83.58 72.11V63.31H85.46V68.97L90.06 63.32H91.74V72.12H89.86V66.46L85.26 72.11H83.58ZM87.76 62.06C86.7844 62.108 85.8225 61.8145 85.04 61.23V59.55C85.8212 60.1381 86.7832 60.4352 87.76 60.39C88.6 60.39 89.44 60.18 90.48 59.55V61.43C89.65 61.85 88.81 62.06 87.76 62.06Z" fill="white"/>
</svg>
