<svg width="32" height="25" viewBox="0 0 32 25" fill="none" xmlns="http://www.w3.org/2000/svg">
<path d="M12.206 7.40869H9.4209V11.9416H8.3125V13.3838H9.5203V13.8598H8.3125V15.1955H9.5203V17.0073H10.9555V15.1955H14.0745V13.8598H10.856V13.3838H12.1988C14.2592 13.3838 15.4813 12.2684 15.4813 10.3998C15.4884 9.49749 15.1687 7.40869 12.206 7.40869ZM12.3054 12.1405H10.9626V8.85099H12.3054C13.5345 8.85099 14.1527 9.40509 14.1527 10.4993C14.1527 11.2524 13.6695 12.1405 12.3054 12.1405Z" fill="#F21200"/>
<path d="M19.4671 0.10498C18.7567 0.10498 18.0391 0.17598 17.2789 0.31808H17.222C16.6394 0.23998 16.1492 0.20438 15.6803 0.20438C14.9698 0.20438 14.2522 0.27548 13.492 0.41758L13.4636 0.42468L13.4352 0.41758C12.8526 0.33938 12.3623 0.30388 11.8934 0.30388C5.3357 0.30398 0 5.64668 0 12.2044C0 18.7622 5.3357 24.105 11.9005 24.105C12.611 24.105 13.3286 24.0339 14.0888 23.8918L14.1172 23.8847L14.1456 23.8918C14.7282 23.97 15.2185 24.0055 15.6874 24.0055C16.3979 24.0055 17.1155 23.9345 17.8757 23.7924L17.9041 23.7853L17.9325 23.7924C18.5151 23.8705 19.0053 23.906 19.4742 23.906C26.0391 23.906 31.3748 18.5703 31.3748 12.0055C31.3748 5.44068 26.032 0.10498 19.4671 0.10498ZM14.1385 22.8048C14.0817 22.819 14.0249 22.8261 13.968 22.8332L13.8615 22.8545C13.1794 22.9824 12.5329 23.0393 11.9005 23.0393C11.1972 23.0393 10.4867 22.9682 9.7833 22.8261C4.7318 21.8243 1.0657 17.3554 1.0657 12.2044C1.0657 7.25948 4.4192 2.94688 9.222 1.71778C10.1243 1.48328 11.0266 1.36958 11.9005 1.36958C12.3268 1.36958 12.7744 1.40518 13.3073 1.46908L13.4352 1.49038L13.5062 1.50458C14.1812 1.60408 14.8348 1.76748 15.4671 1.98768C19.8153 3.50818 22.7353 7.61468 22.7353 12.2044C22.7353 16.6023 20.0995 20.5313 16.0284 22.2222C15.4177 22.4741 14.7851 22.6692 14.1385 22.8048ZM18.3659 22.5917L17.2718 22.8687L18.2238 22.2648C21.7194 20.0624 23.8011 16.3039 23.8011 12.2044C23.8011 7.89888 21.4565 3.91318 17.6767 1.81008L16.6963 1.26308L17.8046 1.48328C22.8561 2.48508 26.5222 6.95398 26.5222 12.105C26.5222 17.0499 23.1616 21.3625 18.3659 22.5917ZM22.1456 22.4922L21.0515 22.7693L22.0036 22.1654C25.4991 19.9629 27.5808 16.1973 27.5808 12.105C27.5808 7.79948 25.2362 3.81368 21.4565 1.71068L20.476 1.16358L21.5844 1.38378C26.6359 2.38558 30.302 6.85448 30.302 12.0055C30.302 16.9505 26.9485 21.2631 22.1456 22.4922Z" fill="#F21200"/>
</svg>
