<svg width="20" height="20" viewBox="0 0 20 20" fill="none" xmlns="http://www.w3.org/2000/svg">
<path d="M16.3391 19.9968C15.1131 19.9398 14.0651 19.5928 13.0641 19.1088C11.4661 18.3328 10.0341 17.2988 8.69006 16.1488C6.22806 14.0428 3.97306 11.7408 2.13006 9.06177C1.17306 7.66677 0.384062 6.19177 0.0640619 4.50377C-0.0859381 3.72377 0.00406188 3.03377 0.586062 2.41777C1.30506 1.64777 2.06606 0.932769 2.92106 0.326769C3.56906 -0.133231 4.31106 -0.101231 4.77206 0.382769C4.82906 0.443769 4.88006 0.514769 4.92706 0.584769C5.76706 1.85377 6.59906 3.12677 7.44906 4.38677C7.77406 4.86577 7.77906 5.34977 7.55706 5.85277C7.27606 6.49677 6.89006 7.08277 6.54706 7.69477C6.45306 7.86377 6.46306 7.97177 6.57106 8.11777C6.96506 8.65777 7.39806 9.16577 7.85306 9.65377C9.02806 10.9178 10.2501 12.1348 11.6031 13.2108C12.0491 13.5638 12.0491 13.5638 12.5521 13.2868C13.0551 13.0088 13.5521 12.7178 14.0651 12.4638C14.6001 12.1958 15.1171 12.2148 15.6391 12.5678C16.8601 13.3988 18.1051 14.2028 19.3361 15.0208C20.0081 15.4668 20.2061 16.2228 19.7591 16.8948C19.0361 17.9758 18.1851 18.9488 17.1421 19.7288C16.8741 19.9168 16.5741 20.0198 16.3391 19.9968ZM16.1931 19.0898C16.3111 19.1268 16.4521 19.0518 16.5931 18.9718C16.8091 18.8448 16.9921 18.6898 17.1701 18.5218C17.8153 17.9242 18.3965 17.261 18.9041 16.5428C19.1481 16.1908 19.1011 15.9508 18.7491 15.7208C17.6031 14.9588 16.4421 14.2168 15.3151 13.4318C14.9051 13.1458 14.5631 13.1778 14.1731 13.4038C13.6231 13.7188 13.0501 13.9958 12.5281 14.3538C12.1431 14.6158 11.8711 14.5548 11.5321 14.2918C9.33827 12.6054 7.37342 10.6406 5.68706 8.44677C5.42006 8.09877 5.37706 7.82677 5.63106 7.44077C5.99306 6.90077 6.28406 6.31777 6.60406 5.74877C6.80606 5.39177 6.83406 5.07277 6.57106 4.69677C5.78106 3.55977 5.03406 2.39377 4.26906 1.23777C4.01506 0.857769 3.78906 0.819769 3.40906 1.09277C2.72306 1.57677 2.10706 2.14077 1.51106 2.72777C0.984062 3.24477 0.796062 3.80777 0.984062 4.55577C1.28851 5.73561 1.78044 6.85891 2.44106 7.88277C4.28706 10.7628 6.63706 13.1928 9.21606 15.4108C10.5131 16.5238 11.8851 17.5338 13.4361 18.2808C14.3001 18.6908 15.1781 19.0188 16.1931 19.0898Z" fill="#F21200"/>
</svg>
