<svg width="30" height="23" viewBox="0 0 30 23" fill="none" xmlns="http://www.w3.org/2000/svg">
<path d="M29.3731 14.989C29.3731 14.361 29.0961 13.82 28.5021 13.287C27.5701 12.437 26.4091 11.971 24.8291 11.802C24.5651 11.768 24.3761 11.687 24.2621 11.37C24.1114 10.9961 23.9189 10.6405 23.6881 10.31C22.7631 8.94602 21.7161 7.35202 20.9401 5.64402C20.7091 5.15123 20.5106 4.64381 20.3461 4.12502L20.2781 3.90902H20.8601C20.9071 3.90902 20.9481 3.90902 20.9881 3.90202C22.0351 3.84202 22.5211 3.32902 22.5211 2.29602V1.43002C22.5071 0.680024 22.0951 0.188024 21.3461 0.0600238C21.1184 0.0192911 20.8874 -0.000790509 20.6561 2.3802e-05C20.2241 2.3802e-05 19.7661 0.0740238 19.2991 0.216024C18.5091 0.459024 18.0161 0.837024 17.7731 1.38402C17.6451 1.66802 17.4561 1.84402 17.1391 1.97802C16.8961 2.08602 16.6531 2.18102 16.4091 2.28202C15.8891 2.49202 15.3971 2.69402 14.9171 2.96402C14.5601 3.17402 14.3501 3.51802 14.3571 3.88202C14.3641 4.24002 14.5601 4.55102 14.9041 4.73202C15.1141 4.84102 15.3361 4.90202 15.5591 4.90202C15.6471 4.90202 15.7341 4.89502 15.8221 4.87502C16.1731 4.82102 16.5171 4.66502 16.8691 4.41502C17.0581 4.28002 17.1591 4.21302 17.2671 4.21302C17.4701 4.21302 17.5231 4.39502 17.6181 4.69302C17.6581 4.83402 17.6991 4.97602 17.7401 5.11102C17.8001 5.31402 17.8611 5.51602 17.9081 5.72502C18.2801 7.20402 18.6101 8.97302 18.2661 10.809C17.9891 12.234 17.3551 13.166 16.3281 13.652C15.5991 13.989 14.8031 14.158 13.9051 14.158C13.2771 14.158 12.5811 14.078 11.7171 13.908C11.5071 13.868 11.2371 13.713 11.1571 13.199C11.0151 12.322 11.2371 11.505 11.4541 10.715C11.5341 10.418 11.5141 10.181 11.3941 9.98502C11.2921 9.81002 11.0961 9.45202 11.4671 9.12102C11.4941 9.09402 11.5071 8.97302 11.5151 8.89902C11.5374 8.65381 11.5086 8.40665 11.4307 8.1731C11.3527 7.93955 11.2272 7.72468 11.0621 7.54202C10.9008 7.3664 10.7046 7.22641 10.4861 7.131C10.2676 7.0356 10.0315 6.9869 9.79309 6.98802C9.0371 6.98802 8.28109 6.98802 7.51809 6.99502C6.75509 6.99502 5.99809 7.00102 5.23609 7.00102C3.89909 7.00102 2.81209 6.99502 1.80609 6.98102C0.867095 6.98102 0.293095 7.45402 0.0640946 8.39202C-0.104905 9.04002 0.0500946 9.35802 0.651095 9.58702C0.773095 9.63502 0.908095 9.70902 0.961095 9.84402C1.01609 9.99202 0.955095 10.134 0.888095 10.269C0.329092 11.3687 0.0265172 12.5807 0.00309457 13.814C-0.00990543 14.314 0.152095 14.752 0.496095 15.157C0.813095 15.549 1.22609 15.846 1.79209 16.109C2.00209 16.217 2.17709 16.359 2.05609 16.717C1.73337 17.5603 1.71166 18.4891 1.99462 19.3466C2.27757 20.204 2.84785 20.9375 3.60909 21.423C4.31109 21.875 5.03309 22.105 5.76209 22.105C6.38309 22.105 7.01209 21.935 7.62609 21.612C8.94909 20.91 9.66509 19.789 9.75209 18.29C9.75909 18.101 9.77909 17.784 10.2051 17.784C11.3668 17.8632 12.5307 17.9059 13.6951 17.912C15.3021 17.912 16.7071 17.797 17.9961 17.568C18.0431 17.554 18.0911 17.554 18.1381 17.554C18.4221 17.554 18.5161 17.764 18.5701 17.939C18.7601 18.661 19.2791 19.114 19.9341 19.114C20.0961 19.114 20.2581 19.087 20.4271 19.033C20.4992 19.0095 20.5743 18.996 20.6501 18.993C20.9061 18.993 20.9801 19.208 21.0341 19.35C21.5811 20.964 23.1141 22.084 24.7681 22.084C24.9841 22.084 25.2071 22.064 25.4161 22.024C26.6791 21.794 27.6911 21.099 28.2791 20.052C28.8591 19.019 28.9271 17.743 28.4751 16.562C28.4411 16.481 28.3871 16.352 28.4481 16.231C28.5021 16.116 28.6161 16.069 28.7041 16.035C29.1501 15.873 29.3731 15.535 29.3731 14.989ZM16.6861 3.49602C16.3831 3.76002 16.0521 4.01602 15.6131 4.01602H15.5791L15.0931 4.00302L15.4851 3.71302C15.8221 3.46302 16.1801 3.32802 16.5251 3.21302L17.3351 2.94302L16.6861 3.49602ZM18.8401 1.40302C19.3531 1.05302 19.9341 0.877024 20.6021 0.877024C20.8251 0.877024 21.0621 0.897024 21.3121 0.937024C21.5141 0.951024 21.6421 1.09302 21.6621 1.34302C21.6761 1.57302 21.6891 1.78102 21.6891 1.91602C21.6831 2.07202 21.6831 2.19302 21.6831 2.29502C21.6891 2.99002 21.5341 3.03702 20.5691 3.05102H20.5001C19.9089 3.05561 19.3318 2.87095 18.8531 2.52402C18.6091 2.34902 18.4881 2.15302 18.4881 1.94402C18.4811 1.74802 18.6031 1.55902 18.8391 1.40402L18.8401 1.40302ZM0.942095 8.54802C0.969095 8.35802 1.03609 7.93302 1.49509 7.83202C1.53509 7.82502 1.57609 7.82502 1.61709 7.82502H7.38909C8.11209 7.82502 8.96309 7.81802 9.81309 7.79802C10.0231 7.79802 10.2531 7.83202 10.4411 8.07502C10.5421 8.21002 10.6711 8.41202 10.6031 8.60802C10.5361 8.80402 10.3261 8.88502 10.1711 8.92602C9.21909 9.20202 8.26709 9.26302 7.21409 9.30402C6.49109 9.33702 5.90409 9.35102 5.35709 9.35102C4.04709 9.35102 2.95409 9.26302 1.92709 9.07402C1.74675 9.04656 1.56862 9.00612 1.39409 8.95302C1.37409 8.94602 1.34709 8.94602 1.31309 8.93902C1.21209 8.92602 0.901095 8.88502 0.942095 8.54802ZM5.83009 21.227H5.79009C5.28873 21.2301 4.79396 21.1128 4.34741 20.8848C3.90086 20.6568 3.51562 20.3249 3.22409 19.917C2.9294 19.5139 2.73627 19.0456 2.66107 18.5519C2.58586 18.0582 2.63081 17.5536 2.79209 17.081C2.79209 17.075 2.79809 17.061 2.79809 17.041C2.81809 16.946 2.86609 16.697 3.12209 16.697C3.33809 16.71 3.52709 16.777 3.66909 16.872C3.76409 16.933 3.85209 17.055 3.71709 17.291L3.69709 17.331C3.32509 18.486 3.83809 19.667 4.91809 20.133C5.19509 20.248 5.48509 20.309 5.77609 20.309C6.99109 20.309 7.98409 19.329 7.98409 18.121C7.98409 18.115 7.97709 18.101 7.97009 18.081C7.95009 18 7.91609 17.871 7.99709 17.763C8.03109 17.716 8.09809 17.663 8.22009 17.663C8.2471 17.663 8.28009 17.663 8.32109 17.676H8.44909C8.56409 17.676 8.90909 17.676 8.90909 18.142C8.91509 19.836 7.53109 21.214 5.82909 21.227H5.83009ZM5.44509 18.486C5.52107 18.5548 5.61965 18.5932 5.72209 18.594C5.83407 18.5921 5.94077 18.5461 6.01909 18.466C6.20109 18.29 6.36309 18.108 6.53209 17.912C6.60609 17.831 6.68009 17.743 6.75509 17.662L6.95109 17.446L7.03809 17.723C7.23409 18.337 6.99109 18.993 6.47109 19.289C6.25794 19.4061 6.01926 19.4689 5.77609 19.472C5.37709 19.472 5.00609 19.302 4.75009 19.019C4.35809 18.567 4.31709 17.79 4.66209 17.325C4.68963 17.2762 4.73 17.2359 4.77883 17.2084C4.82766 17.1809 4.88308 17.1673 4.93909 17.169C4.97209 17.169 5.00609 17.176 5.03909 17.176C5.16109 17.203 5.25609 17.223 5.36409 17.244L5.56609 17.284L5.74909 17.324L5.68809 17.507C5.64607 17.6179 5.58174 17.719 5.49909 17.804C5.47209 17.838 5.44509 17.864 5.41809 17.905C5.24909 18.108 5.26309 18.317 5.44509 18.485V18.486ZM18.5161 15.9L18.5091 15.94C18.3401 16.65 18.2861 16.697 17.5301 16.811C16.2341 17.001 14.8841 17.095 13.4121 17.095C12.3051 17.095 11.1301 17.041 9.82709 16.933C8.24009 16.805 6.53909 16.636 4.85709 16.251C3.93909 16.048 3.21709 15.819 2.58209 15.535C2.23209 15.394 1.90709 15.198 1.63709 15.035C1.02909 14.665 0.780095 14.138 0.867095 13.429C1.00909 12.274 1.32009 11.255 1.81309 10.323C1.92709 10.121 2.07609 10.026 2.28509 10.026C2.32509 10.026 2.36609 10.026 2.40709 10.033C3.48009 10.168 4.58709 10.235 5.69509 10.235C7.00509 10.235 8.36209 10.141 9.73209 9.95902L9.81309 9.93902L9.91409 9.91902C9.96506 9.90577 10.0174 9.89872 10.0701 9.89802C10.2591 9.89802 10.4201 9.97202 10.5291 10.114C10.5882 10.1945 10.628 10.2875 10.6455 10.3858C10.663 10.4841 10.6577 10.5851 10.6301 10.681C10.5151 11.181 10.3741 11.795 10.3201 12.403C10.2451 13.173 10.4141 13.82 10.8121 14.273C11.1971 14.712 11.7921 14.955 12.5341 14.982L12.6831 14.989C13.0071 14.995 13.3241 15.009 13.6481 15.009C14.4041 15.009 14.9711 14.961 15.5051 14.847C17.5571 14.407 18.8271 13.051 19.1781 10.911C19.4951 8.94602 19.2861 6.90102 18.4961 4.28702C18.4351 4.07802 18.3611 3.86202 18.2931 3.65302L18.2731 3.61302L18.2331 3.51102L18.3201 3.42302L18.3811 3.36302L18.4621 3.37602C19.1841 3.47002 19.4011 4.01002 19.5421 4.50302C20.2851 6.69102 21.4801 8.59502 22.5531 10.168C22.7231 10.418 22.8781 10.668 23.0401 10.918C23.1201 11.038 23.1951 11.168 23.2761 11.288C23.3431 11.383 23.4111 11.518 23.3501 11.646C23.2831 11.795 23.1071 11.816 23.0131 11.829C20.8051 12.119 19.0031 13.759 18.5161 15.9ZM27.1651 20.147C26.5301 20.876 25.7611 21.241 24.8831 21.241C24.5731 21.241 24.2551 21.193 23.9311 21.105C22.7291 20.781 21.9801 19.958 21.7031 18.655C21.5611 17.986 21.7431 17.784 22.3911 17.473L22.6811 17.331L22.6281 17.649C22.5201 18.29 22.6281 18.83 22.9451 19.303C23.2891 19.803 23.7351 20.106 24.3021 20.241C24.4781 20.281 24.6531 20.302 24.8221 20.302C25.5981 20.302 26.2671 19.924 26.6651 19.276C27.2121 18.378 27.0771 17.433 26.2671 16.46L26.0641 16.217L26.3741 16.183C26.4761 16.17 26.5711 16.163 26.6441 16.15C26.7941 16.13 26.9021 16.116 26.9831 16.116C27.3071 16.116 27.3941 16.306 27.5701 16.676L27.6171 16.778C28.1771 17.98 28.0221 19.141 27.1651 20.147ZM25.0921 17.831C25.0381 17.771 24.9841 17.709 24.9301 17.655C24.7596 17.4751 24.5994 17.2858 24.4501 17.088L24.3091 16.886L24.5451 16.825C24.811 16.7566 25.0921 16.7777 25.3448 16.8851C25.5975 16.9925 25.8078 17.1801 25.9431 17.419C26.2531 17.939 26.1591 18.634 25.7131 19.08C25.4771 19.316 25.1331 19.451 24.7681 19.451C24.5111 19.451 24.2751 19.391 24.0661 19.269C23.5591 18.979 23.3301 18.371 23.4991 17.729L23.5731 17.433L23.7831 17.655C23.9171 17.797 24.0461 17.939 24.1731 18.074C24.2821 18.189 24.3831 18.304 24.4841 18.412C24.5921 18.52 24.7071 18.58 24.8291 18.58C24.9231 18.58 25.0181 18.54 25.0991 18.466C25.1809 18.3959 25.2319 18.2964 25.2411 18.189C25.2541 18.074 25.2011 17.953 25.0921 17.831ZM28.4881 15.137C28.4001 15.279 28.2111 15.292 28.0431 15.292H27.0351C24.7671 15.292 22.7821 15.974 21.1411 17.312C20.9791 17.446 20.8381 17.602 20.6891 17.77C20.6151 17.858 20.5341 17.946 20.4531 18.034C20.2971 18.202 20.1151 18.297 19.9331 18.297C19.6631 18.297 19.4601 18.101 19.3791 17.77C19.1691 16.906 19.2711 16.035 19.6831 15.178C20.4461 13.598 22.0801 12.618 23.9571 12.618C24.0581 12.618 24.1591 12.618 24.2611 12.626C25.5511 12.686 26.5491 12.976 27.4211 13.544C27.8931 13.841 28.2311 14.219 28.4261 14.651C28.5141 14.82 28.5751 14.995 28.4871 15.137H28.4881Z" fill="#F21200"/>
</svg>
